AnivaSansVF.glyphspackage
{
glyphname = exclam;
layers = (
{
hints = (
{
horizontal = 1;
place = (-5,120);
type = Stem;
},
{
place = (82.5,87);
type = Stem;
},
{
place = (67,120);
type = Stem;
}
);
layerId = m01;
shapes = (
{
ref = period;
},
{
closed = 1;
nodes = (
(97,200,o),
(123,200,o),
(150,200,c),
(160,667,l),
(60,667,l),
(70,200,l)
);
}
);
width = 220;
},
{
layerId = "481D16E4-1E98-4559-AE79-559AF135D401";
shapes = (
{
pos = (25,0);
ref = period;
},
{
closed = 1;
nodes = (
(128,175,o),
(142,175,o),
(155,175,c),
(160,667,l),
(110,667,l),
(115,175,l)
);
}
);
width = 270;
},
{
layerId = "05E54F0F-8425-4B5B-B0EB-B578BBC85A7B";
shapes = (
{
ref = period;
},
{
closed = 1;
nodes = (
(100,225,o),
(150,225,o),
(200,225,c),
(225,667,l),
(25,667,l),
(50,225,l)
);
}
);
width = 250;
},
{
layerId = m004;
shapes = (
{
pos = (25,0);
ref = period;
},
{
closed = 1;
nodes = (
(121,150,o),
(149,150,o),
(150,175,cs),
(160,667,l),
(110,667,l),
(120,175,ls)
);
}
);
width = 270;
},
{
hints = (
{
horizontal = 1;
place = (-5,120);
type = Stem;
},
{
place = (82.5,87);
type = Stem;
},
{
place = (67,120);
type = Stem;
}
);
layerId = m005;
shapes = (
{
ref = period;
},
{
closed = 1;
nodes = (
(71,175,o),
(149,175,o),
(150,225,cs),
(160,667,l),
(60,667,l),
(70,225,ls)
);
}
);
width = 220;
},
{
layerId = m006;
shapes = (
{
ref = period;
},
{
closed = 1;
nodes = (
(53,200,o),
(197,200,o),
(200,250,cs),
(225,667,l),
(25,667,l),
(50,250,ls)
);
}
);
width = 250;
}
);
note = exclam;
unicode = 33;
userData = {
KernOnName = exclam;
KernOnSpecialSpacing = {
L = "spaced-off";
};
};
}
{
glyphname = quotesingle;
kernLeft = KO_quotesingle;
kernRight = KO_quotesingle;
layers = (
{
hints = (
{
horizontal = 1;
place = (500,200);
type = Stem;
},
{
place = (80,62.5);
type = Stem;
}
);
layerId = m01;
shapes = (
{
closed = 1;
nodes = (
(90,475,o),
(110,475,o),
(130,475,c),
(150,725,l),
(117,725,o),
(83,725,o),
(50,725,c),
(70,475,l)
);
}
);
width = 200;
},
{
layerId = "481D16E4-1E98-4559-AE79-559AF135D401";
shapes = (
{
closed = 1;
nodes = (
(93,475,o),
(107,475,o),
(120,475,c),
(125,725,l),
(108,725,o),
(92,725,o),
(75,725,c),
(80,475,l)
);
}
);
width = 200;
},
{
layerId = "05E54F0F-8425-4B5B-B0EB-B578BBC85A7B";
shapes = (
{
closed = 1;
nodes = (
(72,475,o),
(108,475,o),
(145,475,c),
(165,725,l),
(115,725,o),
(65,725,o),
(15,725,c),
(35,475,l)
);
}
);
width = 180;
},
{
layerId = m004;
shapes = (
{
closed = 1;
nodes = (
(86,475,o),
(114,475,o),
(115,500,cs),
(125,700,ls),
(126,725,o),
(74,725,o),
(75,700,cs),
(85,500,ls)
);
}
);
width = 200;
},
{
hints = (
{
horizontal = 1;
place = (500,200);
type = Stem;
},
{
place = (80,62.5);
type = Stem;
}
);
layerId = m005;
shapes = (
{
closed = 1;
nodes = (
(75,450,o),
(125,450,o),
(130,500,cs),
(150,700,ls),
(155,750,o),
(45,750,o),
(50,700,cs),
(70,500,ls)
);
}
);
width = 200;
},
{
layerId = m006;
shapes = (
{
closed = 1;
nodes = (
(42,425,o),
(138,425,o),
(145,500,cs),
(165,700,ls),
(172,775,o),
(8,775,o),
(15,700,cs),
(35,500,ls)
);
}
);
width = 180;
}
);
metricLeft = "=period";
metricRight = "=period";
note = quotesingle;
unicode = 39;
userData = {
KernOnName = quotesingle;
KernOnSpecialSpacing = {
L = quotes;
R = quotes;
};
};
}
{
glyphname = parenleft;
kernLeft = KO_parenleft;
kernRight = KO_parenleft;
layers = (
{
hints = (
{
horizontal = 1;
place = (-80,827);
type = Stem;
},
{
place = (70,100);
type = Stem;
}
);
layerId = m01;
shapes = (
{
closed = 1;
nodes = (
(170,507,o),
(221,634,o),
(313,689,c),
(276,747,l),
(151,690,o),
(70,528,o),
(70,334,cs),
(70,140,o),
(151,-23,o),
(276,-80,c),
(313,-22,l),
(221,33,o),
(170,160,o),
(170,334,cs)
);
}
);
width = 341;
},
{
layerId = "481D16E4-1E98-4559-AE79-559AF135D401";
shapes = (
{
closed = 1;
nodes = (
(150,516,o),
(205,650,o),
(303,709,c),
(281,747,l),
(171,697,o),
(100,535,o),
(100,334,cs),
(100,133,o),
(171,-30,o),
(281,-80,c),
(303,-42,l),
(205,17,o),
(150,151,o),
(150,334,cs)
);
}
);
width = 353;
},
{
layerId = "05E54F0F-8425-4B5B-B0EB-B578BBC85A7B";
shapes = (
{
closed = 1;
nodes = (
(250,495,o),
(299,614,o),
(388,667,c),
(306,797,l),
(151,726,o),
(50,544,o),
(50,334,cs),
(50,123,o),
(151,-59,o),
(306,-130,c),
(388,0,l),
(299,53,o),
(250,172,o),
(250,334,cs)
);
}
);
width = 413;
},
{
layerId = m004;
shapes = (
{
closed = 1;
nodes = (
(140,533,o),
(191,674,o),
(283,729,c),
(271,747,l),
(161,697,o),
(90,535,o),
(90,334,cs),
(90,133,o),
(161,-30,o),
(271,-80,c),
(283,-62,l),
(191,-7,o),
(140,135,o),
(140,334,cs)
);
}
);
width = 328;
},
{
hints = (
{
horizontal = 1;
place = (-80,827);
type = Stem;
},
{
place = (70,100);
type = Stem;
}
);
layerId = m005;
shapes = (
{
closed = 1;
nodes = (
(150,513,o),
(201,644,o),
(293,699,c),
(266,747,l),
(141,690,o),
(60,528,o),
(60,334,cs),
(60,140,o),
(141,-23,o),
(266,-80,c),
(293,-32,l),
(201,23,o),
(150,154,o),
(150,334,cs)
);
}
);
width = 323;
},
{
layerId = m006;
shapes = (
{
closed = 1;
nodes = (
(205,549,o),
(265,689,o),
(328,727,c),
(286,797,l),
(131,726,o),
(30,544,o),
(30,334,cs),
(30,123,o),
(131,-59,o),
(286,-130,c),
(328,-60,l),
(265,-22,o),
(205,118,o),
(205,334,cs)
);
}
);
width = 343;
}
);
metricLeft = "=n";
metricRight = "=n/2";
note = parenleft;
unicode = 40;
userData = {
KernOnName = parenleft;
KernOnSpecialSpacing = {
R = parenthesis;
};
};
}
{
glyphname = asterisk;
layers = (
{
hints = (
{
horizontal = 1;
place = (350,400);
type = Stem;
},
{
place = (239,65);
type = Stem;
}
);
layerId = m01;
shapes = (
{
closed = 1;
nodes = (
(208,350,o),
(233,350,o),
(258,350,c),
(258,467,o),
(258,583,o),
(258,700,c),
(233,700,o),
(208,700,o),
(183,700,c),
(183,583,o),
(183,467,o),
(183,350,c)
);
},
{
closed = 1;
nodes = (
(366,427,o),
(378,448,o),
(391,470,c),
(290,528,o),
(189,587,o),
(88,645,c),
(75,623,o),
(63,602,o),
(50,580,c),
(151,522,o),
(252,463,o),
(353,405,c)
);
},
{
closed = 1;
nodes = (
(378,602,o),
(366,623,o),
(353,645,c),
(252,587,o),
(151,528,o),
(50,470,c),
(63,448,o),
(75,427,o),
(88,405,c),
(189,463,o),
(290,522,o),
(391,580,c)
);
}
);
width = 441;
},
{
layerId = "481D16E4-1E98-4559-AE79-559AF135D401";
shapes = (
{
closed = 1;
nodes = (
(230,350,o),
(244,350,o),
(257,350,c),
(257,467,o),
(257,583,o),
(257,700,c),
(244,700,o),
(230,700,o),
(217,700,c),
(217,583,o),
(217,467,o),
(217,350,c)
);
},
{
closed = 1;
nodes = (
(386,432,o),
(392,443,o),
(399,455,c),
(298,513,o),
(196,572,o),
(95,630,c),
(88,618,o),
(82,607,o),
(75,595,c),
(176,537,o),
(278,478,o),
(379,420,c)
);
},
{
closed = 1;
nodes = (
(392,607,o),
(386,618,o),
(379,630,c),
(278,572,o),
(176,513,o),
(75,455,c),
(82,443,o),
(88,432,o),
(95,420,c),
(196,478,o),
(298,537,o),
(399,595,c)
);
}
);
width = 474;
},
{
layerId = "05E54F0F-8425-4B5B-B0EB-B578BBC85A7B";
shapes = (
{
closed = 1;
nodes = (
(178,350,o),
(219,350,o),
(261,350,c),
(236,467,o),
(236,583,o),
(261,700,c),
(219,700,o),
(178,700,o),
(136,700,c),
(161,583,o),
(161,467,o),
(136,350,c)
);
},
{
closed = 1;
nodes = (
(340,419,o),
(360,456,o),
(381,492,c),
(267,528,o),
(167,586,o),
(78,667,c),
(57,631,o),
(37,594,o),
(16,558,c),
(130,522,o),
(230,464,o),
(319,383,c)
);
},
{
closed = 1;
nodes = (
(361,594,o),
(339,631,o),
(318,667,c),
(230,586,o),
(130,528,o),
(15,492,c),
(36,456,o),
(58,419,o),
(79,383,c),
(167,464,o),
(267,522,o),
(382,558,c)
);
}
);
width = 397;
},
{
layerId = m004;
shapes = (
{
closed = 1;
nodes = (
(231,325,o),
(256,325,o),
(256,350,c),
(256,467,o),
(256,583,o),
(256,700,c),
(256,725,o),
(231,725,o),
(231,700,c),
(231,583,o),
(231,467,o),
(231,350,c)
);
},
{
closed = 1;
nodes = (
(410,414,o),
(423,436,o),
(401,448,c),
(300,507,o),
(200,565,o),
(98,623,c),
(77,636,o),
(64,614,o),
(86,602,c),
(187,543,o),
(287,485,o),
(389,427,c)
);
},
{
closed = 1;
nodes = (
(423,614,o),
(410,636,o),
(389,623,c),
(287,565,o),
(187,507,o),
(86,448,c),
(64,436,o),
(77,414,o),
(98,427,c),
(200,485,o),
(300,543,o),
(401,602,c)
);
}
);
width = 487;
},
{
hints = (
{
horizontal = 1;
place = (350,400);
type = Stem;
},
{
place = (239,65);
type = Stem;
}
);
layerId = m005;
shapes = (
{
closed = 1;
nodes = (
(195,325,o),
(251,325,o),
(248,350,cs),
(233,467,o),
(233,583,o),
(248,700,cs),
(251,725,o),
(195,725,o),
(198,700,cs),
(213,583,o),
(213,467,o),
(198,350,cs)
);
},
{
closed = 1;
nodes = (
(382,401,o),
(410,449,o),
(387,459,cs),
(278,505,o),
(178,563,o),
(84,634,cs),
(64,649,o),
(36,601,o),
(59,591,cs),
(168,545,o),
(268,487,o),
(362,416,cs)
);
},
{
closed = 1;
nodes = (
(410,601,o),
(382,649,o),
(362,634,cs),
(268,563,o),
(168,505,o),
(59,459,cs),
(36,449,o),
(64,401,o),
(84,416,cs),
(178,487,o),
(278,545,o),
(387,591,cs)
);
}
);
width = 446;
},
{
layerId = m006;
shapes = (
{
closed = 1;
nodes = (
(158,301,o),
(253,301,o),
(243,350,cs),
(218,467,o),
(218,583,o),
(243,700,cs),
(253,749,o),
(158,749,o),
(168,700,cs),
(193,583,o),
(193,467,o),
(168,350,cs)
);
},
{
closed = 1;
nodes = (
(376,372,o),
(423,454,o),
(376,470,cs),
(262,507,o),
(162,565,o),
(73,645,cs),
(35,678,o),
(-12,596,o),
(35,580,cs),
(149,543,o),
(249,485,o),
(338,405,cs)
);
},
{
closed = 1;
nodes = (
(423,596,o),
(376,678,o),
(338,645,cs),
(249,565,o),
(149,507,o),
(35,470,cs),
(-12,454,o),
(35,372,o),
(73,405,cs),
(162,485,o),
(262,543,o),
(376,580,cs)
);
}
);
width = 411;
}
);
metricLeft = "=period";
metricRight = period;
note = asterisk;
unicode = 42;
userData = {
KernOnSpecialSpacing = {
L = quotes;
R = quotes;
};
};
}
{
glyphname = period;
kernLeft = KO_period;
kernRight = KO_period;
layers = (
{
hints = (
{
horizontal = 1;
place = (-5,120);
type = Stem;
},
{
place = (45,121);
type = Stem;
}
);
layerId = m01;
shapes = (
{
closed = 1;
nodes = (
(143,-10,o),
(170,16,o),
(170,50,cs),
(170,83,o),
(143,110,o),
(110,110,cs),
(76,110,o),
(50,83,o),
(50,50,cs),
(50,16,o),
(76,-10,o),
(110,-10,cs)
);
}
);
width = 220;
},
{
layerId = "481D16E4-1E98-4559-AE79-559AF135D401";
shapes = (
{
closed = 1;
nodes = (
(129,-10,o),
(145,6,o),
(145,25,cs),
(145,44,o),
(129,60,o),
(110,60,cs),
(91,60,o),
(75,44,o),
(75,25,cs),
(75,6,o),
(91,-10,o),
(110,-10,cs)
);
}
);
width = 220;
},
{
layerId = "05E54F0F-8425-4B5B-B0EB-B578BBC85A7B";
shapes = (
{
closed = 1;
nodes = (
(187,-10,o),
(235,34,o),
(235,90,cs),
(235,146,o),
(187,190,o),
(125,190,cs),
(63,190,o),
(15,146,o),
(15,90,cs),
(15,34,o),
(63,-10,o),
(125,-10,cs)
);
}
);
width = 250;
},
{
layerId = m004;
shapes = (
{
closed = 1;
nodes = (
(129,-10,o),
(145,6,o),
(145,25,cs),
(145,44,o),
(129,60,o),
(110,60,cs),
(91,60,o),
(75,44,o),
(75,25,cs),
(75,6,o),
(91,-10,o),
(110,-10,cs)
);
}
);
width = 220;
},
{
hints = (
{
horizontal = 1;
place = (-5,120);
type = Stem;
},
{
place = (45,121);
type = Stem;
}
);
layerId = m005;
shapes = (
{
closed = 1;
nodes = (
(143,-10,o),
(170,16,o),
(170,50,cs),
(170,83,o),
(143,110,o),
(110,110,cs),
(76,110,o),
(50,83,o),
(50,50,cs),
(50,16,o),
(76,-10,o),
(110,-10,cs)
);
}
);
width = 220;
},
{
layerId = m006;
shapes = (
{
closed = 1;
nodes = (
(187,-10,o),
(235,34,o),
(235,90,cs),
(235,146,o),
(187,190,o),
(125,190,cs),
(63,190,o),
(15,146,o),
(15,90,cs),
(15,34,o),
(63,-10,o),
(125,-10,cs)
);
}
);
width = 250;
}
);
note = period;
unicode = 46;
userData = {
KernOnName = period;
KernOnSpecialSpacing = {
L = period;
R = period;
};
};
}
{
glyphname = zero;
layers = (
{
hints = (
{
horizontal = 1;
place = (-10,80);
type = Stem;
},
{
horizontal = 1;
place = (597,80);
type = Stem;
},
{
place = (35,110);
type = Stem;
},
{
place = (425,110);
type = Stem;
}
);
layerId = m01;
shapes = (
{
closed = 1;
nodes = (
(525,330,ls),
(525,510,o),
(439,610,o),
(285,610,cs),
(131,610,o),
(45,510,o),
(45,330,cs),
(45,270,ls),
(45,90,o),
(131,-10,o),
(285,-10,cs),
(439,-10,o),
(525,90,o),
(525,270,cs)
);
},
{
closed = 1;
nodes = (
(145,330,ls),
(145,466,o),
(190,530,o),
(285,530,cs),
(380,530,o),
(425,466,o),
(425,330,cs),
(425,270,ls),
(425,134,o),
(380,70,o),
(285,70,cs),
(190,70,o),
(145,134,o),
(145,270,cs)
);
}
);
width = 570;
},
{
layerId = "481D16E4-1E98-4559-AE79-559AF135D401";
shapes = (
{
closed = 1;
nodes = (
(497,330,ls),
(497,520,o),
(428,610,o),
(282,610,cs),
(136,610,o),
(67,520,o),
(67,330,cs),
(67,270,ls),
(67,80,o),
(136,-10,o),
(282,-10,cs),
(428,-10,o),
(497,80,o),
(497,270,cs)
);
},
{
closed = 1;
nodes = (
(117,330,ls),
(117,493,o),
(170,570,o),
(282,570,cs),
(394,570,o),
(447,493,o),
(447,330,cs),
(447,270,ls),
(447,107,o),
(394,30,o),
(282,30,cs),
(170,30,o),
(117,107,o),
(117,270,cs)
);
}
);
width = 564;
},
{
layerId = "05E54F0F-8425-4B5B-B0EB-B578BBC85A7B";
shapes = (
{
closed = 1;
nodes = (
(613,310,ls),
(613,514,o),
(520,610,o),
(323,610,cs),
(126,610,o),
(33,514,o),
(33,310,cs),
(33,290,ls),
(33,86,o),
(126,-10,o),
(323,-10,cs),
(520,-10,o),
(613,86,o),
(613,290,cs)
);
},
{
closed = 1;
nodes = (
(233,310,ls),
(233,412,o),
(262,460,o),
(323,460,cs),
(384,460,o),
(413,412,o),
(413,310,cs),
(413,290,ls),
(413,188,o),
(384,140,o),
(323,140,cs),
(262,140,o),
(233,188,o),
(233,290,cs)
);
}
);
width = 646;
},
{
layerId = m004;
shapes = (
{
closed = 1;
nodes = (
(490,330,ls),
(490,520,o),
(421,610,o),
(275,610,cs),
(129,610,o),
(60,520,o),
(60,330,cs),
(60,270,ls),
(60,80,o),
(129,-10,o),
(275,-10,cs),
(421,-10,o),
(490,80,o),
(490,270,cs)
);
},
{
closed = 1;
nodes = (
(110,330,ls),
(110,503,o),
(163,585,o),
(275,585,cs),
(387,585,o),
(440,503,o),
(440,330,cs),
(440,270,ls),
(440,97,o),
(387,15,o),
(275,15,cs),
(163,15,o),
(110,97,o),
(110,270,cs)
);
}
);
width = 550;
},
{
hints = (
{
horizontal = 1;
place = (-10,80);
type = Stem;
},
{
horizontal = 1;
place = (597,80);
type = Stem;
},
{
place = (35,110);
type = Stem;
},
{
place = (425,110);
type = Stem;
}
);
layerId = m005;
shapes = (
{
closed = 1;
nodes = (
(525,330,ls),
(525,510,o),
(439,610,o),
(285,610,cs),
(131,610,o),
(45,510,o),
(45,330,cs),
(45,270,ls),
(45,80,o),
(122,-10,o),
(285,-10,cs),
(448,-10,o),
(525,80,o),
(525,270,cs)
);
},
{
closed = 1;
nodes = (
(145,330,ls),
(145,486,o),
(190,560,o),
(285,560,cs),
(380,560,o),
(425,486,o),
(425,330,cs),
(425,270,ls),
(425,114,o),
(380,40,o),
(285,40,cs),
(190,40,o),
(145,114,o),
(145,270,cs)
);
}
);
width = 570;
},
{
layerId = m006;
shapes = (
{
closed = 1;
nodes = (
(600,310,ls),
(600,514,o),
(507,610,o),
(310,610,cs),
(113,610,o),
(20,514,o),
(20,310,cs),
(20,290,ls),
(20,86,o),
(113,-10,o),
(310,-10,cs),
(507,-10,o),
(600,86,o),
(600,290,cs)
);
},
{
closed = 1;
nodes = (
(220,310,ls),
(220,460,o),
(246,520,o),
(310,520,cs),
(374,520,o),
(400,460,o),
(400,310,cs),
(400,290,ls),
(400,140,o),
(374,80,o),
(310,80,cs),
(246,80,o),
(220,140,o),
(220,290,cs)
);
}
);
width = 620;
},
{
associatedMasterId = "481D16E4-1E98-4559-AE79-559AF135D401";
layerId = "3EF2FCCD-CB93-4CD0-83B9-CF96778F0091";
width = 601.1395;
}
);
note = O;
unicode = 48;
userData = {
KernOnSpecialSpacing = {
L = NoKerning;
R = NoKerning;
};
};
}
{
glyphname = one;
layers = (
{
hints = (
{
horizontal = 1;
place = (0,70);
type = Stem;
},
{
place = (177,107);
type = Stem;
}
);
layerId = m01;
shapes = (
{
closed = 1;
nodes = (
(163,75,l),
(38,75,l),
(38,0,l),
(388,0,l),
(388,75,l),
(263,75,l),
(263,590,ls),
(263,608,o),
(249,621,o),
(234,610,cs),
(159,554,o),
(96,526,o),
(38,521,c),
(38,452,l),
(81,452,o),
(126,462,o),
(163,481,c)
);
}
);
width = 405;
},
{
layerId = "481D16E4-1E98-4559-AE79-559AF135D401";
shapes = (
{
closed = 1;
nodes = (
(184,40,l),
(59,40,l),
(59,0,l),
(359,0,l),
(359,40,l),
(234,40,l),
(234,600,ls),
(234,609,o),
(228,616,o),
(219,610,cs),
(158,571,o),
(104,547,o),
(50,537,c),
(50,499,l),
(87,501,o),
(135,517,o),
(184,542,c)
);
}
);
width = 381;
},
{
layerId = "05E54F0F-8425-4B5B-B0EB-B578BBC85A7B";
shapes = (
{
closed = 1;
nodes = (
(150,125,l),
(25,125,l),
(25,0,l),
(475,0,l),
(475,125,l),
(350,125,l),
(350,566,ls),
(350,601,o),
(326,627,o),
(294,610,cs),
(191,557,o),
(105,530,o),
(25,528,c),
(25,401,l),
(59,401,o),
(103,408,o),
(150,420,c)
);
}
);
width = 486;
},
{
layerId = m004;
shapes = (
{
closed = 1;
nodes = (
(189,25,l),
(64,25,l),
(64,0,l),
(364,0,l),
(364,25,l),
(239,25,l),
(239,600,ls),
(239,609,o),
(233,616,o),
(224,610,cs),
(163,571,o),
(109,547,o),
(45,537,c),
(55,512,ls),
(70,474,o),
(140,532,o),
(189,557,c)
);
}
);
width = 384;
},
{
hints = (
{
horizontal = 1;
place = (0,70);
type = Stem;
},
{
place = (177,107);
type = Stem;
}
);
layerId = m005;
shapes = (
{
closed = 1;
nodes = (
(165,50,l),
(40,50,l),
(40,0,l),
(390,0,l),
(390,50,l),
(265,50,l),
(265,590,ls),
(265,608,o),
(251,621,o),
(236,610,cs),
(161,554,o),
(98,526,o),
(30,521,c),
(40,477,ls),
(51,428,o),
(128,487,o),
(165,506,c)
);
}
);
width = 405;
},
{
layerId = m006;
shapes = (
{
closed = 1;
nodes = (
(150,75,l),
(25,75,l),
(25,0,l),
(475,0,l),
(475,75,l),
(350,75,l),
(350,566,ls),
(350,601,o),
(326,627,o),
(294,610,cs),
(191,557,o),
(105,530,o),
(15,528,c),
(25,453,ls),
(35,379,o),
(103,458,o),
(150,470,c)
);
}
);
width = 482;
},
{
associatedMasterId = "481D16E4-1E98-4559-AE79-559AF135D401";
layerId = "3EF2FCCD-CB93-4CD0-83B9-CF96778F0091";
width = 605.88741;
}
);
metricLeft = "=H/2";
metricRight = "=O/3";
note = one;
unicode = 49;
userData = {
KernOnSpecialSpacing = {
L = NoKerning;
R = NoKerning;
};
};
}
{
glyphname = five;
layers = (
{
hints = (
{
horizontal = 1;
place = (-78,70);
type = Stem;
},
{
horizontal = 1;
place = (297,72);
type = Stem;
},
{
horizontal = 1;
place = (530,70);
type = Stem;
},
{
place = (29,97);
type = Stem;
},
{
place = (340,116);
type = Stem;
}
);
layerId = m01;
shapes = (
{
closed = 1;
nodes = (
(395,-77,o),
(488,11,o),
(488,146,cs),
(488,281,o),
(391,370,o),
(242,370,cs),
(214,370,o),
(187,368,o),
(161,365,c),
(161,520,l),
(443,520,l),
(443,600,l),
(61,600,l),
(61,272,l),
(110,285,o),
(175,295,o),
(242,295,cs),
(336,295,o),
(388,241,o),
(388,146,cs),
(388,54,o),
(339,3,o),
(252,3,cs),
(167,3,o),
(129,10,o),
(83,31,c),
(72,9,o),
(61,-17,o),
(50,-39,c),
(105,-64,o),
(177,-77,o),
(252,-77,cs)
);
}
);
width = 513;
},
{
layerId = "481D16E4-1E98-4559-AE79-559AF135D401";
shapes = (
{
closed = 1;
nodes = (
(367,-77,o),
(450,11,o),
(450,146,cs),
(450,272,o),
(363,353,o),
(229,353,cs),
(193,353,o),
(160,350,o),
(123,345,c),
(123,560,l),
(405,560,l),
(405,600,l),
(73,600,l),
(73,297,l),
(118,306,o),
(173,313,o),
(229,313,cs),
(333,313,o),
(400,247,o),
(400,146,cs),
(400,35,o),
(337,-37,o),
(239,-37,cs),
(172,-37,o),
(117,-25,o),
(83,-10,c),
(78,-23,o),
(72,-36,o),
(67,-49,c),
(110,-65,o),
(170,-77,o),
(239,-77,cs)
);
}
);
width = 484;
},
{
layerId = "05E54F0F-8425-4B5B-B0EB-B578BBC85A7B";
shapes = (
{
closed = 1;
nodes = (
(461,-77,o),
(573,13,o),
(573,159,cs),
(573,301,o),
(457,395,o),
(277,395,cs),
(267,395,o),
(256,395,o),
(246,394,c),
(246,475,l),
(528,475,l),
(528,600,l),
(46,600,l),
(46,228,l),
(114,253,o),
(190,270,o),
(262,270,cs),
(337,270,o),
(373,233,o),
(373,159,cs),
(373,89,o),
(342,48,o),
(262,48,cs),
(204,48,o),
(152,67,o),
(90,97,c),
(71,58,o),
(52,20,o),
(33,-19,c),
(92,-55,o),
(196,-77,o),
(287,-77,cs)
);
}
);
width = 590;
},
{
layerId = m004;
shapes = (
{
closed = 1;
nodes = (
(360,-77,o),
(443,11,o),
(443,146,cs),
(443,269,o),
(356,348,o),
(222,348,cs),
(186,348,o),
(153,345,o),
(116,340,c),
(116,560,l),
(398,560,l),
(398,600,l),
(66,600,l),
(66,307,l),
(111,316,o),
(166,323,o),
(222,323,cs),
(332,323,o),
(393,260,o),
(393,146,cs),
(393,19,o),
(336,-52,o),
(232,-52,cs),
(165,-52,o),
(110,-10,o),
(76,-10,cs),
(60,-10,o),
(60,-36,o),
(60,-49,c),
(103,-65,o),
(163,-77,o),
(232,-77,cs)
);
}
);
width = 473;
},
{
hints = (
{
horizontal = 1;
place = (-78,70);
type = Stem;
},
{
horizontal = 1;
place = (297,72);
type = Stem;
},
{
horizontal = 1;
place = (530,70);
type = Stem;
},
{
place = (29,97);
type = Stem;
},
{
place = (340,116);
type = Stem;
}
);
layerId = m005;
shapes = (
{
closed = 1;
nodes = (
(390,-77,o),
(483,11,o),
(483,146,cs),
(483,275,o),
(386,358,o),
(237,358,cs),
(209,358,o),
(182,356,o),
(156,353,c),
(156,550,l),
(438,550,l),
(438,600,l),
(56,600,l),
(56,285,l),
(105,298,o),
(170,308,o),
(237,308,cs),
(331,308,o),
(383,250,o),
(383,146,cs),
(383,35,o),
(334,-27,o),
(247,-27,cs),
(162,-27,o),
(111,26,o),
(78,26,c),
(45,26,o),
(45,-16,o),
(45,-39,c),
(100,-64,o),
(172,-77,o),
(247,-77,cs)
);
}
);
width = 506;
},
{
layerId = m006;
shapes = (
{
closed = 1;
nodes = (
(448,-77,o),
(560,14,o),
(560,157,cs),
(560,300,o),
(444,370,o),
(264,370,cs),
(254,370,o),
(243,370,o),
(233,369,c),
(233,525,l),
(515,525,l),
(515,600,l),
(33,600,l),
(33,253,l),
(101,278,o),
(177,295,o),
(249,295,cs),
(324,295,o),
(360,251,o),
(360,157,cs),
(360,55,o),
(320,-2,o),
(249,-2,cs),
(171,-2,o),
(139,97,o),
(77,97,cs),
(34,97,o),
(20,20,o),
(20,-19,c),
(79,-55,o),
(183,-77,o),
(274,-77,cs)
);
}
);
width = 570;
}
);
metricLeft = "=O";
metricRight = "=S";
note = five;
unicode = 53;
userData = {
KernOnSpecialSpacing = {
L = NoKerning;
R = NoKerning;
};
};
}
{
glyphname = seven;
layers = (
{
hints = (
{
horizontal = 1;
place = (0,21);
target = up;
type = BottomGhost;
},
{
horizontal = 1;
place = (525,75);
type = Stem;
},
{
place = (94,110);
type = Stem;
}
);
layerId = m01;
shapes = (
{
closed = 1;
nodes = (
(189,-67,l),
(189,183,o),
(431,534,o),
(431,534,cs),
(445,555,o),
(444,600,o),
(419,600,cs),
(19,600,l),
(19,520,l),
(120,520,o),
(220,520,o),
(321,520,c),
(321,520,o),
(89,183,o),
(89,-67,c)
);
}
);
width = 459;
},
{
layerId = "481D16E4-1E98-4559-AE79-559AF135D401";
shapes = (
{
closed = 1;
nodes = (
(145,-67,l),
(153,112,o),
(272,388,o),
(391,566,cs),
(405,587,o),
(404,600,o),
(379,600,cs),
(25,600,l),
(25,560,l),
(131,560,o),
(236,560,o),
(342,560,c),
(229,394,o),
(103,115,o),
(95,-67,c)
);
}
);
width = 425;
},
{
layerId = "05E54F0F-8425-4B5B-B0EB-B578BBC85A7B";
shapes = (
{
closed = 1;
nodes = (
(283,-67,l),
(283,110,o),
(399,322,o),
(516,500,cs),
(543,542,o),
(541,600,o),
(491,600,cs),
(12,600,l),
(12,475,l),
(108,475,o),
(202,475,o),
(297,475,c),
(180,287,o),
(83,102,o),
(83,-67,c)
);
}
);
width = 546;
},
{
layerId = m004;
shapes = (
{
closed = 1;
nodes = (
(143,-67,l),
(151,112,o),
(270,383,o),
(389,561,cs),
(403,582,o),
(402,600,o),
(377,600,cs),
(23,600,l),
(23,570,ls),
(23,545,o),
(132,570,o),
(350,570,c),
(233,404,o),
(101,115,o),
(93,-67,c)
);
}
);
width = 421;
},
{
hints = (
{
horizontal = 1;
place = (0,21);
target = up;
type = BottomGhost;
},
{
horizontal = 1;
place = (525,75);
type = Stem;
},
{
place = (94,110);
type = Stem;
}
);
layerId = m005;
shapes = (
{
closed = 1;
nodes = (
(185,-67,l),
(185,183,o),
(427,539,o),
(427,539,cs),
(441,560,o),
(440,600,o),
(415,600,cs),
(15,600,l),
(15,550,l),
(15,500,o),
(121,550,o),
(346,550,c),
(346,550,o),
(85,191,o),
(85,-67,c)
);
}
);
width = 451;
},
{
layerId = m006;
shapes = (
{
closed = 1;
nodes = (
(279,-67,l),
(279,110,o),
(395,307,o),
(512,485,cs),
(539,527,o),
(537,600,o),
(487,600,cs),
(8,600,l),
(8,510,ls),
(8,435,o),
(113,510,o),
(348,510,c),
(206,322,o),
(79,132,o),
(79,-67,c)
);
}
);
width = 537;
}
);
metricLeft = "=Z";
metricRight = "=Z";
note = seven;
unicode = 55;
userData = {
KernOnSpecialSpacing = {
L = NoKerning;
R = NoKerning;
};
};
}
{
glyphname = colon;
kernLeft = KO_colon;
layers = (
{
hints = (
{
horizontal = 1;
place = (-5,120);
type = Stem;
},
{
place = (45,121);
type = Stem;
}
);
layerId = m01;
shapes = (
{
closed = 1;
nodes = (
(143,-10,o),
(170,16,o),
(170,50,cs),
(170,83,o),
(143,110,o),
(110,110,cs),
(76,110,o),
(50,83,o),
(50,50,cs),
(50,16,o),
(76,-10,o),
(110,-10,cs)
);
},
{
closed = 1;
nodes = (
(143,390,o),
(170,416,o),
(170,450,cs),
(170,483,o),
(143,510,o),
(110,510,cs),
(76,510,o),
(50,483,o),
(50,450,cs),
(50,416,o),
(76,390,o),
(110,390,cs)
);
}
);
width = 220;
},
{
layerId = "481D16E4-1E98-4559-AE79-559AF135D401";
shapes = (
{
closed = 1;
nodes = (
(129,-10,o),
(145,6,o),
(145,25,cs),
(145,44,o),
(129,60,o),
(110,60,cs),
(91,60,o),
(75,44,o),
(75,25,cs),
(75,6,o),
(91,-10,o),
(110,-10,cs)
);
},
{
closed = 1;
nodes = (
(129,440,o),
(145,456,o),
(145,475,cs),
(145,494,o),
(129,510,o),
(110,510,cs),
(91,510,o),
(75,494,o),
(75,475,cs),
(75,456,o),
(91,440,o),
(110,440,cs)
);
}
);
width = 220;
},
{
layerId = "05E54F0F-8425-4B5B-B0EB-B578BBC85A7B";
shapes = (
{
closed = 1;
nodes = (
(187,-10,o),
(235,34,o),
(235,90,cs),
(235,146,o),
(187,190,o),
(125,190,cs),
(63,190,o),
(15,146,o),
(15,90,cs),
(15,34,o),
(63,-10,o),
(125,-10,cs)
);
},
{
closed = 1;
nodes = (
(187,310,o),
(235,354,o),
(235,410,cs),
(235,466,o),
(187,510,o),
(125,510,cs),
(63,510,o),
(15,466,o),
(15,410,cs),
(15,354,o),
(63,310,o),
(125,310,cs)
);
}
);
width = 250;
},
{
layerId = m004;
shapes = (
{
closed = 1;
nodes = (
(129,-10,o),
(145,6,o),
(145,25,cs),
(145,44,o),
(129,60,o),
(110,60,cs),
(91,60,o),
(75,44,o),
(75,25,cs),
(75,6,o),
(91,-10,o),
(110,-10,cs)
);
},
{
closed = 1;
nodes = (
(129,440,o),
(145,456,o),
(145,475,cs),
(145,494,o),
(129,510,o),
(110,510,cs),
(91,510,o),
(75,494,o),
(75,475,cs),
(75,456,o),
(91,440,o),
(110,440,cs)
);
}
);
width = 220;
},
{
hints = (
{
horizontal = 1;
place = (-5,120);
type = Stem;
},
{
place = (45,121);
type = Stem;
}
);
layerId = m005;
shapes = (
{
closed = 1;
nodes = (
(143,-10,o),
(170,16,o),
(170,50,cs),
(170,83,o),
(143,110,o),
(110,110,cs),
(76,110,o),
(50,83,o),
(50,50,cs),
(50,16,o),
(76,-10,o),
(110,-10,cs)
);
},
{
closed = 1;
nodes = (
(143,390,o),
(170,416,o),
(170,450,cs),
(170,483,o),
(143,510,o),
(110,510,cs),
(76,510,o),
(50,483,o),
(50,450,cs),
(50,416,o),
(76,390,o),
(110,390,cs)
);
}
);
width = 220;
},
{
layerId = m006;
shapes = (
{
closed = 1;
nodes = (
(187,-10,o),
(235,34,o),
(235,90,cs),
(235,146,o),
(187,190,o),
(125,190,cs),
(63,190,o),
(15,146,o),
(15,90,cs),
(15,34,o),
(63,-10,o),
(125,-10,cs)
);
},
{
closed = 1;
nodes = (
(187,310,o),
(235,354,o),
(235,410,cs),
(235,466,o),
(187,510,o),
(125,510,cs),
(63,510,o),
(15,466,o),
(15,410,cs),
(15,354,o),
(63,310,o),
(125,310,cs)
);
}
);
width = 250;
}
);
metricLeft = "=period";
metricRight = "=period";
note = period;
unicode = 58;
userData = {
KernOnName = colon;
KernOnSpecialSpacing = {
L = "spaced-off";
R = "spaced-off";
};
};
}
{
glyphname = semicolon;
kernLeft = KO_semicolon;
layers = (
{
hints = (
{
horizontal = 1;
place = (-5,120);
type = Stem;
},
{
place = (45,121);
type = Stem;
}
);
layerId = m01;
shapes = (
{
closed = 1;
nodes = (
(143,390,o),
(170,416,o),
(170,450,cs),
(170,483,o),
(143,510,o),
(110,510,cs),
(76,510,o),
(50,483,o),
(50,450,cs),
(50,416,o),
(76,390,o),
(110,390,cs)
);
},
{
ref = comma;
}
);
width = 245;
},
{
layerId = "481D16E4-1E98-4559-AE79-559AF135D401";
shapes = (
{
closed = 1;
nodes = (
(144,440,o),
(160,456,o),
(160,475,cs),
(160,494,o),
(144,510,o),
(125,510,cs),
(106,510,o),
(90,494,o),
(90,475,cs),
(90,456,o),
(106,440,o),
(125,440,cs)
);
},
{
ref = comma;
}
);
width = 260;
},
{
layerId = "05E54F0F-8425-4B5B-B0EB-B578BBC85A7B";
shapes = (
{
closed = 1;
nodes = (
(187,310,o),
(235,354,o),
(235,410,cs),
(235,466,o),
(187,510,o),
(125,510,cs),
(63,510,o),
(15,466,o),
(15,410,cs),
(15,354,o),
(63,310,o),
(125,310,cs)
);
},
{
ref = comma;
}
);
width = 275;
},
{
layerId = m004;
shapes = (
{
closed = 1;
nodes = (
(144,440,o),
(160,456,o),
(160,475,cs),
(160,494,o),
(144,510,o),
(125,510,cs),
(106,510,o),
(90,494,o),
(90,475,cs),
(90,456,o),
(106,440,o),
(125,440,cs)
);
},
{
ref = comma;
}
);
width = 265;
},
{
hints = (
{
horizontal = 1;
place = (-5,120);
type = Stem;
},
{
place = (45,121);
type = Stem;
}
);
layerId = m005;
shapes = (
{
closed = 1;
nodes = (
(143,390,o),
(170,416,o),
(170,450,cs),
(170,483,o),
(143,510,o),
(110,510,cs),
(76,510,o),
(50,483,o),
(50,450,cs),
(50,416,o),
(76,390,o),
(110,390,cs)
);
},
{
ref = comma;
}
);
width = 245;
},
{
layerId = m006;
shapes = (
{
closed = 1;
nodes = (
(187,310,o),
(235,354,o),
(235,410,cs),
(235,466,o),
(187,510,o),
(125,510,cs),
(63,510,o),
(15,466,o),
(15,410,cs),
(15,354,o),
(63,310,o),
(125,310,cs)
);
},
{
ref = comma;
}
);
width = 275;
}
);
metricLeft = "=period";
metricRight = "=comma";
note = period;
unicode = 59;
userData = {
KernOnSpecialSpacing = {
L = "spaced-off";
R = "spaced-off";
};
};
}
{
export = 0;
glyphname = greater;
layers = (
{
hints = (
{
horizontal = 1;
place = (30,440);
type = Stem;
},
{
place = (490,90);
type = Stem;
}
);
layerId = m01;
shapes = (
{
closed = 1;
nodes = (
(580,293,l),
(80,470,l),
(80,385,l),
(490,250,l),
(80,115,l),
(80,30,l),
(580,207,l)
);
}
);
width = 660;
},
{
layerId = "481D16E4-1E98-4559-AE79-559AF135D401";
width = 600;
},
{
layerId = "05E54F0F-8425-4B5B-B0EB-B578BBC85A7B";
width = 600;
},
{
layerId = m004;
width = 600;
},
{
hints = (
{
horizontal = 1;
place = (30,440);
type = Stem;
},
{
place = (490,90);
type = Stem;
}
);
layerId = m005;
shapes = (
{
closed = 1;
nodes = (
(580,293,l),
(80,470,l),
(80,385,l),
(490,250,l),
(80,115,l),
(80,30,l),
(580,207,l)
);
}
);
width = 660;
},
{
layerId = m006;
width = 600;
},
{
associatedMasterId = "481D16E4-1E98-4559-AE79-559AF135D401";
layerId = "3EF2FCCD-CB93-4CD0-83B9-CF96778F0091";
width = 597.721;
}
);
note = greater;
unicode = 62;
userData = {
KernOnSpecialSpacing = {
L = math;
R = math;
};
};
}
{
glyphname = question;
kernLeft = KO_question;
layers = (
{
hints = (
{
horizontal = 1;
place = (-5,120);
type = Stem;
},
{
horizontal = 1;
place = (597,70);
type = Stem;
},
{
place = (188,93);
type = Stem;
},
{
place = (313,100);
type = Stem;
},
{
place = (178,120);
type = Stem;
},
{
horizontal = 1;
place = (-10,85);
type = Stem;
},
{
horizontal = 1;
place = (597,80);
type = Stem;
},
{
place = (41,90);
type = Stem;
},
{
place = (331,110);
type = Stem;
}
);
layerId = m01;
shapes = (
{
closed = 1;
nodes = (
(173,225,o),
(200,225,o),
(227,225,c),
(222,308,o),
(250,324,o),
(273,340,cs),
(316,369,o),
(363,411,o),
(363,499,cs),
(363,607,o),
(294,677,o),
(186,677,c),
(186,597,l),
(242,597,o),
(273,562,o),
(273,500,cs),
(273,438,o),
(236,420,o),
(186,385,cs),
(146,357,o),
(136,308,o),
(146,225,c)
);
},
{
pos = (76,0);
ref = period;
},
{
closed = 1;
nodes = (
(111,584,o),
(143,597,o),
(186,597,c),
(186,677,l),
(119,677,o),
(67,657,o),
(25,615,c),
(46,596,o),
(67,577,o),
(88,558,c)
);
}
);
width = 388;
},
{
layerId = "481D16E4-1E98-4559-AE79-559AF135D401";
shapes = (
{
closed = 1;
nodes = (
(174,200,o),
(188,200,o),
(201,200,c),
(201,308,o),
(226,334,o),
(267,363,cs),
(325,403,o),
(357,453,o),
(357,499,cs),
(357,607,o),
(288,677,o),
(180,677,c),
(180,637,l),
(262,637,o),
(307,588,o),
(307,500,cs),
(307,463,o),
(282,424,o),
(237,392,cs),
(175,349,o),
(161,308,o),
(161,200,c)
);
},
{
pos = (71,0);
ref = period;
},
{
closed = 1;
nodes = (
(94,623,o),
(131,637,o),
(180,637,c),
(180,677,l),
(117,677,o),
(69,660,o),
(34,626,c),
(45,615,o),
(56,604,o),
(67,593,c)
);
}
);
width = 391;
},
{
layerId = "05E54F0F-8425-4B5B-B0EB-B578BBC85A7B";
shapes = (
{
closed = 1;
nodes = (
(206,225,o),
(256,225,o),
(306,225,c),
(306,275,o),
(320,293,o),
(367,315,cs),
(448,353,o),
(517,391,o),
(517,499,cs),
(517,607,o),
(404,677,o),
(230,677,c),
(230,527,l),
(286,527,o),
(317,517,o),
(317,475,cs),
(317,433,o),
(276,421,o),
(230,400,cs),
(162,369,o),
(146,307,o),
(156,225,c)
);
},
{
pos = (106,0);
ref = period;
},
{
closed = 1;
nodes = (
(166,516,o),
(201,527,o),
(230,527,c),
(230,677,l),
(141,677,o),
(64,651,o),
(17,596,c),
(62,562,o),
(106,527,o),
(151,493,c)
);
}
);
width = 534;
},
{
layerId = m004;
shapes = (
{
closed = 1;
nodes = (
(157,175,o),
(197,175,o),
(197,200,cs),
(197,308,o),
(222,334,o),
(263,363,cs),
(321,403,o),
(353,453,o),
(353,499,cs),
(353,607,o),
(284,677,o),
(176,677,c),
(176,652,l),
(258,652,o),
(303,598,o),
(303,500,cs),
(303,463,o),
(278,424,o),
(233,392,cs),
(171,349,o),
(157,308,o),
(157,200,cs)
);
},
{
pos = (67,0);
ref = period;
},
{
closed = 1;
nodes = (
(88,593,o),
(103,652,o),
(176,652,c),
(176,677,l),
(103,677,o),
(30,652,o),
(30,626,cs),
(30,608,o),
(45,593,o),
(63,593,cs)
);
}
);
width = 383;
},
{
hints = (
{
horizontal = 1;
place = (-5,120);
type = Stem;
},
{
horizontal = 1;
place = (597,70);
type = Stem;
},
{
place = (188,93);
type = Stem;
},
{
place = (313,100);
type = Stem;
},
{
place = (178,120);
type = Stem;
}
);
layerId = m005;
shapes = (
{
closed = 1;
nodes = (
(150,175,o),
(225,175,o),
(225,225,cs),
(225,309,o),
(248,324,o),
(271,340,cs),
(314,369,o),
(361,411,o),
(361,499,cs),
(361,607,o),
(292,677,o),
(184,677,c),
(184,627,l),
(240,627,o),
(271,582,o),
(271,500,cs),
(271,438,o),
(234,420,o),
(184,385,cs),
(144,357,o),
(134,309,o),
(144,225,cs)
);
},
{
pos = (74,0);
ref = period;
},
{
closed = 1;
nodes = (
(124,558,o),
(124,627,o),
(184,627,c),
(184,677,l),
(103,677,o),
(23,646,o),
(23,615,cs),
(23,584,o),
(55,558,o),
(86,558,cs)
);
}
);
width = 384;
},
{
layerId = m006;
shapes = (
{
closed = 1;
nodes = (
(142,200,o),
(286,209,o),
(286,250,cs),
(286,275,o),
(300,293,o),
(347,315,cs),
(428,353,o),
(497,391,o),
(497,499,cs),
(497,607,o),
(384,677,o),
(210,677,c),
(210,587,l),
(266,587,o),
(297,547,o),
(297,475,cs),
(297,433,o),
(256,421,o),
(210,400,cs),
(142,369,o),
(129,307,o),
(136,250,cs)
);
},
{
pos = (100,0);
ref = period;
},
{
closed = 1;
nodes = (
(145,493,o),
(146,587,o),
(210,587,c),
(210,677,l),
(110,677,o),
(10,637,o),
(10,596,cs),
(10,554,o),
(43,493,o),
(85,493,cs)
);
}
);
width = 507;
}
);
metricLeft = "=S";
metricRight = "=|S";
note = question;
unicode = 63;
userData = {
KernOnSpecialSpacing = {
L = "spaced-off";
};
};
}
{
glyphname = at;
kernRight = KO_at;
layers = (
{
hints = (
{
horizontal = 1;
place = (-107,70);
type = Stem;
},
{
horizontal = 1;
place = (0,21);
target = up;
type = BottomGhost;
},
{
horizontal = 1;
place = (87,80);
type = Stem;
},
{
horizontal = 1;
place = (347,60);
type = Stem;
},
{
horizontal = 1;
place = (532,75);
type = Stem;
},
{
place = (70,78);
type = Stem;
},
{
place = (247,90);
type = Stem;
},
{
place = (517,95);
type = Stem;
}
);
layerId = m01;
shapes = (
{
closed = 1;
nodes = (
(422,607,l),
(212,607,o),
(40,502,o),
(40,250,cs),
(40,50,o),
(212,-107,o),
(412,-107,cs),
(512,-107,o),
(606,-63,o),
(668,4,c),
(628,49,l),
(570,-15,o),
(489,-47,o),
(411,-47,cs),
(247,-47,o),
(115,100,o),
(115,250,cs),
(115,452,o),
(247,532,o),
(407,532,c)
);
},
{
closed = 1;
nodes = (
(436,87,o),
(482,152,o),
(497,152,cs),
(512,152,o),
(517,127,o),
(517,97,c),
(587,97,l),
(587,372,ls),
(587,502,o),
(572,607,o),
(422,607,c),
(407,532,l),
(487,532,o),
(487,502,o),
(487,407,c),
(351,407,o),
(217,379,o),
(217,252,cs),
(217,156,o),
(232,87,o),
(342,87,cs)
);
},
{
closed = 1;
nodes = (
(322,162,o),
(307,196,o),
(307,252,cs),
(307,335,o),
(415,346,o),
(487,347,c),
(487,297,ls),
(487,229,o),
(429,162,o),
(372,162,cs)
);
}
);
width = 708;
},
{
layerId = "481D16E4-1E98-4559-AE79-559AF135D401";
shapes = (
{
closed = 1;
nodes = (
(434,607,l),
(239,607,o),
(67,502,o),
(67,250,cs),
(67,50,o),
(239,-107,o),
(439,-107,cs),
(539,-107,o),
(633,-63,o),
(695,4,c),
(669,33,l),
(608,-31,o),
(526,-67,o),
(438,-67,cs),
(263,-67,o),
(112,75,o),
(112,250,cs),
(112,476,o),
(263,567,o),
(424,567,c)
);
},
{
closed = 1;
nodes = (
(464,87,o),
(514,167,o),
(529,167,cs),
(543,167,o),
(544,137,o),
(544,97,c),
(579,97,l),
(579,372,ls),
(579,519,o),
(566,607,o),
(434,607,c),
(424,567,l),
(503,567,o),
(529,526,o),
(529,397,c),
(386,400,o),
(249,373,o),
(249,252,cs),
(249,140,o),
(294,87,o),
(369,87,cs)
);
},
{
closed = 1;
nodes = (
(320,127,o),
(299,161,o),
(299,252,cs),
(299,359,o),
(466,363,o),
(529,362,c),
(529,279,ls),
(529,196,o),
(459,127,o),
(389,127,cs)
);
}
);
width = 762;
},
{
layerId = "05E54F0F-8425-4B5B-B0EB-B578BBC85A7B";
shapes = (
{
closed = 1;
nodes = (
(472,607,l),
(205,607,o),
(33,502,o),
(33,250,cs),
(33,50,o),
(205,-107,o),
(417,-107,cs),
(517,-107,o),
(611,-63,o),
(673,4,c),
(603,82,l),
(560,41,o),
(493,18,o),
(416,18,cs),
(287,18,o),
(183,123,o),
(183,252,cs),
(183,433,o),
(287,484,o),
(416,484,c)
);
},
{
closed = 1;
nodes = (
(452,87,o),
(492,142,o),
(512,142,cs),
(522,142,o),
(527,123,o),
(527,97,c),
(682,97,l),
(682,372,ls),
(682,487,o),
(665,607,o),
(472,607,c),
(416,484,l),
(472,482,o),
(482,458,o),
(482,415,c),
(378,411,o),
(222,385,o),
(222,252,cs),
(222,140,o),
(262,87,o),
(347,87,cs)
);
},
{
closed = 1;
nodes = (
(399,212,o),
(392,238,o),
(392,252,cs),
(392,306,o),
(418,320,o),
(482,323,c),
(482,315,ls),
(482,270,o),
(463,212,o),
(422,212,cs)
);
}
);
width = 715;
},
{
layerId = m004;
shapes = (
{
closed = 1;
nodes = (
(427,607,l),
(232,607,o),
(60,502,o),
(60,250,cs),
(60,50,o),
(232,-107,o),
(432,-107,cs),
(532,-107,o),
(626,-63,o),
(688,4,c),
(673,21,l),
(610,-45,o),
(523,-82,o),
(431,-82,cs),
(256,-82,o),
(105,75,o),
(105,250,cs),
(105,476,o),
(256,582,o),
(417,582,c)
);
},
{
closed = 1;
nodes = (
(457,87,o),
(507,167,o),
(522,167,cs),
(536,167,o),
(537,137,o),
(537,97,c),
(572,97,l),
(572,372,ls),
(572,519,o),
(559,607,o),
(427,607,c),
(417,582,l),
(529,582,o),
(522,494,o),
(522,392,c),
(379,395,o),
(242,373,o),
(242,252,cs),
(242,140,o),
(287,87,o),
(362,87,cs)
);
},
{
closed = 1;
nodes = (
(313,122,o),
(292,161,o),
(292,252,cs),
(292,364,o),
(459,371,o),
(522,370,c),
(522,279,ls),
(522,195,o),
(457,122,o),
(382,122,cs)
);
}
);
width = 748;
},
{
hints = (
{
horizontal = 1;
place = (-107,70);
type = Stem;
},
{
horizontal = 1;
place = (0,21);
target = up;
type = BottomGhost;
},
{
horizontal = 1;
place = (87,80);
type = Stem;
},
{
horizontal = 1;
place = (347,60);
type = Stem;
},
{
horizontal = 1;
place = (532,75);
type = Stem;
},
{
place = (70,78);
type = Stem;
},
{
place = (247,90);
type = Stem;
},
{
place = (517,95);
type = Stem;
}
);
layerId = m005;
shapes = (
{
closed = 1;
nodes = (
(422,607,l),
(212,607,o),
(40,502,o),
(40,250,cs),
(40,50,o),
(212,-107,o),
(412,-107,cs),
(512,-107,o),
(606,-63,o),
(668,4,c),
(636,41,l),
(582,-18,o),
(499,-57,o),
(411,-57,cs),
(242,-57,o),
(100,81,o),
(100,250,cs),
(100,472,o),
(242,557,o),
(407,557,c)
);
},
{
closed = 1;
nodes = (
(436,87,o),
(482,152,o),
(497,152,cs),
(512,152,o),
(517,127,o),
(517,97,c),
(587,97,l),
(587,372,ls),
(587,502,o),
(572,607,o),
(422,607,c),
(407,557,l),
(467,557,o),
(487,520,o),
(487,402,c),
(351,402,o),
(217,379,o),
(217,252,cs),
(217,156,o),
(232,87,o),
(342,87,cs)
);
},
{
closed = 1;
nodes = (
(322,142,o),
(307,189,o),
(307,252,cs),
(307,340,o),
(415,357,o),
(487,357,c),
(487,297,ls),
(487,197,o),
(447,142,o),
(372,142,cs)
);
}
);
width = 708;
},
{
layerId = m006;
shapes = (
{
closed = 1;
nodes = (
(472,607,l),
(192,607,o),
(20,502,o),
(20,250,cs),
(20,50,o),
(192,-107,o),
(404,-107,cs),
(504,-107,o),
(598,-63,o),
(660,4,c),
(611,57,l),
(551,0,o),
(476,-32,o),
(403,-32,cs),
(224,-32,o),
(120,123,o),
(120,252,cs),
(120,433,o),
(224,532,o),
(422,532,c)
);
},
{
closed = 1;
nodes = (
(452,87,o),
(492,142,o),
(512,142,cs),
(522,142,o),
(527,123,o),
(527,97,c),
(682,97,l),
(682,372,ls),
(682,487,o),
(665,607,o),
(472,607,c),
(422,532,l),
(467,532,o),
(482,505,o),
(482,425,c),
(378,421,o),
(222,385,o),
(222,252,cs),
(222,140,o),
(262,87,o),
(347,87,cs)
);
},
{
closed = 1;
nodes = (
(400,177,o),
(392,196,o),
(392,252,cs),
(392,307,o),
(431,351,o),
(482,353,c),
(482,315,ls),
(482,236,o),
(456,177,o),
(422,177,cs)
);
}
);
width = 702;
}
);
metricLeft = "=o";
metricRight = "=o";
note = at;
unicode = 64;
userData = {
KernOnName = at;
KernOnSpecialSpacing = {
L = symbols;
R = symbols;
};
};
}
{
glyphname = A;
kernLeft = KO_A;
kernRight = KO_A;
layers = (
{
anchors = (
{
name = bottom;
pos = (275,0);
},
{
name = ogonek;
pos = (533,0);
},
{
name = top;
pos = (275,667);
}
);
hints = (
{
horizontal = 1;
place = (0,21);
target = up;
type = BottomGhost;
},
{
horizontal = 1;
place = (150,75);
type = Stem;
},
{
horizontal = 1;
place = (557,110);
type = Stem;
},
{
place = (12,516);
type = Stem;
}
);
layerId = m01;
shapes = (
{
closed = 1;
nodes = (
(333,410,o),
(386,211,o),
(423,0,c),
(533,0,l),
(484,216,o),
(409,454,o),
(323,667,c),
(227,667,l),
(141,454,o),
(66,216,o),
(17,0,c),
(127,0,l),
(164,211,o),
(217,410,o),
(275,557,c)
);
},
{
closed = 1;
nodes = (
(115,147,l),
(436,147,l),
(436,227,l),
(115,227,l)
);
}
);
width = 550;
},
{
anchors = (
{
name = bottom;
pos = (275,0);
},
{
name = ogonek;
pos = (513,0);
},
{
name = top;
pos = (275,667);
}
);
layerId = "481D16E4-1E98-4559-AE79-559AF135D401";
shapes = (
{
closed = 1;
nodes = (
(363,382,o),
(429,165,o),
(458,0,c),
(513,0,l),
(469,193,o),
(386,455,o),
(300,667,c),
(250,667,l),
(164,455,o),
(81,193,o),
(37,0,c),
(92,0,l),
(121,165,o),
(187,382,o),
(275,607,c)
);
},
{
closed = 1;
nodes = (
(115,167,l),
(436,167,l),
(436,207,l),
(115,207,l)
);
}
);
width = 550;
},
{
anchors = (
{
name = bottom;
pos = (312,0);
},
{
name = ogonek;
pos = (624,0);
},
{
name = top;
pos = (312,667);
}
);
layerId = "05E54F0F-8425-4B5B-B0EB-B578BBC85A7B";
shapes = (
{
closed = 1;
nodes = (
(346,388,o),
(382,212,o),
(414,0,c),
(624,0,l),
(589,160,o),
(502,422,o),
(401,667,c),
(223,667,l),
(116,408,o),
(37,169,o),
(0,0,c),
(210,0,l),
(242,212,o),
(278,388,o),
(312,492,c)
);
},
{
closed = 1;
nodes = (
(102,127,l),
(523,127,l),
(523,247,l),
(102,247,l)
);
}
);
width = 624;
},
{
anchors = (
{
name = bottom;
pos = (275,0);
},
{
name = ogonek;
pos = (513,0);
},
{
name = top;
pos = (275,667);
}
);
layerId = m004;
shapes = (
{
closed = 1;
nodes = (
(356,430,o),
(422,203,o),
(458,0,c),
(513,0,l),
(468,197,o),
(384,459,o),
(300,667,c),
(250,667,l),
(164,456,o),
(80,194,o),
(37,0,c),
(92,0,l),
(128,203,o),
(194,430,o),
(275,637,c)
);
},
{
closed = 1;
nodes = (
(115,175,l),
(436,175,l),
(436,200,l),
(115,200,l)
);
}
);
width = 550;
},
{
anchors = (
{
name = bottom;
pos = (275,0);
},
{
name = ogonek;
pos = (533,0);
},
{
name = top;
pos = (275,667);
}
);
hints = (
{
horizontal = 1;
place = (0,21);
target = up;
type = BottomGhost;
},
{
horizontal = 1;
place = (150,75);
type = Stem;
},
{
horizontal = 1;
place = (557,110);
type = Stem;
},
{
place = (12,516);
type = Stem;
}
);
layerId = m005;
shapes = (
{
closed = 1;
nodes = (
(326,456,o),
(379,247,o),
(423,0,c),
(533,0,l),
(486,207,o),
(404,469,o),
(323,667,c),
(227,667,l),
(141,457,o),
(66,219,o),
(17,0,c),
(127,0,l),
(171,247,o),
(224,456,o),
(275,587,c)
);
},
{
closed = 1;
nodes = (
(115,157,l),
(436,157,l),
(436,217,l),
(115,217,l)
);
}
);
width = 550;
},
{
anchors = (
{
name = bottom;
pos = (312,0);
},
{
name = ogonek;
pos = (624,0);
},
{
name = top;
pos = (312,667);
}
);
layerId = m006;
shapes = (
{
closed = 1;
nodes = (
(351,356,o),
(387,188,o),
(414,0,c),
(624,0,l),
(588,164,o),
(500,426,o),
(401,667,c),
(223,667,l),
(124,426,o),
(36,164,o),
(0,0,c),
(210,0,l),
(237,189,o),
(274,358,o),
(312,472,c)
);
},
{
closed = 1;
nodes = (
(102,142,l),
(523,142,l),
(523,232,l),
(102,232,l)
);
}
);
width = 624;
}
);
note = A;
unicode = 65;
userData = {
KernOnName = A;
};
}
{
glyphname = D;
kernLeft = KO_H;
kernRight = KO_O;
layers = (
{
anchors = (
{
name = bottom;
pos = (295,0);
},
{
name = center;
pos = (148,334);
},
{
name = top;
pos = (295,667);
}
);
hints = (
{
horizontal = 1;
place = (-10,80);
type = Stem;
},
{
horizontal = 1;
place = (597,80);
type = Stem;
},
{
place = (35,110);
type = Stem;
},
{
place = (425,110);
type = Stem;
}
);
layerId = m01;
shapes = (
{
closed = 1;
nodes = (
(300,0,l),
(454,0,o),
(540,96,o),
(540,270,cs),
(540,397,ls),
(540,571,o),
(454,667,o),
(300,667,c),
(75,667,l),
(75,0,l)
);
},
{
closed = 1;
nodes = (
(175,587,l),
(300,587,l),
(395,587,o),
(440,526,o),
(440,397,cs),
(440,270,ls),
(440,141,o),
(395,80,o),
(300,80,c),
(175,80,l)
);
}
);
width = 590;
},
{
anchors = (
{
name = bottom;
pos = (291,0);
},
{
name = center;
pos = (146,334);
},
{
name = top;
pos = (291,667);
}
);
layerId = "481D16E4-1E98-4559-AE79-559AF135D401";
shapes = (
{
closed = 1;
nodes = (
(300,0,l),
(446,0,o),
(515,87,o),
(515,270,cs),
(515,397,ls),
(515,580,o),
(446,667,o),
(300,667,c),
(100,667,l),
(100,0,l)
);
},
{
closed = 1;
nodes = (
(150,627,l),
(300,627,l),
(412,627,o),
(465,553,o),
(465,397,cs),
(465,270,ls),
(465,114,o),
(412,40,o),
(300,40,c),
(150,40,l)
);
}
);
width = 582;
},
{
anchors = (
{
name = bottom;
pos = (324,0);
},
{
name = center;
pos = (162,334);
},
{
name = top;
pos = (324,667);
}
);
layerId = "05E54F0F-8425-4B5B-B0EB-B578BBC85A7B";
shapes = (
{
closed = 1;
nodes = (
(325,0,l),
(511,0,o),
(615,104,o),
(615,290,cs),
(615,377,ls),
(615,563,o),
(511,667,o),
(325,667,c),
(50,667,l),
(50,0,l)
);
},
{
closed = 1;
nodes = (
(250,517,l),
(325,517,l),
(386,517,o),
(415,472,o),
(415,377,cs),
(415,290,ls),
(415,195,o),
(386,150,o),
(325,150,c),
(250,150,l)
);
}
);
width = 648;
},
{
anchors = (
{
name = bottom;
pos = (283,0);
},
{
name = center;
pos = (141,334);
},
{
name = top;
pos = (283,667);
}
);
layerId = m004;
shapes = (
{
closed = 1;
nodes = (
(290,0,l),
(436,0,o),
(505,87,o),
(505,270,cs),
(505,397,ls),
(505,580,o),
(436,667,o),
(290,667,c),
(90,667,l),
(90,0,l)
);
},
{
closed = 1;
nodes = (
(140,642,l),
(290,642,l),
(402,642,o),
(455,563,o),
(455,397,cs),
(455,270,ls),
(455,104,o),
(402,25,o),
(290,25,c),
(140,25,l)
);
}
);
width = 565;
},
{
anchors = (
{
name = bottom;
pos = (285,0);
},
{
name = center;
pos = (143,334);
},
{
name = top;
pos = (285,667);
}
);
hints = (
{
horizontal = 1;
place = (-10,80);
type = Stem;
},
{
horizontal = 1;
place = (597,80);
type = Stem;
},
{
place = (35,110);
type = Stem;
},
{
place = (425,110);
type = Stem;
}
);
layerId = m005;
shapes = (
{
closed = 1;
nodes = (
(285,0,l),
(448,0,o),
(525,87,o),
(525,270,cs),
(525,397,ls),
(525,571,o),
(439,667,o),
(285,667,c),
(60,667,l),
(60,0,l)
);
},
{
closed = 1;
nodes = (
(160,617,l),
(285,617,l),
(380,617,o),
(425,546,o),
(425,397,cs),
(425,270,ls),
(425,121,o),
(380,50,o),
(285,50,c),
(160,50,l)
);
}
);
width = 570;
},
{
anchors = (
{
name = bottom;
pos = (308,0);
},
{
name = center;
pos = (154,334);
},
{
name = top;
pos = (308,667);
}
);
layerId = m006;
shapes = (
{
closed = 1;
nodes = (
(305,0,l),
(502,0,o),
(595,93,o),
(595,290,cs),
(595,377,ls),
(595,574,o),
(502,667,o),
(305,667,c),
(30,667,l),
(30,0,l)
);
},
{
closed = 1;
nodes = (
(230,577,l),
(305,577,l),
(369,577,o),
(395,520,o),
(395,377,cs),
(395,290,ls),
(395,147,o),
(369,90,o),
(305,90,c),
(230,90,l)
);
}
);
width = 615;
}
);
metricLeft = "=H";
metricRight = "=O";
note = O;
unicode = 68;
}
{
glyphname = E;
kernLeft = KO_H;
kernRight = KO_E;
layers = (
{
anchors = (
{
name = bottom;
pos = (257,0);
},
{
name = ogonek;
pos = (475,0);
},
{
name = top;
pos = (257,667);
},
{
name = topleft;
pos = (20,667);
}
);
hints = (
{
horizontal = 1;
place = (0,75);
type = Stem;
},
{
horizontal = 1;
place = (305,74);
type = Stem;
},
{
horizontal = 1;
place = (592,75);
type = Stem;
},
{
place = (70,100);
type = Stem;
}
);
layerId = m01;
shapes = (
{
closed = 1;
nodes = (
(470,667,l),
(75,667,l),
(75,0,l),
(475,0,l),
(475,80,l),
(375,80,o),
(275,80,o),
(175,80,c),
(175,300,l),
(258,300,o),
(342,300,o),
(425,300,c),
(425,380,l),
(342,380,o),
(258,380,o),
(175,380,c),
(175,587,l),
(273,587,o),
(372,587,o),
(470,587,c)
);
}
);
width = 513;
},
{
anchors = (
{
name = bottom;
pos = (250,0);
},
{
name = ogonek;
pos = (450,0);
},
{
name = top;
pos = (250,667);
},
{
name = topleft;
pos = (20,667);
}
);
layerId = "481D16E4-1E98-4559-AE79-559AF135D401";
shapes = (
{
closed = 1;
nodes = (
(445,667,l),
(100,667,l),
(100,0,l),
(450,0,l),
(450,40,l),
(350,40,o),
(250,40,o),
(150,40,c),
(150,320,l),
(233,320,o),
(317,320,o),
(400,320,c),
(400,360,l),
(317,360,o),
(233,360,o),
(150,360,c),
(150,627,l),
(248,627,o),
(347,627,o),
(445,627,c)
);
}
);
width = 500;
},
{
anchors = (
{
name = bottom;
pos = (288,0);
},
{
name = ogonek;
pos = (550,0);
},
{
name = top;
pos = (288,667);
},
{
name = topleft;
pos = (20,667);
}
);
layerId = "05E54F0F-8425-4B5B-B0EB-B578BBC85A7B";
shapes = (
{
closed = 1;
nodes = (
(545,667,l),
(50,667,l),
(50,0,l),
(550,0,l),
(550,150,l),
(450,150,o),
(350,150,o),
(250,150,c),
(250,265,l),
(333,265,o),
(417,265,o),
(500,265,c),
(500,415,l),
(417,415,o),
(333,415,o),
(250,415,c),
(250,517,l),
(348,517,o),
(447,517,o),
(545,517,c)
);
}
);
width = 575;
},
{
anchors = (
{
name = bottom;
pos = (243,0);
},
{
name = ogonek;
pos = (440,0);
},
{
name = top;
pos = (243,667);
},
{
name = topleft;
pos = (20,667);
}
);
layerId = m004;
shapes = (
{
closed = 1;
nodes = (
(435,667,l),
(90,667,l),
(90,0,l),
(440,0,l),
(440,25,ls),
(440,50,o),
(365,25,o),
(140,25,c),
(140,328,l),
(328,328,o),
(390,315,o),
(390,340,cs),
(390,341,ls),
(390,366,o),
(328,353,o),
(140,353,c),
(140,642,l),
(365,642,o),
(435,617,o),
(435,642,cs)
);
}
);
width = 485;
},
{
anchors = (
{
name = bottom;
pos = (245,0);
},
{
name = ogonek;
pos = (460,0);
},
{
name = top;
pos = (245,667);
},
{
name = topleft;
pos = (20,667);
}
);
hints = (
{
horizontal = 1;
place = (0,75);
type = Stem;
},
{
horizontal = 1;
place = (305,74);
type = Stem;
},
{
horizontal = 1;
place = (592,75);
type = Stem;
},
{
place = (70,100);
type = Stem;
}
);
layerId = m005;
shapes = (
{
closed = 1;
nodes = (
(455,667,l),
(60,667,l),
(60,0,l),
(460,0,l),
(460,50,ls),
(460,100,o),
(385,50,o),
(160,50,c),
(160,315,l),
(348,315,o),
(410,290,o),
(410,340,cs),
(410,341,ls),
(410,391,o),
(348,365,o),
(160,365,c),
(160,617,l),
(385,617,o),
(455,567,o),
(455,617,cs)
);
}
);
width = 490;
},
{
anchors = (
{
name = bottom;
pos = (273,0);
},
{
name = ogonek;
pos = (530,0);
},
{
name = top;
pos = (273,667);
},
{
name = topleft;
pos = (20,667);
}
);
layerId = m006;
shapes = (
{
closed = 1;
nodes = (
(525,667,l),
(30,667,l),
(30,0,l),
(530,0,l),
(530,90,ls),
(530,210,o),
(455,90,o),
(230,90,c),
(230,295,l),
(418,295,o),
(480,235,o),
(480,340,cs),
(480,341,ls),
(480,446,o),
(418,385,o),
(230,385,c),
(230,577,l),
(455,577,o),
(525,457,o),
(525,577,cs)
);
}
);
width = 545;
},
{
associatedMasterId = "481D16E4-1E98-4559-AE79-559AF135D401";
layerId = "3EF2FCCD-CB93-4CD0-83B9-CF96778F0091";
width = 604.17817;
}
);
metricLeft = "=H";
metricRight = "=H/2";
note = E;
unicode = 69;
userData = {
KernOnName = E;
};
}
{
glyphname = G;
kernLeft = KO_O;
kernRight = KO_G;
layers = (
{
anchors = (
{
name = bottom;
pos = (280,0);
},
{
name = top;
pos = (280,667);
}
);
hints = (
{
horizontal = 1;
place = (-10,85);
type = Stem;
},
{
horizontal = 1;
place = (597,80);
type = Stem;
},
{
place = (35,110);
type = Stem;
}
);
layerId = m01;
shapes = (
{
closed = 1;
nodes = (
(510,58,l),
(510,346,l),
(410,346,l),
(410,40,l),
(462,33,l)
);
},
{
ref = C;
},
{
closed = 1;
nodes = (
(510,300,l),
(510,380,l),
(285,380,l),
(285,353,o),
(285,327,o),
(285,300,c)
);
}
);
width = 560;
},
{
anchors = (
{
name = bottom;
pos = (271,0);
},
{
name = top;
pos = (271,667);
}
);
layerId = "481D16E4-1E98-4559-AE79-559AF135D401";
shapes = (
{
closed = 1;
nodes = (
(475,45,l),
(475,346,l),
(425,346,l),
(425,37,l),
(452,33,l)
);
},
{
ref = C;
},
{
closed = 1;
nodes = (
(475,320,l),
(475,360,l),
(275,360,l),
(275,347,o),
(275,333,o),
(275,320,c)
);
}
);
width = 542;
},
{
anchors = (
{
name = bottom;
pos = (309,0);
},
{
name = top;
pos = (309,667);
}
);
layerId = "05E54F0F-8425-4B5B-B0EB-B578BBC85A7B";
shapes = (
{
closed = 1;
nodes = (
(585,61,l),
(585,346,l),
(405,346,l),
(405,65,l),
(530,31,l)
);
},
{
ref = C;
},
{
closed = 1;
nodes = (
(585,280,l),
(585,400,l),
(310,400,l),
(310,360,o),
(310,320,o),
(310,280,c)
);
}
);
width = 618;
},
{
anchors = (
{
name = bottom;
pos = (268,0);
},
{
name = top;
pos = (268,667);
}
);
layerId = m004;
shapes = (
{
closed = 1;
nodes = (
(475,45,l),
(475,346,l),
(425,346,l),
(425,37,l),
(452,33,l)
);
},
{
ref = C;
},
{
closed = 1;
nodes = (
(475,325,l),
(475,355,l),
(275,355,ls),
(250,355,o),
(250,319,o),
(275,320,cs)
);
}
);
width = 535;
},
{
anchors = (
{
name = bottom;
pos = (278,0);
},
{
name = top;
pos = (278,667);
}
);
hints = (
{
horizontal = 1;
place = (-10,85);
type = Stem;
},
{
horizontal = 1;
place = (597,80);
type = Stem;
},
{
place = (35,110);
type = Stem;
}
);
layerId = m005;
shapes = (
{
closed = 1;
nodes = (
(510,58,l),
(510,346,l),
(410,346,l),
(410,40,l),
(462,33,l)
);
},
{
ref = C;
},
{
closed = 1;
nodes = (
(510,315,l),
(510,365,l),
(285,365,ls),
(235,365,o),
(235,303,o),
(285,305,cs)
);
}
);
width = 555;
},
{
anchors = (
{
name = bottom;
pos = (303,0);
},
{
name = top;
pos = (303,667);
}
);
layerId = m006;
shapes = (
{
closed = 1;
nodes = (
(585,67,l),
(585,346,l),
(405,346,l),
(405,65,l),
(517,31,l)
);
},
{
ref = C;
},
{
closed = 1;
nodes = (
(585,295,l),
(585,385,l),
(310,385,ls),
(260,385,o),
(260,283,o),
(310,285,cs)
);
}
);
width = 605;
}
);
metricLeft = "=O";
metricRight = "=O";
note = C;
unicode = 71;
userData = {
KernOnName = G;
};
}
{
glyphname = H;
kernLeft = KO_H;
kernRight = KO_H;
layers = (
{
anchors = (
{
name = bottom;
pos = (300,0);
},
{
name = center;
pos = (300,500);
},
{
name = top;
pos = (300,667);
},
{
name = topleft;
pos = (20,667);
}
);
hints = (
{
horizontal = 1;
place = (0,21);
target = up;
type = BottomGhost;
},
{
horizontal = 1;
place = (305,75);
type = Stem;
},
{
place = (70,100);
type = Stem;
},
{
place = (430,100);
type = Stem;
}
);
layerId = m01;
shapes = (
{
closed = 1;
nodes = (
(175,300,l),
(425,300,l),
(425,0,l),
(525,0,l),
(525,667,l),
(425,667,l),
(425,380,l),
(175,380,l),
(175,667,l),
(75,667,l),
(75,0,l),
(175,0,l)
);
}
);
width = 600;
},
{
anchors = (
{
name = bottom;
pos = (300,0);
},
{
name = center;
pos = (300,500);
},
{
name = top;
pos = (300,667);
},
{
name = topleft;
pos = (20,667);
}
);
layerId = "481D16E4-1E98-4559-AE79-559AF135D401";
shapes = (
{
closed = 1;
nodes = (
(150,320,l),
(450,320,l),
(450,0,l),
(500,0,l),
(500,667,l),
(450,667,l),
(450,360,l),
(150,360,l),
(150,667,l),
(100,667,l),
(100,0,l),
(150,0,l)
);
}
);
width = 600;
},
{
anchors = (
{
name = bottom;
pos = (325,0);
},
{
name = center;
pos = (325,500);
},
{
name = top;
pos = (325,667);
},
{
name = topleft;
pos = (20,667);
}
);
layerId = "05E54F0F-8425-4B5B-B0EB-B578BBC85A7B";
shapes = (
{
closed = 1;
nodes = (
(250,265,l),
(400,265,l),
(400,0,l),
(600,0,l),
(600,667,l),
(400,667,l),
(400,415,l),
(250,415,l),
(250,667,l),
(50,667,l),
(50,0,l),
(250,0,l)
);
}
);
width = 650;
},
{
anchors = (
{
name = bottom;
pos = (290,0);
},
{
name = center;
pos = (290,500);
},
{
name = top;
pos = (290,667);
},
{
name = topleft;
pos = (20,667);
}
);
layerId = m004;
shapes = (
{
closed = 1;
nodes = (
(140,323,l),
(440,323,l),
(440,0,l),
(490,0,l),
(490,667,l),
(440,667,l),
(440,358,l),
(140,358,l),
(140,667,l),
(90,667,l),
(90,0,l),
(140,0,l)
);
}
);
width = 580;
},
{
anchors = (
{
name = bottom;
pos = (285,0);
},
{
name = center;
pos = (285,500);
},
{
name = top;
pos = (285,667);
},
{
name = topleft;
pos = (20,667);
}
);
hints = (
{
horizontal = 1;
place = (0,21);
target = up;
type = BottomGhost;
},
{
horizontal = 1;
place = (305,75);
type = Stem;
},
{
place = (70,100);
type = Stem;
},
{
place = (430,100);
type = Stem;
}
);
layerId = m005;
shapes = (
{
closed = 1;
nodes = (
(160,315,l),
(410,315,l),
(410,0,l),
(510,0,l),
(510,667,l),
(410,667,l),
(410,365,l),
(160,365,l),
(160,667,l),
(60,667,l),
(60,0,l),
(160,0,l)
);
}
);
width = 570;
},
{
anchors = (
{
name = bottom;
pos = (305,0);
},
{
name = center;
pos = (305,500);
},
{
name = top;
pos = (305,667);
},
{
name = topleft;
pos = (20,667);
}
);
layerId = m006;
shapes = (
{
closed = 1;
nodes = (
(230,295,l),
(380,295,l),
(380,0,l),
(580,0,l),
(580,667,l),
(380,667,l),
(380,385,l),
(230,385,l),
(230,667,l),
(30,667,l),
(30,0,l),
(230,0,l)
);
}
);
width = 610;
}
);
note = H;
unicode = 72;
userData = {
KernOnName = H;
};
}
{
glyphname = N;
kernLeft = KO_H;
kernRight = KO_H;
layers = (
{
anchors = (
{
name = bottom;
pos = (300,0);
},
{
name = top;
pos = (300,667);
}
);
hints = (
{
horizontal = 1;
place = (0,21);
target = up;
type = BottomGhost;
},
{
place = (70,100);
type = Stem;
},
{
place = (452.5,97.5);
type = Stem;
}
);
layerId = m01;
shapes = (
{
closed = 1;
nodes = (
(525,0,l),
(525,667,l),
(425,667,l),
(425,200,l),
(398,350,o),
(185,667,o),
(185,667,c),
(75,667,l),
(75,0,l),
(175,0,l),
(175,517,l),
(175,517,o),
(302,350,o),
(415,0,c)
);
}
);
width = 600;
},
{
anchors = (
{
name = bottom;
pos = (300,0);
},
{
name = top;
pos = (300,667);
}
);
layerId = "481D16E4-1E98-4559-AE79-559AF135D401";
shapes = (
{
closed = 1;
nodes = (
(500,0,l),
(500,667,l),
(450,667,l),
(450,115,l),
(375,350,o),
(150,667,o),
(150,667,c),
(100,667,l),
(100,0,l),
(150,0,l),
(150,577,l),
(150,577,o),
(315,350,o),
(450,0,c)
);
}
);
width = 600;
},
{
anchors = (
{
name = bottom;
pos = (325,0);
},
{
name = top;
pos = (325,667);
}
);
layerId = "05E54F0F-8425-4B5B-B0EB-B578BBC85A7B";
shapes = (
{
closed = 1;
nodes = (
(600,0,l),
(600,667,l),
(425,667,l),
(425,290,l),
(408,400,o),
(270,667,o),
(270,667,c),
(50,667,l),
(50,0,l),
(225,0,l),
(225,417,l),
(225,417,o),
(286,350,o),
(380,0,c)
);
}
);
width = 650;
},
{
anchors = (
{
name = bottom;
pos = (290,0);
},
{
name = top;
pos = (290,667);
}
);
layerId = m004;
shapes = (
{
closed = 1;
nodes = (
(490,0,l),
(490,667,l),
(450,667,l),
(450,85,l),
(361,350,o),
(140,667,o),
(140,667,c),
(90,667,l),
(90,0,l),
(130,0,l),
(130,607,l),
(130,607,o),
(313,350,o),
(440,0,c)
);
}
);
width = 580;
},
{
anchors = (
{
name = bottom;
pos = (285,0);
},
{
name = top;
pos = (285,667);
}
);
hints = (
{
horizontal = 1;
place = (0,21);
target = up;
type = BottomGhost;
},
{
place = (70,100);
type = Stem;
},
{
place = (452.5,97.5);
type = Stem;
}
);
layerId = m005;
shapes = (
{
closed = 1;
nodes = (
(510,0,l),
(510,667,l),
(435,667,l),
(435,150,l),
(382,350,o),
(170,667,o),
(170,667,c),
(60,667,l),
(60,0,l),
(135,0,l),
(135,567,l),
(135,567,o),
(287,350,o),
(400,0,c)
);
}
);
width = 570;
},
{
anchors = (
{
name = bottom;
pos = (305,0);
},
{
name = top;
pos = (305,667);
}
);
layerId = m006;
shapes = (
{
closed = 1;
nodes = (
(580,0,l),
(580,667,l),
(430,667,l),
(430,240,l),
(413,350,o),
(250,667,o),
(250,667,c),
(30,667,l),
(30,0,l),
(180,0,l),
(180,467,l),
(180,467,o),
(266,350,o),
(360,0,c)
);
}
);
width = 610;
}
);
metricLeft = "=H";
metricRight = "=H";
note = N;
unicode = 78;
}
{
glyphname = O;
kernLeft = KO_O;
kernRight = KO_O;
layers = (
{
anchors = (
{
name = bottom;
pos = (290,0);
},
{
name = center;
pos = (290,334);
},
{
name = ogonek;
pos = (522,10);
},
{
name = top;
pos = (290,667);
},
{
name = topleft;
pos = (20,667);
},
{
name = topright;
pos = (560,667);
}
);
hints = (
{
horizontal = 1;
place = (-10,80);
type = Stem;
},
{
horizontal = 1;
place = (597,80);
type = Stem;
},
{
place = (35,110);
type = Stem;
},
{
place = (425,110);
type = Stem;
}
);
layerId = m01;
shapes = (
{
closed = 1;
nodes = (
(530,397,ls),
(530,577,o),
(444,677,o),
(290,677,cs),
(136,677,o),
(50,577,o),
(50,397,cs),
(50,270,ls),
(50,90,o),
(136,-10,o),
(290,-10,cs),
(444,-10,o),
(530,90,o),
(530,270,cs)
);
},
{
closed = 1;
nodes = (
(150,397,ls),
(150,533,o),
(195,597,o),
(290,597,cs),
(385,597,o),
(430,533,o),
(430,397,cs),
(430,270,ls),
(430,134,o),
(385,70,o),
(290,70,cs),
(195,70,o),
(150,134,o),
(150,270,cs)
);
}
);
width = 580;
},
{
anchors = (
{
name = bottom;
pos = (282,0);
},
{
name = center;
pos = (282,334);
},
{
name = ogonek;
pos = (508,10);
},
{
name = top;
pos = (282,667);
},
{
name = topleft;
pos = (20,667);
},
{
name = topright;
pos = (544,667);
}
);
layerId = "481D16E4-1E98-4559-AE79-559AF135D401";
shapes = (
{
closed = 1;
nodes = (
(497,397,ls),
(497,587,o),
(428,677,o),
(282,677,cs),
(136,677,o),
(67,587,o),
(67,397,cs),
(67,270,ls),
(67,80,o),
(136,-10,o),
(282,-10,cs),
(428,-10,o),
(497,80,o),
(497,270,cs)
);
},
{
closed = 1;
nodes = (
(117,397,ls),
(117,560,o),
(170,637,o),
(282,637,cs),
(394,637,o),
(447,560,o),
(447,397,cs),
(447,270,ls),
(447,107,o),
(394,30,o),
(282,30,cs),
(170,30,o),
(117,107,o),
(117,270,cs)
);
}
);
width = 564;
},
{
anchors = (
{
name = bottom;
pos = (323,0);
},
{
name = center;
pos = (323,334);
},
{
name = ogonek;
pos = (581,10);
},
{
name = top;
pos = (323,667);
},
{
name = topleft;
pos = (20,667);
},
{
name = topright;
pos = (626,667);
}
);
layerId = "05E54F0F-8425-4B5B-B0EB-B578BBC85A7B";
shapes = (
{
closed = 1;
nodes = (
(613,377,ls),
(613,581,o),
(520,677,o),
(323,677,cs),
(126,677,o),
(33,581,o),
(33,377,cs),
(33,290,ls),
(33,86,o),
(126,-10,o),
(323,-10,cs),
(520,-10,o),
(613,86,o),
(613,290,cs)
);
},
{
closed = 1;
nodes = (
(233,377,ls),
(233,479,o),
(262,527,o),
(323,527,cs),
(384,527,o),
(413,479,o),
(413,377,cs),
(413,290,ls),
(413,188,o),
(384,140,o),
(323,140,cs),
(262,140,o),
(233,188,o),
(233,290,cs)
);
}
);
width = 646;
},
{
anchors = (
{
name = bottom;
pos = (275,0);
},
{
name = center;
pos = (275,334);
},
{
name = ogonek;
pos = (495,10);
},
{
name = top;
pos = (275,667);
},
{
name = topleft;
pos = (20,667);
},
{
name = topright;
pos = (530,667);
}
);
layerId = m004;
shapes = (
{
closed = 1;
nodes = (
(490,397,ls),
(490,587,o),
(421,677,o),
(275,677,cs),
(129,677,o),
(60,587,o),
(60,397,cs),
(60,270,ls),
(60,80,o),
(129,-10,o),
(275,-10,cs),
(421,-10,o),
(490,80,o),
(490,270,cs)
);
},
{
closed = 1;
nodes = (
(110,397,ls),
(110,570,o),
(163,652,o),
(275,652,cs),
(387,652,o),
(440,570,o),
(440,397,cs),
(440,270,ls),
(440,97,o),
(387,15,o),
(275,15,cs),
(163,15,o),
(110,97,o),
(110,270,cs)
);
}
);
width = 550;
},
{
anchors = (
{
name = bottom;
pos = (285,0);
},
{
name = center;
pos = (285,334);
},
{
name = ogonek;
pos = (513,10);
},
{
name = top;
pos = (285,667);
},
{
name = topleft;
pos = (20,667);
},
{
name = topright;
pos = (550,667);
}
);
hints = (
{
horizontal = 1;
place = (-10,80);
type = Stem;
},
{
horizontal = 1;
place = (597,80);
type = Stem;
},
{
place = (35,110);
type = Stem;
},
{
place = (425,110);
type = Stem;
}
);
layerId = m005;
shapes = (
{
closed = 1;
nodes = (
(525,397,ls),
(525,577,o),
(439,677,o),
(285,677,cs),
(131,677,o),
(45,577,o),
(45,397,cs),
(45,270,ls),
(45,80,o),
(122,-10,o),
(285,-10,cs),
(448,-10,o),
(525,80,o),
(525,270,cs)
);
},
{
closed = 1;
nodes = (
(145,397,ls),
(145,553,o),
(190,627,o),
(285,627,cs),
(380,627,o),
(425,553,o),
(425,397,cs),
(425,270,ls),
(425,114,o),
(380,40,o),
(285,40,cs),
(190,40,o),
(145,114,o),
(145,270,cs)
);
}
);
width = 570;
},
{
anchors = (
{
name = bottom;
pos = (310,0);
},
{
name = center;
pos = (310,334);
},
{
name = ogonek;
pos = (558,10);
},
{
name = top;
pos = (310,667);
},
{
name = topleft;
pos = (20,667);
},
{
name = topright;
pos = (600,667);
}
);
layerId = m006;
shapes = (
{
closed = 1;
nodes = (
(600,377,ls),
(600,581,o),
(507,677,o),
(310,677,cs),
(113,677,o),
(20,581,o),
(20,377,cs),
(20,290,ls),
(20,86,o),
(113,-10,o),
(310,-10,cs),
(507,-10,o),
(600,86,o),
(600,290,cs)
);
},
{
closed = 1;
nodes = (
(220,377,ls),
(220,527,o),
(246,587,o),
(310,587,cs),
(374,587,o),
(400,527,o),
(400,377,cs),
(400,290,ls),
(400,140,o),
(374,80,o),
(310,80,cs),
(246,80,o),
(220,140,o),
(220,290,cs)
);
}
);
width = 620;
},
{
associatedMasterId = "481D16E4-1E98-4559-AE79-559AF135D401";
layerId = "3EF2FCCD-CB93-4CD0-83B9-CF96778F0091";
width = 601.1395;
}
);
note = O;
unicode = 79;
userData = {
KernOnName = O;
};
}
{
glyphname = P;
kernLeft = KO_H;
kernRight = KO_P;
layers = (
{
anchors = (
{
name = bottom;
pos = (272,0);
},
{
name = top;
pos = (272,667);
}
);
hints = (
{
horizontal = 1;
place = (0,21);
target = up;
type = BottomGhost;
},
{
horizontal = 1;
place = (282,67);
type = Stem;
},
{
horizontal = 1;
place = (598,69);
type = Stem;
},
{
place = (70,100);
type = Stem;
},
{
place = (406,99);
type = Stem;
}
);
layerId = m01;
shapes = (
{
closed = 1;
nodes = (
(270,280,ls),
(434,280,o),
(525,348,o),
(525,474,cs),
(525,599,o),
(434,667,o),
(270,667,cs),
(75,667,l),
(175,587,l),
(271,587,ls),
(376,587,o),
(426,552,o),
(426,474,cs),
(426,395,o),
(376,360,o),
(271,360,cs),
(175,360,l),
(175,280,l)
);
},
{
closed = 1;
nodes = (
(176,0,l),
(175,667,l),
(75,667,l),
(75,0,l)
);
}
);
width = 544;
},
{
anchors = (
{
name = bottom;
pos = (263,0);
},
{
name = top;
pos = (263,667);
}
);
layerId = "481D16E4-1E98-4559-AE79-559AF135D401";
shapes = (
{
closed = 1;
nodes = (
(270,320,ls),
(418,320,o),
(500,386,o),
(500,495,cs),
(500,603,o),
(418,667,o),
(270,667,cs),
(100,667,l),
(150,627,l),
(271,627,ls),
(393,627,o),
(451,583,o),
(451,495,cs),
(451,406,o),
(393,360,o),
(271,360,cs),
(150,360,l),
(150,320,l)
);
},
{
closed = 1;
nodes = (
(151,0,l),
(150,667,l),
(100,667,l),
(100,0,l)
);
}
);
width = 525;
},
{
anchors = (
{
name = bottom;
pos = (307,0);
},
{
name = top;
pos = (307,667);
}
);
layerId = "05E54F0F-8425-4B5B-B0EB-B578BBC85A7B";
shapes = (
{
closed = 1;
nodes = (
(295,210,ls),
(491,210,o),
(600,302,o),
(600,439,cs),
(600,594,o),
(491,667,o),
(295,667,cs),
(50,667,l),
(250,517,l),
(296,517,ls),
(367,517,o),
(401,499,o),
(401,439,cs),
(401,378,o),
(367,360,o),
(296,360,cs),
(250,360,l),
(250,210,l)
);
},
{
closed = 1;
nodes = (
(251,0,l),
(250,667,l),
(50,667,l),
(50,0,l)
);
}
);
width = 613;
},
{
anchors = (
{
name = bottom;
pos = (257,0);
},
{
name = top;
pos = (257,667);
}
);
layerId = m004;
shapes = (
{
closed = 1;
nodes = (
(260,320,l),
(408,320,o),
(490,382,o),
(490,494,cs),
(490,605,o),
(408,667,o),
(260,667,cs),
(90,667,l),
(140,637,l),
(261,637,ls),
(383,637,o),
(441,590,o),
(441,494,cs),
(441,397,o),
(383,350,o),
(261,350,cs),
(140,350,l),
(140,320,l)
);
},
{
closed = 1;
nodes = (
(141,0,l),
(140,667,l),
(90,667,l),
(90,0,l)
);
}
);
width = 513;
},
{
anchors = (
{
name = bottom;
pos = (263,0);
},
{
name = top;
pos = (263,667);
}
);
hints = (
{
horizontal = 1;
place = (0,21);
target = up;
type = BottomGhost;
},
{
horizontal = 1;
place = (282,67);
type = Stem;
},
{
horizontal = 1;
place = (598,69);
type = Stem;
},
{
place = (70,100);
type = Stem;
},
{
place = (406,99);
type = Stem;
}
);
layerId = m005;
shapes = (
{
closed = 1;
nodes = (
(255,300,ls),
(419,300,o),
(510,365,o),
(510,483,cs),
(510,602,o),
(419,667,o),
(255,667,cs),
(60,667,l),
(160,617,l),
(256,617,ls),
(361,617,o),
(411,574,o),
(411,483,cs),
(411,392,o),
(361,350,o),
(256,350,cs),
(160,350,l),
(160,300,l)
);
},
{
closed = 1;
nodes = (
(161,0,l),
(160,667,l),
(60,667,l),
(60,0,l)
);
}
);
width = 525;
},
{
anchors = (
{
name = bottom;
pos = (294,0);
},
{
name = top;
pos = (294,667);
}
);
layerId = m006;
shapes = (
{
closed = 1;
nodes = (
(275,260,ls),
(471,260,o),
(580,329,o),
(580,464,cs),
(580,598,o),
(471,667,o),
(275,667,cs),
(30,667,l),
(230,577,l),
(276,577,ls),
(347,577,o),
(381,544,o),
(381,464,cs),
(381,383,o),
(347,350,o),
(276,350,cs),
(230,350,l),
(230,260,l)
);
},
{
closed = 1;
nodes = (
(231,0,l),
(230,667,l),
(30,667,l),
(30,0,l)
);
}
);
width = 588;
}
);
metricLeft = "=H";
metricRight = "=H/4";
note = P;
unicode = 80;
userData = {
KernOnName = P;
};
}
{
glyphname = S;
kernLeft = KO_S;
kernRight = KO_S;
layers = (
{
anchors = (
{
name = bottom;
pos = (202,0);
},
{
name = top;
pos = (211,665);
}
);
hints = (
{
horizontal = 1;
place = (-10,85);
type = Stem;
},
{
horizontal = 1;
place = (597,80);
type = Stem;
},
{
place = (41,90);
type = Stem;
},
{
place = (331,110);
type = Stem;
}
);
layerId = m01;
shapes = (
{
closed = 1;
nodes = (
(435,298,o),
(363,369,o),
(232,400,cs),
(159,416,o),
(125,448,o),
(125,500,cs),
(125,562,o),
(156,597,o),
(212,597,c),
(212,677,l),
(104,677,o),
(35,607,o),
(35,499,cs),
(35,408,o),
(94,340,o),
(202,310,cs),
(288,286,o),
(335,246,o),
(335,200,cs),
(335,116,o),
(288,70,o),
(202,70,c),
(202,-10,l),
(343,-10,o),
(435,73,o),
(435,200,cs)
);
},
{
closed = 1;
nodes = (
(331,577,o),
(352,596,o),
(373,615,c),
(331,657,o),
(279,677,o),
(212,677,c),
(212,597,l),
(255,597,o),
(287,584,o),
(310,558,c)
);
},
{
closed = 1;
nodes = (
(202,70,l),
(151,70,o),
(101,81,o),
(62,100,c),
(50,78,o),
(37,55,o),
(25,33,c),
(78,5,o),
(142,-10,o),
(202,-10,c)
);
}
);
width = 460;
},
{
anchors = (
{
name = bottom;
pos = (211,0);
},
{
name = top;
pos = (221,667);
}
);
layerId = "481D16E4-1E98-4559-AE79-559AF135D401";
shapes = (
{
closed = 1;
nodes = (
(414,279,o),
(352,349,o),
(241,375,cs),
(143,397,o),
(89,449,o),
(89,520,cs),
(89,595,o),
(136,637,o),
(221,637,c),
(221,677,l),
(114,677,o),
(44,615,o),
(44,519,cs),
(44,432,o),
(104,366,o),
(211,335,cs),
(315,306,o),
(364,256,o),
(364,180,cs),
(364,84,o),
(309,30,o),
(211,30,c),
(211,-10,l),
(334,-10,o),
(414,65,o),
(414,180,cs)
);
},
{
closed = 1;
nodes = (
(345,604,o),
(356,615,o),
(367,626,c),
(332,660,o),
(284,677,o),
(221,677,c),
(221,637,l),
(270,637,o),
(307,623,o),
(334,593,c)
);
},
{
closed = 1;
nodes = (
(211,30,l),
(158,30,o),
(106,43,o),
(51,70,c),
(45,58,o),
(40,45,o),
(34,33,c),
(87,5,o),
(151,-10,o),
(211,-10,c)
);
}
);
width = 448;
},
{
anchors = (
{
name = bottom;
pos = (224,0);
},
{
name = top;
pos = (234,667);
}
);
layerId = "05E54F0F-8425-4B5B-B0EB-B578BBC85A7B";
shapes = (
{
closed = 1;
nodes = (
(507,328,o),
(444,386,o),
(254,430,cs),
(206,441,o),
(187,458,o),
(187,490,cs),
(187,512,o),
(205,527,o),
(234,527,c),
(234,677,l),
(110,677,o),
(17,601,o),
(17,499,cs),
(17,383,o),
(84,309,o),
(224,270,cs),
(286,252,o),
(307,234,o),
(307,200,cs),
(307,159,o),
(280,140,o),
(224,140,c),
(224,-10,l),
(396,-10,o),
(507,73,o),
(507,200,cs)
);
},
{
closed = 1;
nodes = (
(358,527,o),
(402,562,o),
(447,596,c),
(400,651,o),
(323,677,o),
(234,677,c),
(234,527,l),
(263,527,o),
(298,516,o),
(313,493,c)
);
},
{
closed = 1;
nodes = (
(224,140,l),
(183,140,o),
(126,150,o),
(64,170,c),
(48,127,o),
(33,74,o),
(17,31,c),
(58,8,o),
(147,-10,o),
(224,-10,c)
);
}
);
width = 524;
},
{
anchors = (
{
name = bottom;
pos = (207,0);
},
{
name = top;
pos = (217,667);
}
);
layerId = m004;
shapes = (
{
closed = 1;
nodes = (
(410,279,o),
(348,349,o),
(237,375,cs),
(139,397,o),
(85,449,o),
(85,520,cs),
(85,605,o),
(132,652,o),
(217,652,c),
(217,677,l),
(110,677,o),
(40,615,o),
(40,519,cs),
(40,432,o),
(100,366,o),
(207,335,cs),
(311,306,o),
(360,256,o),
(360,180,cs),
(360,74,o),
(305,15,o),
(207,15,c),
(207,-10,l),
(330,-10,o),
(410,65,o),
(410,180,cs)
);
},
{
closed = 1;
nodes = (
(348,593,o),
(363,608,o),
(363,626,cs),
(363,652,o),
(290,677,o),
(217,677,c),
(217,652,l),
(290,652,o),
(305,593,o),
(330,593,cs)
);
},
{
closed = 1;
nodes = (
(207,15,l),
(95,15,o),
(64,70,o),
(47,70,cs),
(30,70,o),
(30,45,o),
(30,33,c),
(83,5,o),
(147,-10,o),
(207,-10,c)
);
}
);
width = 440;
},
{
anchors = (
{
name = bottom;
pos = (200,0);
},
{
name = top;
pos = (210,667);
}
);
hints = (
{
horizontal = 1;
place = (-10,85);
type = Stem;
},
{
horizontal = 1;
place = (597,80);
type = Stem;
},
{
place = (41,90);
type = Stem;
},
{
place = (331,110);
type = Stem;
}
);
layerId = m005;
shapes = (
{
closed = 1;
nodes = (
(433,298,o),
(361,369,o),
(230,400,cs),
(157,416,o),
(123,448,o),
(123,515,cs),
(123,582,o),
(154,627,o),
(210,627,c),
(210,677,l),
(103,677,o),
(33,607,o),
(33,499,cs),
(33,408,o),
(93,340,o),
(200,310,cs),
(283,287,o),
(323,245,o),
(323,180,cs),
(323,90,o),
(279,40,o),
(200,40,c),
(200,-10,l),
(341,-10,o),
(433,73,o),
(433,200,cs)
);
},
{
closed = 1;
nodes = (
(339,558,o),
(371,584,o),
(371,615,cs),
(371,646,o),
(291,677,o),
(210,677,c),
(210,627,l),
(270,627,o),
(270,558,o),
(308,558,cs)
);
},
{
closed = 1;
nodes = (
(200,40,l),
(105,40,o),
(85,100,o),
(60,100,cs),
(35,100,o),
(21,58,o),
(23,33,c),
(76,5,o),
(140,-10,o),
(200,-10,c)
);
}
);
width = 456;
},
{
anchors = (
{
name = bottom;
pos = (227,0);
},
{
name = top;
pos = (237,667);
}
);
layerId = m006;
shapes = (
{
closed = 1;
nodes = (
(510,328,o),
(447,386,o),
(257,430,cs),
(214,440,o),
(190,472,o),
(190,520,cs),
(190,563,o),
(207,587,o),
(237,587,c),
(237,677,l),
(113,677,o),
(20,601,o),
(20,499,cs),
(20,383,o),
(87,309,o),
(227,270,cs),
(283,254,o),
(310,222,o),
(310,170,cs),
(310,109,o),
(283,80,o),
(227,80,c),
(227,-10,l),
(399,-10,o),
(510,73,o),
(510,200,cs)
);
},
{
closed = 1;
nodes = (
(404,493,o),
(437,554,o),
(437,596,cs),
(437,637,o),
(337,677,o),
(237,677,c),
(237,587,l),
(301,587,o),
(302,493,o),
(362,493,cs)
);
},
{
closed = 1;
nodes = (
(227,80,l),
(163,80,o),
(103,170,o),
(67,170,cs),
(31,170,o),
(-9,100,o),
(20,31,c),
(73,0,o),
(167,-10,o),
(227,-10,c)
);
}
);
width = 520;
}
);
metricLeft = "=O/2";
metricRight = "=O/2";
note = S;
unicode = 83;
userData = {
KernOnName = S;
};
}
{
glyphname = U;
kernLeft = KO_U;
kernRight = KO_U;
layers = (
{
anchors = (
{
name = bottom;
pos = (300,0);
},
{
name = ogonek;
pos = (371,0);
},
{
name = top;
pos = (300,667);
},
{
name = topright;
pos = (580,667);
}
);
hints = (
{
horizontal = 1;
place = (-10,85);
type = Stem;
},
{
place = (50,105);
type = Stem;
},
{
place = (415,105);
type = Stem;
}
);
layerId = m01;
shapes = (
{
closed = 1;
nodes = (
(75,667,l),
(75,270,ls),
(75,90,o),
(155,-10,o),
(300,-10,cs),
(445,-10,o),
(525,90,o),
(525,270,cs),
(525,667,l),
(425,667,l),
(425,270,ls),
(425,134,o),
(385,70,o),
(300,70,cs),
(215,70,o),
(175,134,o),
(175,270,cs),
(175,667,l)
);
}
);
width = 600;
},
{
anchors = (
{
name = bottom;
pos = (300,0);
},
{
name = ogonek;
pos = (371,0);
},
{
name = top;
pos = (300,667);
},
{
name = topright;
pos = (580,667);
}
);
layerId = "481D16E4-1E98-4559-AE79-559AF135D401";
shapes = (
{
closed = 1;
nodes = (
(100,667,l),
(100,270,ls),
(100,80,o),
(164,-10,o),
(300,-10,cs),
(436,-10,o),
(500,80,o),
(500,270,cs),
(500,667,l),
(450,667,l),
(450,270,ls),
(450,107,o),
(402,30,o),
(300,30,cs),
(198,30,o),
(150,107,o),
(150,270,cs),
(150,667,l)
);
}
);
width = 600;
},
{
anchors = (
{
name = bottom;
pos = (325,0);
},
{
name = ogonek;
pos = (420,0);
},
{
name = top;
pos = (325,667);
},
{
name = topright;
pos = (630,667);
}
);
layerId = "05E54F0F-8425-4B5B-B0EB-B578BBC85A7B";
shapes = (
{
closed = 1;
nodes = (
(50,667,l),
(50,290,ls),
(50,86,o),
(138,-10,o),
(325,-10,cs),
(512,-10,o),
(600,86,o),
(600,290,cs),
(600,667,l),
(400,667,l),
(400,290,ls),
(400,188,o),
(376,140,o),
(325,140,cs),
(274,140,o),
(250,188,o),
(250,290,cs),
(250,667,l)
);
}
);
width = 650;
},
{
anchors = (
{
name = bottom;
pos = (290,0);
},
{
name = ogonek;
pos = (362,0);
},
{
name = top;
pos = (290,667);
},
{
name = topright;
pos = (560,667);
}
);
layerId = m004;
shapes = (
{
closed = 1;
nodes = (
(90,667,l),
(90,270,ls),
(90,80,o),
(154,-10,o),
(290,-10,cs),
(426,-10,o),
(490,80,o),
(490,270,cs),
(490,667,l),
(440,667,l),
(440,270,ls),
(440,97,o),
(392,15,o),
(290,15,cs),
(188,15,o),
(140,97,o),
(140,270,cs),
(140,667,l)
);
}
);
width = 580;
},
{
anchors = (
{
name = bottom;
pos = (285,0);
},
{
name = ogonek;
pos = (370,1);
},
{
name = top;
pos = (285,667);
},
{
name = topright;
pos = (550,667);
}
);
hints = (
{
horizontal = 1;
place = (-10,85);
type = Stem;
},
{
place = (50,105);
type = Stem;
},
{
place = (415,105);
type = Stem;
}
);
layerId = m005;
shapes = (
{
closed = 1;
nodes = (
(60,667,l),
(60,270,ls),
(60,80,o),
(132,-10,o),
(285,-10,cs),
(438,-10,o),
(510,80,o),
(510,270,cs),
(510,667,l),
(410,667,l),
(410,270,ls),
(410,114,o),
(370,40,o),
(285,40,cs),
(200,40,o),
(160,114,o),
(160,270,cs),
(160,667,l)
);
}
);
width = 570;
},
{
anchors = (
{
name = bottom;
pos = (305,0);
},
{
name = ogonek;
pos = (399,0);
},
{
name = top;
pos = (305,667);
},
{
name = topright;
pos = (590,667);
}
);
layerId = m006;
shapes = (
{
closed = 1;
nodes = (
(30,667,l),
(30,290,ls),
(30,86,o),
(118,-10,o),
(305,-10,cs),
(492,-10,o),
(580,86,o),
(580,290,cs),
(580,667,l),
(380,667,l),
(380,290,ls),
(380,140,o),
(359,80,o),
(305,80,cs),
(251,80,o),
(230,140,o),
(230,290,cs),
(230,667,l)
);
}
);
width = 610;
},
{
associatedMasterId = "481D16E4-1E98-4559-AE79-559AF135D401";
layerId = "3EF2FCCD-CB93-4CD0-83B9-CF96778F0091";
width = 601.1395;
}
);
metricLeft = "=H";
metricRight = "=H";
note = U;
unicode = 85;
userData = {
KernOnName = U;
};
}
{
glyphname = X;
kernLeft = KO_X;
kernRight = KO_X;
layers = (
{
anchors = (
{
name = bottom;
pos = (283,0);
},
{
name = top;
pos = (283,667);
}
);
hints = (
{
horizontal = 1;
place = (0,21);
target = up;
type = BottomGhost;
},
{
place = (21,498);
type = Stem;
}
);
layerId = m01;
shapes = (
{
closed = 1;
nodes = (
(125,0,l),
(157,92,o),
(214,194,o),
(283,284,c),
(352,194,o),
(409,92,o),
(441,0,c),
(541,0,l),
(495,104,o),
(425,238,o),
(343,340,c),
(223,340,l),
(141,238,o),
(71,104,o),
(25,0,c)
);
},
{
closed = 1;
nodes = (
(343,340,l),
(425,439,o),
(485,567,o),
(531,667,c),
(431,667,l),
(399,578,o),
(352,481,o),
(283,394,c),
(214,481,o),
(167,578,o),
(135,667,c),
(35,667,l),
(81,567,o),
(141,439,o),
(223,340,c)
);
}
);
width = 566;
},
{
anchors = (
{
name = bottom;
pos = (271,0);
},
{
name = top;
pos = (271,667);
}
);
layerId = "481D16E4-1E98-4559-AE79-559AF135D401";
shapes = (
{
closed = 1;
nodes = (
(88,0,l),
(114,80,o),
(180,190,o),
(271,309,c),
(360,195,o),
(425,84,o),
(454,0,c),
(509,0,l),
(464,101,o),
(385,234,o),
(301,340,c),
(241,340,l),
(157,234,o),
(78,100,o),
(33,0,c)
);
},
{
closed = 1;
nodes = (
(301,340,l),
(372,426,o),
(446,554,o),
(499,667,c),
(444,667,l),
(411,573,o),
(349,467,o),
(271,369,c),
(193,467,o),
(131,573,o),
(98,667,c),
(43,667,l),
(96,554,o),
(170,426,o),
(241,340,c)
);
}
);
width = 542;
},
{
anchors = (
{
name = bottom;
pos = (329,0);
},
{
name = top;
pos = (329,667);
}
);
layerId = "05E54F0F-8425-4B5B-B0EB-B578BBC85A7B";
shapes = (
{
closed = 1;
nodes = (
(237,0,l),
(271,100,o),
(304,177,o),
(329,215,c),
(354,177,o),
(387,100,o),
(421,0,c),
(641,0,l),
(592,116,o),
(512,249,o),
(439,340,c),
(219,340,l),
(146,249,o),
(66,116,o),
(17,0,c)
);
},
{
closed = 1;
nodes = (
(439,340,l),
(498,410,o),
(573,538,o),
(631,667,c),
(411,667,l),
(371,552,o),
(341,478,o),
(329,460,c),
(317,478,o),
(287,552,o),
(247,667,c),
(27,667,l),
(85,538,o),
(160,410,o),
(219,340,c)
);
}
);
width = 658;
},
{
anchors = (
{
name = bottom;
pos = (268,0);
},
{
name = top;
pos = (268,667);
}
);
layerId = m004;
shapes = (
{
closed = 1;
nodes = (
(85,0,l),
(114,89,o),
(179,203,o),
(268,319,c),
(352,211,o),
(417,97,o),
(451,0,c),
(506,0,l),
(462,99,o),
(378,232,o),
(293,340,c),
(243,340,l),
(159,233,o),
(75,100,o),
(30,0,c)
);
},
{
closed = 1;
nodes = (
(293,340,l),
(364,426,o),
(444,555,o),
(496,667,c),
(441,667,l),
(404,563,o),
(343,453,o),
(268,359,c),
(193,453,o),
(132,563,o),
(95,667,c),
(40,667,l),
(92,555,o),
(172,426,o),
(243,340,c)
);
}
);
width = 536;
},
{
anchors = (
{
name = bottom;
pos = (278,0);
},
{
name = top;
pos = (278,667);
}
);
hints = (
{
horizontal = 1;
place = (0,21);
target = up;
type = BottomGhost;
},
{
place = (21,498);
type = Stem;
}
);
layerId = m005;
shapes = (
{
closed = 1;
nodes = (
(120,0,l),
(160,115,o),
(217,224,o),
(278,304,c),
(339,224,o),
(396,115,o),
(436,0,c),
(536,0,l),
(489,108,o),
(407,241,o),
(328,340,c),
(228,340,l),
(149,241,o),
(67,108,o),
(20,0,c)
);
},
{
closed = 1;
nodes = (
(328,340,l),
(392,417,o),
(470,546,o),
(526,667,c),
(426,667,l),
(381,542,o),
(328,437,o),
(278,374,c),
(228,437,o),
(175,542,o),
(130,667,c),
(30,667,l),
(86,546,o),
(164,417,o),
(228,340,c)
);
}
);
width = 556;
},
{
anchors = (
{
name = bottom;
pos = (322,0);
},
{
name = top;
pos = (322,667);
}
);
layerId = m006;
shapes = (
{
closed = 1;
nodes = (
(230,0,l),
(263,125,o),
(299,229,o),
(322,265,c),
(345,229,o),
(381,125,o),
(414,0,c),
(634,0,l),
(585,116,o),
(505,249,o),
(432,340,c),
(212,340,l),
(139,249,o),
(59,116,o),
(10,0,c)
);
},
{
closed = 1;
nodes = (
(432,340,l),
(491,410,o),
(566,538,o),
(624,667,c),
(404,667,l),
(364,525,o),
(332,424,o),
(322,410,c),
(312,424,o),
(280,525,o),
(240,667,c),
(20,667,l),
(78,538,o),
(153,410,o),
(212,340,c)
);
}
);
width = 644;
}
);
metricLeft = "=H/3";
metricRight = "=H/3";
note = X;
unicode = 88;
userData = {
KernOnName = X;
};
}
{
glyphname = Y;
kernLeft = KO_Y;
kernRight = KO_Y;
layers = (
{
anchors = (
{
name = bottom;
pos = (275,0);
},
{
name = top;
pos = (275,667);
},
{
name = topleft;
pos = (20,667);
}
);
hints = (
{
horizontal = 1;
place = (0,21);
target = up;
type = BottomGhost;
},
{
place = (217,100);
type = Stem;
}
);
layerId = m01;
shapes = (
{
closed = 1;
nodes = (
(325,267,l),
(407,388,o),
(487,545,o),
(533,667,c),
(423,667,l),
(391,558,o),
(344,449,o),
(275,343,c),
(206,449,o),
(159,558,o),
(127,667,c),
(17,667,l),
(63,545,o),
(143,388,o),
(225,267,c)
);
},
{
closed = 1;
nodes = (
(325,0,l),
(325,267,l),
(225,267,l),
(225,0,l)
);
}
);
width = 550;
},
{
anchors = (
{
name = bottom;
pos = (275,0);
},
{
name = top;
pos = (275,667);
},
{
name = topleft;
pos = (20,667);
}
);
layerId = "481D16E4-1E98-4559-AE79-559AF135D401";
shapes = (
{
closed = 1;
nodes = (
(300,267,l),
(386,394,o),
(469,551,o),
(513,667,c),
(458,667,l),
(429,568,o),
(363,448,o),
(275,313,c),
(187,448,o),
(121,568,o),
(92,667,c),
(37,667,l),
(81,551,o),
(164,394,o),
(250,267,c)
);
},
{
closed = 1;
nodes = (
(300,0,l),
(300,267,l),
(250,267,l),
(250,0,l)
);
}
);
width = 550;
},
{
anchors = (
{
name = bottom;
pos = (312,0);
},
{
name = top;
pos = (312,667);
},
{
name = topleft;
pos = (20,667);
}
);
layerId = "05E54F0F-8425-4B5B-B0EB-B578BBC85A7B";
shapes = (
{
closed = 1;
nodes = (
(402,267,l),
(503,414,o),
(589,571,o),
(624,667,c),
(424,667,l),
(404,597,o),
(364,507,o),
(312,414,c),
(260,507,o),
(220,597,o),
(200,667,c),
(0,667,l),
(35,571,o),
(121,414,o),
(222,267,c)
);
},
{
closed = 1;
nodes = (
(412,0,l),
(412,300,l),
(212,300,l),
(212,0,l)
);
}
);
width = 624;
},
{
anchors = (
{
name = bottom;
pos = (275,0);
},
{
name = top;
pos = (275,667);
},
{
name = topleft;
pos = (20,667);
}
);
layerId = m004;
shapes = (
{
closed = 1;
nodes = (
(300,267,l),
(386,394,o),
(469,551,o),
(513,667,c),
(458,667,l),
(422,547,o),
(357,410,o),
(275,285,c),
(193,410,o),
(128,547,o),
(92,667,c),
(37,667,l),
(81,551,o),
(164,394,o),
(250,267,c)
);
},
{
closed = 1;
nodes = (
(300,0,l),
(300,267,l),
(250,267,l),
(250,0,l)
);
}
);
width = 550;
},
{
anchors = (
{
name = bottom;
pos = (275,0);
},
{
name = top;
pos = (275,667);
},
{
name = topleft;
pos = (20,667);
}
);
hints = (
{
horizontal = 1;
place = (0,21);
target = up;
type = BottomGhost;
},
{
place = (217,100);
type = Stem;
}
);
layerId = m005;
shapes = (
{
closed = 1;
nodes = (
(325,267,l),
(407,388,o),
(487,545,o),
(533,667,c),
(423,667,l),
(385,537,o),
(338,412,o),
(275,315,c),
(212,412,o),
(165,537,o),
(127,667,c),
(17,667,l),
(63,545,o),
(143,388,o),
(225,267,c)
);
},
{
closed = 1;
nodes = (
(324,0,l),
(324,267,l),
(225,267,l),
(224,0,l)
);
}
);
width = 550;
},
{
anchors = (
{
name = bottom;
pos = (312,0);
},
{
name = top;
pos = (312,667);
},
{
name = topleft;
pos = (20,667);
}
);
layerId = m006;
shapes = (
{
closed = 1;
nodes = (
(402,267,l),
(501,412,o),
(588,569,o),
(624,667,c),
(424,667,l),
(388,542,o),
(348,437,o),
(312,372,c),
(276,437,o),
(236,542,o),
(200,667,c),
(0,667,l),
(36,569,o),
(123,412,o),
(222,267,c)
);
},
{
closed = 1;
nodes = (
(412,0,l),
(412,300,l),
(212,300,l),
(212,0,l)
);
}
);
width = 624;
},
{
associatedMasterId = "481D16E4-1E98-4559-AE79-559AF135D401";
layerId = "3EF2FCCD-CB93-4CD0-83B9-CF96778F0091";
width = 602.5069;
}
);
metricLeft = "=V";
metricRight = "=V";
note = Y;
unicode = 89;
userData = {
KernOnName = Y;
};
}
{
glyphname = Z;
kernLeft = KO_Z;
kernRight = KO_Z;
layers = (
{
anchors = (
{
name = bottom;
pos = (261,0);
},
{
name = center;
pos = (261,334);
},
{
name = top;
pos = (261,667);
}
);
hints = (
{
horizontal = 1;
place = (0,85);
type = Stem;
},
{
horizontal = 1;
place = (587,80);
type = Stem;
},
{
place = (30,475);
type = Stem;
}
);
layerId = m01;
shapes = (
{
closed = 1;
nodes = (
(44,587,l),
(150,587,o),
(255,587,o),
(361,587,c),
(38,108,ls),
(25,88,o),
(19,70,o),
(19,46,cs),
(19,0,l),
(489,0,l),
(489,80,l),
(372,80,o),
(256,80,o),
(139,80,c),
(494,617,ls),
(508,638,o),
(507,667,o),
(482,667,cs),
(44,667,l)
);
}
);
width = 522;
},
{
anchors = (
{
name = bottom;
pos = (267,0);
},
{
name = center;
pos = (267,334);
},
{
name = top;
pos = (267,667);
}
);
layerId = "481D16E4-1E98-4559-AE79-559AF135D401";
shapes = (
{
closed = 1;
nodes = (
(50,627,l),
(186,627,o),
(311,627,o),
(447,627,c),
(35,54,ls),
(28,44,o),
(25,35,o),
(25,23,cs),
(25,0,l),
(495,0,l),
(495,40,l),
(358,40,o),
(222,40,o),
(85,40,c),
(500,627,ls),
(514,647,o),
(512,667,o),
(487,667,cs),
(50,667,l)
);
}
);
width = 534;
},
{
anchors = (
{
name = bottom;
pos = (297,0);
},
{
name = center;
pos = (297,334);
},
{
name = top;
pos = (297,667);
}
);
layerId = "05E54F0F-8425-4B5B-B0EB-B578BBC85A7B";
shapes = (
{
closed = 1;
nodes = (
(37,517,l),
(122,517,o),
(206,517,o),
(291,517,c),
(54,205,ls),
(24,166,o),
(12,130,o),
(12,81,cs),
(12,0,l),
(557,0,l),
(557,150,l),
(461,150,o),
(365,150,o),
(269,150,c),
(562,547,ls),
(592,587,o),
(587,667,o),
(537,667,cs),
(37,667,l)
);
}
);
width = 594;
},
{
anchors = (
{
name = bottom;
pos = (265,0);
},
{
name = center;
pos = (265,334);
},
{
name = top;
pos = (265,667);
}
);
layerId = m004;
shapes = (
{
closed = 1;
nodes = (
(48,637,ls),
(48,612,o),
(180,637,o),
(445,637,c),
(30,40,ls),
(25,33,o),
(23,25,o),
(23,17,cs),
(23,0,l),
(493,0,l),
(493,30,ls),
(493,55,o),
(356,30,o),
(83,30,c),
(498,637,ls),
(512,658,o),
(510,667,o),
(485,667,cs),
(48,667,l)
);
}
);
width = 530;
},
{
anchors = (
{
name = bottom;
pos = (257,0);
},
{
name = center;
pos = (257,334);
},
{
name = top;
pos = (257,667);
}
);
hints = (
{
horizontal = 1;
place = (0,85);
type = Stem;
},
{
horizontal = 1;
place = (587,80);
type = Stem;
},
{
place = (30,475);
type = Stem;
}
);
layerId = m005;
shapes = (
{
closed = 1;
nodes = (
(40,617,ls),
(40,557,o),
(149,617,o),
(387,617,c),
(29,70,ls),
(20,57,o),
(15,42,o),
(15,26,cs),
(15,0,l),
(485,0,l),
(485,50,ls),
(485,100,o),
(372,50,o),
(125,50,c),
(490,627,ls),
(503,648,o),
(502,667,o),
(477,667,cs),
(40,667,l)
);
}
);
width = 513;
},
{
anchors = (
{
name = bottom;
pos = (292,0);
},
{
name = center;
pos = (292,334);
},
{
name = top;
pos = (292,667);
}
);
layerId = m006;
shapes = (
{
closed = 1;
nodes = (
(33,577,ls),
(33,487,o),
(128,577,o),
(317,577,c),
(44,147,ls),
(18,106,o),
(8,71,o),
(8,23,cs),
(8,0,l),
(553,0,l),
(553,90,ls),
(553,180,o),
(447,90,o),
(235,90,c),
(558,607,ls),
(584,649,o),
(583,667,o),
(533,667,cs),
(33,667,l)
);
}
);
width = 583;
}
);
metricLeft = "=H/4";
metricRight = "=H/4";
note = Z;
unicode = 90;
userData = {
KernOnName = Z;
};
}
{
export = 0;
glyphname = asciicircum;
kernRight = KO_asciicircum;
layers = (
{
hints = (
{
horizontal = 1;
place = (500,300);
type = Stem;
},
{
place = (80,351);
type = Stem;
}
);
layerId = m01;
shapes = (
{
closed = 1;
nodes = (
(221,800,l),
(80,500,l),
(150,500,l),
(255,720,l),
(360,500,l),
(431,500,l),
(290,800,l)
);
}
);
width = 511;
},
{
layerId = "481D16E4-1E98-4559-AE79-559AF135D401";
width = 600;
},
{
layerId = "05E54F0F-8425-4B5B-B0EB-B578BBC85A7B";
width = 600;
},
{
layerId = m004;
width = 600;
},
{
hints = (
{
horizontal = 1;
place = (500,300);
type = Stem;
},
{
place = (80,351);
type = Stem;
}
);
layerId = m005;
shapes = (
{
closed = 1;
nodes = (
(221,800,l),
(80,500,l),
(150,500,l),
(255,720,l),
(360,500,l),
(431,500,l),
(290,800,l)
);
}
);
width = 511;
},
{
layerId = m006;
width = 600;
},
{
associatedMasterId = "481D16E4-1E98-4559-AE79-559AF135D401";
layerId = "3EF2FCCD-CB93-4CD0-83B9-CF96778F0091";
width = 603.38052;
}
);
note = asciicircum;
unicode = 94;
userData = {
KernOnSpecialSpacing = {
L = math;
R = math;
};
};
}
{
glyphname = a;
kernLeft = KO_a;
kernRight = KO_a;
layers = (
{
anchors = (
{
name = bottom;
pos = (225,0);
},
{
name = ogonek;
pos = (390,0);
},
{
name = top;
pos = (225,500);
}
);
hints = (
{
horizontal = 1;
place = (-10,80);
type = Stem;
},
{
horizontal = 1;
place = (250,60);
type = Stem;
},
{
horizontal = 1;
place = (435,75);
type = Stem;
},
{
place = (30,90);
type = Stem;
},
{
place = (300,95);
type = Stem;
},
{
horizontal = 1;
place = (0,21);
target = up;
type = BottomGhost;
}
);
layerId = m01;
shapes = (
{
closed = 1;
nodes = (
(239,-10,o),
(285,55,o),
(300,55,cs),
(315,55,o),
(320,30,o),
(320,0,c),
(390,0,l),
(390,275,ls),
(390,405,o),
(375,510,o),
(225,510,cs),
(140,510,o),
(73,475,o),
(73,475,c),
(80,453,o),
(88,427,o),
(95,405,c),
(95,405,o),
(140,435,o),
(210,435,cs),
(290,435,o),
(290,405,o),
(290,310,c),
(154,310,o),
(20,282,o),
(20,155,cs),
(20,59,o),
(35,-10,o),
(145,-10,cs)
);
},
{
closed = 1;
nodes = (
(125,65,o),
(110,99,o),
(110,155,cs),
(110,238,o),
(218,249,o),
(290,250,c),
(290,200,ls),
(290,132,o),
(232,65,o),
(175,65,cs)
);
}
);
width = 445;
},
{
anchors = (
{
name = bottom;
pos = (219,0);
},
{
name = ogonek;
pos = (364,0);
},
{
name = top;
pos = (219,500);
}
);
layerId = "481D16E4-1E98-4559-AE79-559AF135D401";
shapes = (
{
closed = 1;
nodes = (
(249,-10,o),
(299,70,o),
(314,70,cs),
(328,70,o),
(329,40,o),
(329,0,c),
(364,0,l),
(364,275,ls),
(364,422,o),
(351,510,o),
(219,510,cs),
(185,510,o),
(142,500,o),
(100,482,c),
(103,470,o),
(107,455,o),
(110,443,c),
(143,460,o),
(178,470,o),
(209,470,cs),
(288,470,o),
(314,429,o),
(314,300,c),
(171,303,o),
(34,276,o),
(34,155,cs),
(34,43,o),
(79,-10,o),
(154,-10,cs)
);
},
{
closed = 1;
nodes = (
(105,30,o),
(84,64,o),
(84,155,cs),
(84,262,o),
(251,266,o),
(314,265,c),
(314,182,ls),
(314,99,o),
(244,30,o),
(174,30,cs)
);
}
);
width = 464;
},
{
anchors = (
{
name = bottom;
pos = (267,0);
},
{
name = ogonek;
pos = (477,0);
},
{
name = top;
pos = (267,500);
}
);
layerId = "05E54F0F-8425-4B5B-B0EB-B578BBC85A7B";
shapes = (
{
closed = 1;
nodes = (
(247,-10,o),
(287,45,o),
(307,45,cs),
(317,45,o),
(322,26,o),
(322,0,c),
(477,0,l),
(477,275,ls),
(477,390,o),
(460,510,o),
(267,510,cs),
(142,510,o),
(61,460,o),
(61,460,c),
(72,425,o),
(84,385,o),
(95,350,c),
(95,350,o),
(167,385,o),
(217,385,cs),
(267,385,o),
(277,361,o),
(277,318,c),
(173,314,o),
(17,288,o),
(17,155,cs),
(17,43,o),
(57,-10,o),
(142,-10,cs)
);
},
{
closed = 1;
nodes = (
(194,115,o),
(187,141,o),
(187,155,cs),
(187,209,o),
(213,223,o),
(277,226,c),
(277,218,ls),
(277,173,o),
(258,115,o),
(217,115,cs)
);
}
);
width = 527;
},
{
anchors = (
{
name = bottom;
pos = (220,0);
},
{
name = ogonek;
pos = (360,0);
},
{
name = top;
pos = (220,500);
}
);
layerId = m004;
shapes = (
{
closed = 1;
nodes = (
(245,-10,o),
(295,70,o),
(310,70,cs),
(324,70,o),
(325,40,o),
(325,0,c),
(360,0,l),
(360,275,ls),
(360,422,o),
(347,510,o),
(215,510,cs),
(150,510,o),
(91,479,o),
(91,479,c),
(91,465,o),
(91,443,o),
(106,443,c),
(121,443,o),
(150,485,o),
(205,485,cs),
(317,485,o),
(310,397,o),
(310,295,c),
(167,298,o),
(30,276,o),
(30,155,cs),
(30,43,o),
(75,-10,o),
(150,-10,cs)
);
},
{
closed = 1;
nodes = (
(101,25,o),
(80,64,o),
(80,155,cs),
(80,267,o),
(247,274,o),
(310,273,c),
(310,182,ls),
(310,98,o),
(245,25,o),
(170,25,cs)
);
}
);
width = 450;
},
{
anchors = (
{
name = bottom;
pos = (225,0);
},
{
name = ogonek;
pos = (390,0);
},
{
name = top;
pos = (225,500);
}
);
hints = (
{
horizontal = 1;
place = (-10,80);
type = Stem;
},
{
horizontal = 1;
place = (250,60);
type = Stem;
},
{
horizontal = 1;
place = (435,75);
type = Stem;
},
{
place = (30,90);
type = Stem;
},
{
place = (300,95);
type = Stem;
},
{
horizontal = 1;
place = (0,21);
target = up;
type = BottomGhost;
}
);
layerId = m005;
shapes = (
{
closed = 1;
nodes = (
(239,-10,o),
(285,55,o),
(300,55,cs),
(315,55,o),
(320,30,o),
(320,0,c),
(390,0,l),
(390,275,ls),
(390,405,o),
(375,510,o),
(225,510,cs),
(140,510,o),
(73,475,o),
(73,475,c),
(73,453,o),
(73,405,o),
(95,405,c),
(120,405,o),
(140,460,o),
(210,460,cs),
(270,460,o),
(290,423,o),
(290,305,c),
(154,305,o),
(20,282,o),
(20,155,cs),
(20,59,o),
(35,-10,o),
(145,-10,cs)
);
},
{
closed = 1;
nodes = (
(125,45,o),
(110,92,o),
(110,155,cs),
(110,243,o),
(218,260,o),
(290,260,c),
(290,200,ls),
(290,100,o),
(250,45,o),
(175,45,cs)
);
}
);
width = 450;
},
{
anchors = (
{
name = bottom;
pos = (261,0);
},
{
name = ogonek;
pos = (470,0);
},
{
name = top;
pos = (261,500);
}
);
layerId = m006;
shapes = (
{
closed = 1;
nodes = (
(240,-10,o),
(280,45,o),
(300,45,cs),
(310,45,o),
(315,26,o),
(315,0,c),
(470,0,l),
(470,275,ls),
(470,390,o),
(453,510,o),
(260,510,cs),
(135,510,o),
(54,460,o),
(54,460,c),
(54,460,o),
(30,350,o),
(88,350,c),
(146,350,o),
(160,435,o),
(210,435,cs),
(255,435,o),
(270,408,o),
(270,328,c),
(166,324,o),
(10,288,o),
(10,155,cs),
(10,43,o),
(50,-10,o),
(135,-10,cs)
);
},
{
closed = 1;
nodes = (
(188,80,o),
(180,99,o),
(180,155,cs),
(180,210,o),
(219,254,o),
(270,256,c),
(270,218,ls),
(270,139,o),
(244,80,o),
(210,80,cs)
);
}
);
width = 500;
}
);
metricLeft = "=o/2";
metricRight = "=n";
note = a;
unicode = 97;
userData = {
KernOnName = a;
};
}
{
glyphname = g;
kernLeft = KO_g;
kernRight = KO_g;
layers = (
{
anchors = (
{
name = bottom;
pos = (230,-200);
},
{
name = top;
pos = (230,500);
}
);
hints = (
{
horizontal = 1;
place = (-210,70);
type = Stem;
},
{
horizontal = 1;
place = (0,21);
target = up;
type = BottomGhost;
},
{
horizontal = 1;
place = (160,70);
type = Stem;
},
{
horizontal = 1;
place = (440,49.76);
type = Stem;
},
{
place = (40,95);
type = Stem;
},
{
place = (345,95);
type = Stem;
},
{
place = (60,75);
type = Stem;
},
{
place = (315,95);
type = Stem;
}
);
layerId = m01;
shapes = (
{
closed = 1;
nodes = (
(40,223,o),
(108,160,o),
(230,160,cs),
(352,160,o),
(420,223,o),
(420,335,cs),
(420,372,o),
(407,408,o),
(381,440,c),
(455,440,l),
(455,440,o),
(455,500,o),
(455,500,c),
(370,472,o),
(313,510,o),
(230,510,cs),
(108,510,o),
(40,448,o),
(40,335,cs)
);
},
{
closed = 1;
nodes = (
(172,230,o),
(140,268,o),
(140,335,cs),
(140,403,o),
(172,440,o),
(230,440,cs),
(288,440,o),
(320,403,o),
(320,335,cs),
(320,268,o),
(288,230,o),
(230,230,cs)
);
},
{
closed = 1;
nodes = (
(363,-210,o),
(445,-140,o),
(445,-40,cs),
(445,50,o),
(391,85,o),
(230,75,cs),
(163,71,o),
(140,75,o),
(140,120,cs),
(140,140,o),
(147,156,o),
(156,171,cs),
(172,197,o),
(163,274,o),
(109,194,c),
(110,194,o),
(75,150,o),
(75,105,cs),
(75,30,o),
(119,0,o),
(230,0,cs),
(320,0,o),
(350,-10,o),
(350,-40,cs),
(350,-80,o),
(332,-135,o),
(230,-135,c),
(230,-210,l)
);
},
{
closed = 1;
nodes = (
(230,-135,l),
(145,-135,o),
(100,-105,o),
(100,-105,c),
(93,-128,o),
(85,-152,o),
(78,-175,c),
(78,-175,o),
(145,-210,o),
(230,-210,c)
);
}
);
width = 495;
},
{
anchors = (
{
name = bottom;
pos = (228,-200);
},
{
name = top;
pos = (228,500);
}
);
layerId = "481D16E4-1E98-4559-AE79-559AF135D401";
shapes = (
{
closed = 1;
nodes = (
(67,263,o),
(125,196,o),
(227,196,cs),
(329,196,o),
(387,263,o),
(387,353,cs),
(387,401,o),
(362,443,o),
(351,457,c),
(427,457,l),
(427,457,o),
(427,492,o),
(427,492,c),
(348,478,o),
(292,510,o),
(227,510,cs),
(124,510,o),
(67,445,o),
(67,353,cs)
);
},
{
closed = 1;
nodes = (
(156,236,o),
(117,290,o),
(117,353,cs),
(117,416,o),
(156,470,o),
(227,470,cs),
(298,470,o),
(337,416,o),
(337,353,cs),
(337,290,o),
(298,236,o),
(227,236,cs)
);
},
{
closed = 1;
nodes = (
(349,-210,o),
(417,-152,o),
(417,-58,cs),
(417,34,o),
(386,64,o),
(228,55,cs),
(145,50,o),
(122,75,o),
(122,120,cs),
(122,140,o),
(142,188,o),
(162,214,cs),
(172,227,o),
(158,254,o),
(139,227,cs),
(120,200,o),
(87,145,o),
(87,105,cs),
(87,40,o),
(137,8,o),
(227,15,cs),
(336,23,o),
(367,3,o),
(367,-58,cs),
(367,-102,o),
(349,-170,o),
(227,-170,c),
(227,-210,l)
);
},
{
closed = 1;
nodes = (
(227,-170,l),
(186,-170,o),
(151,-160,o),
(118,-143,c),
(115,-156,o),
(111,-169,o),
(108,-182,c),
(150,-200,o),
(193,-210,o),
(227,-210,c)
);
}
);
width = 487;
},
{
anchors = (
{
name = bottom;
pos = (270,-200);
},
{
name = top;
pos = (270,500);
}
);
layerId = "05E54F0F-8425-4B5B-B0EB-B578BBC85A7B";
shapes = (
{
closed = 1;
nodes = (
(33,187,o),
(118,115,o),
(270,115,cs),
(422,115,o),
(507,187,o),
(507,317,cs),
(507,343,o),
(501,366,o),
(488,395,c),
(558,395,l),
(558,395,o),
(558,500,o),
(558,500,c),
(417,451,o),
(434,519,o),
(270,519,cs),
(118,519,o),
(33,447,o),
(33,317,cs)
);
},
{
closed = 1;
nodes = (
(242,240,o),
(233,259,o),
(233,317,cs),
(233,375,o),
(242,394,o),
(270,394,cs),
(298,394,o),
(307,375,o),
(307,317,cs),
(307,259,o),
(298,240,o),
(270,240,cs)
);
},
{
closed = 1;
nodes = (
(432,-215,o),
(537,-151,o),
(537,-58,cs),
(537,61,o),
(462,101,o),
(267,89,cs),
(203,86,o),
(182,90,o),
(182,105,cs),
(182,118,o),
(189,123,o),
(190,127,c),
(238,241,o),
(186,302,o),
(97,171,cs),
(77,141,o),
(65,106,o),
(65,80,cs),
(65,50,o),
(59,-26,o),
(270,-26,cs),
(321,-26,o),
(338,-40,o),
(338,-58,cs),
(338,-86,o),
(321,-90,o),
(270,-90,c),
(270,-215,l)
);
},
{
closed = 1;
nodes = (
(270,-90,l),
(170,-90,o),
(98,-55,o),
(98,-55,c),
(87,-92,o),
(75,-128,o),
(64,-165,c),
(64,-165,o),
(145,-215,o),
(270,-215,c)
);
}
);
width = 558;
},
{
anchors = (
{
name = bottom;
pos = (220,-200);
},
{
name = top;
pos = (220,500);
}
);
layerId = m004;
shapes = (
{
closed = 1;
nodes = (
(60,263,o),
(118,196,o),
(220,196,cs),
(322,196,o),
(380,263,o),
(380,353,cs),
(380,401,o),
(355,446,o),
(334,470,c),
(420,470,l),
(445,470,o),
(444,501,o),
(420,495,cs),
(341,474,o),
(285,510,o),
(220,510,cs),
(117,510,o),
(60,445,o),
(60,353,cs)
);
},
{
closed = 1;
nodes = (
(149,221,o),
(110,268,o),
(110,353,cs),
(110,438,o),
(149,485,o),
(220,485,cs),
(291,485,o),
(330,438,o),
(330,353,cs),
(330,268,o),
(291,221,o),
(220,221,cs)
);
},
{
closed = 1;
nodes = (
(342,-210,o),
(410,-152,o),
(410,-58,cs),
(410,34,o),
(379,64,o),
(221,55,cs),
(138,50,o),
(115,75,o),
(115,120,cs),
(115,140,o),
(135,188,o),
(155,214,cs),
(165,227,o),
(154,243,o),
(142,227,cs),
(123,200,o),
(80,145,o),
(80,105,cs),
(80,40,o),
(130,8,o),
(220,15,cs),
(329,23,o),
(360,3,o),
(360,-58,cs),
(360,-140,o),
(310,-185,o),
(220,-185,c),
(220,-210,l)
);
},
{
closed = 1;
nodes = (
(220,-185,l),
(169,-185,o),
(136,-143,o),
(111,-143,c),
(86,-143,o),
(101,-182,o),
(101,-182,c),
(143,-200,o),
(186,-210,o),
(220,-210,c)
);
}
);
width = 490;
},
{
anchors = (
{
name = bottom;
pos = (230,-200);
},
{
name = top;
pos = (230,500);
}
);
hints = (
{
horizontal = 1;
place = (-210,70);
type = Stem;
},
{
horizontal = 1;
place = (0,21);
target = up;
type = BottomGhost;
},
{
horizontal = 1;
place = (160,70);
type = Stem;
},
{
horizontal = 1;
place = (440,49.76);
type = Stem;
},
{
place = (40,95);
type = Stem;
},
{
place = (345,95);
type = Stem;
},
{
place = (60,75);
type = Stem;
},
{
place = (315,95);
type = Stem;
}
);
layerId = m005;
shapes = (
{
closed = 1;
nodes = (
(40,223,o),
(108,160,o),
(230,160,cs),
(352,160,o),
(420,223,o),
(420,335,cs),
(420,372,o),
(407,408,o),
(376,450,c),
(455,450,l),
(505,450,o),
(495,513,o),
(455,500,cs),
(370,472,o),
(313,510,o),
(230,510,cs),
(108,510,o),
(40,448,o),
(40,335,cs)
);
},
{
closed = 1;
nodes = (
(172,210,o),
(140,255,o),
(140,335,cs),
(140,415,o),
(172,460,o),
(230,460,cs),
(288,460,o),
(320,415,o),
(320,335,cs),
(320,255,o),
(288,210,o),
(230,210,cs)
);
},
{
closed = 1;
nodes = (
(363,-210,o),
(445,-140,o),
(445,-40,cs),
(445,50,o),
(391,85,o),
(230,75,cs),
(163,71,o),
(140,75,o),
(140,120,cs),
(140,140,o),
(147,156,o),
(156,171,cs),
(172,197,o),
(178,274,o),
(124,194,c),
(125,194,o),
(75,150,o),
(75,105,cs),
(75,30,o),
(119,0,o),
(230,0,cs),
(320,0,o),
(350,-10,o),
(350,-40,cs),
(350,-114,o),
(307,-160,o),
(230,-160,c),
(230,-210,l)
);
},
{
closed = 1;
nodes = (
(230,-160,l),
(153,-160,o),
(150,-105,o),
(100,-105,cs),
(50,-105,o),
(78,-175,o),
(78,-175,c),
(78,-175,o),
(145,-210,o),
(230,-210,c)
);
}
);
width = 514;
},
{
anchors = (
{
name = bottom;
pos = (257,-200);
},
{
name = top;
pos = (257,500);
}
);
layerId = m006;
shapes = (
{
closed = 1;
nodes = (
(20,187,o),
(105,115,o),
(257,115,cs),
(409,115,o),
(494,187,o),
(494,317,cs),
(494,343,o),
(488,366,o),
(475,395,c),
(509,395,ls),
(609,395,o),
(576,550,o),
(509,510,cs),
(393,441,o),
(421,519,o),
(257,519,cs),
(105,519,o),
(20,447,o),
(20,317,cs)
);
},
{
closed = 1;
nodes = (
(229,190,o),
(220,209,o),
(220,317,cs),
(220,425,o),
(229,444,o),
(257,444,cs),
(285,444,o),
(294,425,o),
(294,317,cs),
(294,209,o),
(285,190,o),
(257,190,cs)
);
},
{
closed = 1;
nodes = (
(419,-215,o),
(525,-151,o),
(525,-58,cs),
(525,61,o),
(449,101,o),
(254,89,cs),
(190,86,o),
(169,90,o),
(169,105,cs),
(169,118,o),
(176,123,o),
(177,127,c),
(225,241,o),
(148,226,o),
(104,171,cs),
(104,171,o),
(52,115,o),
(52,80,cs),
(52,45,o),
(46,-26,o),
(257,-26,cs),
(308,-26,o),
(325,-38,o),
(325,-73,cs),
(325,-113,o),
(307,-140,o),
(257,-140,c),
(257,-215,l)
);
},
{
closed = 1;
nodes = (
(257,-140,l),
(190,-142,o),
(185,-55,o),
(85,-55,cs),
(10,-55,o),
(51,-165,o),
(51,-165,c),
(51,-165,o),
(132,-215,o),
(257,-215,c)
);
}
);
width = 545;
}
);
metricLeft = "=o";
note = g;
unicode = 103;
userData = {
KernOnName = g;
};
}
{
glyphname = i;
kernLeft = KO_i;
kernRight = KO_i;
layers = (
{
anchors = (
{
name = bottom;
pos = (120,0);
},
{
name = ogonek;
pos = (170,0);
}
);
hints = (
{
horizontal = 1;
place = (0,21);
target = up;
type = BottomGhost;
},
{
horizontal = 1;
place = (585,120);
type = Stem;
},
{
place = (48,120);
type = Stem;
},
{
place = (60,95);
type = Stem;
}
);
layerId = m01;
shapes = (
{
closed = 1;
nodes = (
(170,0,l),
(170,500,l),
(70,500,l),
(70,0,l)
);
},
{
closed = 1;
nodes = (
(153,590,o),
(180,617,o),
(180,650,cs),
(180,683,o),
(153,710,o),
(120,710,cs),
(87,710,o),
(60,683,o),
(60,650,cs),
(60,617,o),
(87,590,o),
(120,590,cs)
);
}
);
width = 240;
},
{
anchors = (
{
name = bottom;
pos = (125,0);
},
{
name = ogonek;
pos = (150,0);
}
);
layerId = "481D16E4-1E98-4559-AE79-559AF135D401";
shapes = (
{
closed = 1;
nodes = (
(150,0,l),
(150,500,l),
(100,500,l),
(100,0,l)
);
},
{
closed = 1;
nodes = (
(144,640,o),
(160,656,o),
(160,675,cs),
(160,694,o),
(144,710,o),
(125,710,cs),
(106,710,o),
(90,694,o),
(90,675,cs),
(90,656,o),
(106,640,o),
(125,640,cs)
);
}
);
width = 250;
},
{
anchors = (
{
name = bottom;
pos = (150,0);
},
{
name = ogonek;
pos = (250,0);
}
);
layerId = "05E54F0F-8425-4B5B-B0EB-B578BBC85A7B";
shapes = (
{
closed = 1;
nodes = (
(250,0,l),
(250,500,l),
(50,500,l),
(50,0,l)
);
},
{
closed = 1;
nodes = (
(212,515,o),
(260,559,o),
(260,615,cs),
(260,671,o),
(212,715,o),
(150,715,cs),
(88,715,o),
(40,671,o),
(40,615,cs),
(40,559,o),
(88,515,o),
(150,515,cs)
);
}
);
width = 300;
},
{
anchors = (
{
name = bottom;
pos = (110,0);
},
{
name = ogonek;
pos = (135,0);
}
);
layerId = m004;
shapes = (
{
closed = 1;
nodes = (
(135,0,l),
(135,500,l),
(85,500,l),
(85,0,l)
);
},
{
closed = 1;
nodes = (
(129,640,o),
(145,656,o),
(145,675,cs),
(145,694,o),
(129,710,o),
(110,710,cs),
(91,710,o),
(75,694,o),
(75,675,cs),
(75,656,o),
(91,640,o),
(110,640,cs)
);
}
);
width = 220;
},
{
anchors = (
{
name = bottom;
pos = (110,0);
},
{
name = ogonek;
pos = (160,0);
}
);
hints = (
{
horizontal = 1;
place = (0,21);
target = up;
type = BottomGhost;
},
{
horizontal = 1;
place = (585,120);
type = Stem;
},
{
place = (48,120);
type = Stem;
},
{
place = (60,95);
type = Stem;
}
);
layerId = m005;
shapes = (
{
closed = 1;
nodes = (
(160,0,l),
(160,500,l),
(60,500,l),
(60,0,l)
);
},
{
closed = 1;
nodes = (
(143,590,o),
(170,617,o),
(170,650,cs),
(170,683,o),
(143,710,o),
(110,710,cs),
(77,710,o),
(50,683,o),
(50,650,cs),
(50,617,o),
(77,590,o),
(110,590,cs)
);
}
);
width = 220;
},
{
anchors = (
{
name = bottom;
pos = (125,0);
},
{
name = ogonek;
pos = (225,0);
}
);
layerId = m006;
shapes = (
{
closed = 1;
nodes = (
(225,0,l),
(225,500,l),
(25,500,l),
(25,0,l)
);
},
{
closed = 1;
nodes = (
(187,515,o),
(235,559,o),
(235,615,cs),
(235,671,o),
(187,715,o),
(125,715,cs),
(63,715,o),
(15,671,o),
(15,615,cs),
(15,559,o),
(63,515,o),
(125,515,cs)
);
}
);
width = 250;
}
);
note = i;
unicode = 105;
userData = {
KernOnName = i;
};
}
{
glyphname = j;
kernLeft = KO_i;
kernRight = KO_j;
layers = (
{
hints = (
{
horizontal = 1;
place = (585,120);
type = Stem;
},
{
place = (48,120);
type = Stem;
}
);
layerId = m01;
shapes = (
{
closed = 1;
nodes = (
(163,-211,o),
(174,-110,o),
(174,0,c),
(174,500,l),
(74,500,l),
(75,0,l),
(75,-90,o),
(75,-130,o),
(20,-130,cs),
(10,-130,o),
(0,-130,o),
(-10,-130,c),
(-10,-153,o),
(-10,-177,o),
(-10,-200,c),
(0,-201,o),
(10,-201,o),
(20,-202,cs)
);
},
{
closed = 1;
nodes = (
(157,590,o),
(184,617,o),
(184,650,cs),
(184,683,o),
(157,710,o),
(124,710,cs),
(91,710,o),
(64,683,o),
(64,650,cs),
(64,617,o),
(91,590,o),
(124,590,cs)
);
}
);
width = 244;
},
{
layerId = "481D16E4-1E98-4559-AE79-559AF135D401";
shapes = (
{
closed = 1;
nodes = (
(135,-217,o),
(145,-125,o),
(145,0,c),
(145,500,l),
(99,500,l),
(100,0,l),
(100,-114,o),
(95,-160,o),
(20,-160,cs),
(18,-160,o),
(17,-160,o),
(15,-160,c),
(15,-173,o),
(15,-187,o),
(15,-200,c),
(17,-200,o),
(20,-201,o),
(22,-201,cs)
);
},
{
closed = 1;
nodes = (
(145,640,o),
(159,654,o),
(159,675,cs),
(159,696,o),
(145,710,o),
(124,710,cs),
(103,710,o),
(89,696,o),
(89,675,cs),
(89,654,o),
(103,640,o),
(124,640,cs)
);
}
);
width = 249;
},
{
layerId = "05E54F0F-8425-4B5B-B0EB-B578BBC85A7B";
shapes = (
{
closed = 1;
nodes = (
(177,-214,o),
(250,-141,o),
(250,0,cs),
(250,500,l),
(50,500,l),
(50,0,ls),
(50,-53,o),
(49,-75,o),
(20,-75,cs),
(10,-75,o),
(0,-75,o),
(-10,-75,c),
(-10,-117,o),
(-10,-158,o),
(-10,-200,c),
(8,-201,o),
(26,-203,o),
(44,-204,cs)
);
},
{
closed = 1;
nodes = (
(212,515,o),
(260,559,o),
(260,615,cs),
(260,671,o),
(212,715,o),
(150,715,cs),
(88,715,o),
(40,671,o),
(40,615,cs),
(40,559,o),
(88,515,o),
(150,515,cs)
);
}
);
width = 300;
},
{
layerId = m004;
shapes = (
{
closed = 1;
nodes = (
(120,-210,o),
(131,-125,o),
(131,0,c),
(131,500,l),
(85,500,l),
(86,0,l),
(86,-135,o),
(81,-183,o),
(6,-183,cs),
(-29,-183,o),
(-14,-140,o),
(-29,-140,c),
(-44,-140,o),
(-54,-167,o),
(-54,-190,c),
(-54,-190,o),
(-31,-210,o),
(6,-210,cs)
);
},
{
closed = 1;
nodes = (
(131,640,o),
(145,654,o),
(145,675,cs),
(145,696,o),
(131,710,o),
(110,710,cs),
(89,710,o),
(75,696,o),
(75,675,cs),
(75,654,o),
(89,640,o),
(110,640,cs)
);
}
);
width = 220;
},
{
hints = (
{
horizontal = 1;
place = (585,120);
type = Stem;
},
{
place = (48,120);
type = Stem;
}
);
layerId = m005;
shapes = (
{
closed = 1;
nodes = (
(162,-210,o),
(161,-110,o),
(161,0,c),
(161,500,l),
(61,500,l),
(61,0,l),
(61,-100,o),
(61,-160,o),
(6,-160,c),
(-49,-160,o),
(-24,-110,o),
(-54,-110,cs),
(-69,-110,o),
(-94,-127,o),
(-94,-190,c),
(-94,-190,o),
(-54,-210,o),
(26,-210,cs)
);
},
{
closed = 1;
nodes = (
(142,590,o),
(169,617,o),
(169,650,cs),
(169,683,o),
(142,710,o),
(109,710,cs),
(76,710,o),
(49,683,o),
(49,650,cs),
(49,617,o),
(76,590,o),
(109,590,cs)
);
}
);
width = 219;
},
{
layerId = m006;
shapes = (
{
closed = 1;
nodes = (
(163,-215,o),
(225,-146,o),
(225,0,c),
(225,500,l),
(25,500,l),
(26,0,l),
(26,-68,o),
(17,-140,o),
(-10,-140,cs),
(-60,-140,o),
(-32,-50,o),
(-82,-50,cs),
(-120,-50,o),
(-157,-115,o),
(-157,-180,c),
(-113,-203,o),
(-46,-215,o),
(33,-215,cs)
);
},
{
closed = 1;
nodes = (
(187,515,o),
(235,559,o),
(235,615,cs),
(235,671,o),
(187,715,o),
(125,715,cs),
(63,715,o),
(15,671,o),
(15,615,cs),
(15,559,o),
(63,515,o),
(125,515,cs)
);
}
);
width = 250;
}
);
metricRight = "=i";
note = j;
unicode = 106;
userData = {
KernOnName = j;
};
}
{
glyphname = k;
kernLeft = KO_h;
kernRight = KO_k;
layers = (
{
anchors = (
{
name = bottom;
pos = (245,0);
},
{
name = top;
pos = (245,700);
}
);
hints = (
{
horizontal = 1;
place = (0,21);
target = up;
type = BottomGhost;
},
{
place = (60,95);
type = Stem;
},
{
place = (330,95);
type = Stem;
}
);
layerId = m01;
shapes = (
{
closed = 1;
nodes = (
(170,0,l),
(170,150,l),
(243,240,l),
(318,211,o),
(360,100,o),
(360,0,c),
(460,0,l),
(460,120,o),
(395,263,o),
(291,299,c),
(455,500,l),
(355,500,l),
(170,265,l),
(170,710,l),
(70,700,l),
(70,0,l)
);
}
);
width = 490;
},
{
anchors = (
{
name = bottom;
pos = (238,0);
},
{
name = top;
pos = (238,700);
}
);
layerId = "481D16E4-1E98-4559-AE79-559AF135D401";
shapes = (
{
closed = 1;
nodes = (
(145,0,l),
(145,154,l),
(242,274,l),
(339,234,o),
(379,128,o),
(385,0,c),
(430,0,l),
(423,163,o),
(362,258,o),
(262,298,c),
(427,500,l),
(374,500,l),
(145,207,l),
(145,705,l),
(100,700,l),
(100,0,l)
);
}
);
width = 475;
},
{
anchors = (
{
name = bottom;
pos = (270,0);
},
{
name = top;
pos = (270,700);
}
);
layerId = "05E54F0F-8425-4B5B-B0EB-B578BBC85A7B";
shapes = (
{
closed = 1;
nodes = (
(251,0,l),
(250,153,l),
(281,191,l),
(321,145,o),
(340,83,o),
(340,0,c),
(540,0,l),
(540,124,o),
(466,253,o),
(373,303,c),
(532,500,l),
(336,500,l),
(250,380,l),
(250,718,l),
(50,698,l),
(51,0,l)
);
}
);
width = 540;
},
{
anchors = (
{
name = bottom;
pos = (233,0);
},
{
name = top;
pos = (233,700);
}
);
layerId = m004;
shapes = (
{
closed = 1;
nodes = (
(135,0,l),
(135,154,l),
(232,274,l),
(329,234,o),
(369,128,o),
(375,0,c),
(420,0,l),
(413,163,o),
(352,258,o),
(252,298,c),
(417,500,l),
(364,500,l),
(135,197,l),
(135,705,l),
(90,700,l),
(90,0,l)
);
}
);
width = 465;
},
{
anchors = (
{
name = bottom;
pos = (240,0);
},
{
name = top;
pos = (240,700);
}
);
hints = (
{
horizontal = 1;
place = (0,21);
target = up;
type = BottomGhost;
},
{
place = (60,95);
type = Stem;
},
{
place = (330,95);
type = Stem;
}
);
layerId = m005;
shapes = (
{
closed = 1;
nodes = (
(160,0,l),
(160,150,l),
(233,240,l),
(308,211,o),
(350,100,o),
(350,0,c),
(450,0,l),
(450,120,o),
(385,263,o),
(281,299,c),
(445,500,l),
(355,500,l),
(160,255,l),
(160,710,l),
(60,700,l),
(60,0,l)
);
}
);
width = 480;
},
{
anchors = (
{
name = bottom;
pos = (260,0);
},
{
name = top;
pos = (260,700);
}
);
layerId = m006;
shapes = (
{
closed = 1;
nodes = (
(231,0,l),
(230,153,l),
(261,191,l),
(301,145,o),
(320,83,o),
(320,0,c),
(520,0,l),
(520,124,o),
(446,253,o),
(353,303,c),
(512,500,l),
(336,500,l),
(230,360,l),
(230,718,l),
(30,698,l),
(31,0,l)
);
}
);
width = 520;
}
);
metricLeft = "=n";
metricRight = "=v";
note = k;
unicode = 107;
userData = {
KernOnName = k;
};
}
{
glyphname = n;
kernLeft = KO_r;
kernRight = KO_a;
layers = (
{
anchors = (
{
name = bottom;
pos = (258,0);
},
{
name = top;
pos = (258,500);
}
);
hints = (
{
horizontal = 1;
place = (0,21);
target = up;
type = BottomGhost;
},
{
horizontal = 1;
place = (435,75);
type = Stem;
},
{
place = (60,95);
type = Stem;
},
{
place = (345,100);
type = Stem;
}
);
layerId = m01;
shapes = (
{
closed = 1;
nodes = (
(70,0,l),
(170,0,l),
(170,300,ls),
(170,368,o),
(228,435,o),
(285,435,cs),
(341,435,o),
(360,401,o),
(360,300,cs),
(360,0,l),
(460,0,l),
(460,300,ls),
(460,450,o),
(417,510,o),
(310,510,cs),
(221,510,o),
(175,445,o),
(160,445,cs),
(145,445,o),
(140,469,o),
(140,500,c),
(70,500,l)
);
}
);
width = 515;
},
{
anchors = (
{
name = bottom;
pos = (270,0);
},
{
name = top;
pos = (270,500);
}
);
layerId = "481D16E4-1E98-4559-AE79-559AF135D401";
shapes = (
{
closed = 1;
nodes = (
(100,0,l),
(150,0,l),
(150,318,ls),
(150,406,o),
(220,470,o),
(290,470,cs),
(365,470,o),
(390,432,o),
(390,318,cs),
(390,0,l),
(440,0,l),
(440,318,ls),
(440,455,o),
(403,510,o),
(310,510,cs),
(215,510,o),
(165,430,o),
(150,430,cs),
(135,430,o),
(135,460,o),
(135,500,c),
(100,500,l)
);
}
);
width = 540;
},
{
anchors = (
{
name = bottom;
pos = (295,0);
},
{
name = top;
pos = (295,500);
}
);
layerId = "05E54F0F-8425-4B5B-B0EB-B578BBC85A7B";
shapes = (
{
closed = 1;
nodes = (
(50,0,l),
(250,0,l),
(250,282,ls),
(250,352,o),
(269,385,o),
(310,385,cs),
(333,385,o),
(340,359,o),
(340,282,cs),
(340,0,l),
(540,0,l),
(540,282,ls),
(540,445,o),
(496,510,o),
(385,510,cs),
(280,510,o),
(240,455,o),
(220,455,cs),
(210,455,o),
(205,474,o),
(205,500,c),
(50,500,l)
);
}
);
width = 590;
},
{
anchors = (
{
name = bottom;
pos = (260,0);
},
{
name = top;
pos = (260,500);
}
);
layerId = m004;
shapes = (
{
closed = 1;
nodes = (
(90,0,l),
(140,0,l),
(140,318,ls),
(140,413,o),
(214,485,o),
(290,485,cs),
(365,485,o),
(380,443,o),
(380,318,cs),
(380,0,l),
(430,0,l),
(430,318,ls),
(430,455,o),
(393,510,o),
(300,510,cs),
(205,510,o),
(155,430,o),
(140,430,cs),
(129,430,o),
(125,445,o),
(125,500,c),
(90,500,l)
);
}
);
width = 520;
},
{
anchors = (
{
name = bottom;
pos = (255,0);
},
{
name = top;
pos = (255,500);
}
);
hints = (
{
horizontal = 1;
place = (0,21);
target = up;
type = BottomGhost;
},
{
horizontal = 1;
place = (435,75);
type = Stem;
},
{
place = (60,95);
type = Stem;
},
{
place = (345,100);
type = Stem;
}
);
layerId = m005;
shapes = (
{
closed = 1;
nodes = (
(60,0,l),
(160,0,l),
(160,300,ls),
(160,368,o),
(200,460,o),
(275,460,cs),
(350,460,o),
(350,401,o),
(350,300,cs),
(350,0,l),
(450,0,l),
(450,300,ls),
(450,450,o),
(407,510,o),
(300,510,cs),
(211,510,o),
(165,445,o),
(150,445,cs),
(135,445,o),
(130,469,o),
(130,500,c),
(60,500,l)
);
}
);
width = 510;
},
{
anchors = (
{
name = bottom;
pos = (275,0);
},
{
name = top;
pos = (275,500);
}
);
layerId = m006;
shapes = (
{
closed = 1;
nodes = (
(30,0,l),
(230,0,l),
(230,282,ls),
(230,386,o),
(249,435,o),
(290,435,cs),
(313,435,o),
(320,397,o),
(320,282,cs),
(320,0,l),
(520,0,l),
(520,282,ls),
(520,445,o),
(476,510,o),
(365,510,cs),
(260,510,o),
(220,455,o),
(200,455,cs),
(190,455,o),
(185,474,o),
(185,500,c),
(30,500,l)
);
}
);
width = 550;
}
);
note = n;
unicode = 110;
userData = {
KernOnName = n;
};
}
{
glyphname = v;
kernLeft = KO_v;
kernRight = KO_v;
layers = (
{
anchors = (
{
name = bottom;
pos = (235,0);
},
{
name = top;
pos = (235,500);
}
);
hints = (
{
horizontal = 1;
place = (0,21);
target = up;
type = BottomGhost;
},
{
place = (10,450);
type = Stem;
},
{
horizontal = 1;
place = (0,100);
type = Stem;
}
);
layerId = m01;
shapes = (
{
closed = 1;
nodes = (
(290,0,l),
(372,167,o),
(408,333,o),
(440,500,c),
(340,500,l),
(318,367,o),
(297,233,o),
(235,100,c),
(173,233,o),
(152,367,o),
(130,500,c),
(30,500,l),
(62,333,o),
(98,167,o),
(180,0,c)
);
}
);
width = 470;
},
{
anchors = (
{
name = bottom;
pos = (235,0);
},
{
name = top;
pos = (235,500);
}
);
layerId = "481D16E4-1E98-4559-AE79-559AF135D401";
shapes = (
{
closed = 1;
nodes = (
(267,0,l),
(348,167,o),
(394,333,o),
(425,500,c),
(370,500,l),
(348,347,o),
(307,193,o),
(235,40,c),
(163,193,o),
(122,347,o),
(100,500,c),
(45,500,l),
(76,333,o),
(122,167,o),
(203,0,c)
);
}
);
width = 470;
},
{
anchors = (
{
name = bottom;
pos = (265,0);
},
{
name = top;
pos = (265,500);
}
);
layerId = "05E54F0F-8425-4B5B-B0EB-B578BBC85A7B";
shapes = (
{
closed = 1;
nodes = (
(345,0,l),
(435,167,o),
(490,333,o),
(530,500,c),
(332,500,l),
(315,339,o),
(287,218,o),
(265,162,c),
(243,218,o),
(215,339,o),
(198,500,c),
(0,500,l),
(40,333,o),
(95,167,o),
(185,0,c)
);
}
);
width = 530;
},
{
anchors = (
{
name = bottom;
pos = (235,0);
},
{
name = top;
pos = (235,500);
}
);
layerId = m004;
shapes = (
{
closed = 1;
nodes = (
(267,0,l),
(348,167,o),
(394,333,o),
(425,500,c),
(370,500,l),
(348,347,o),
(307,193,o),
(235,25,c),
(163,193,o),
(122,347,o),
(100,500,c),
(45,500,l),
(76,333,o),
(122,167,o),
(203,0,c)
);
}
);
width = 470;
},
{
anchors = (
{
name = bottom;
pos = (235,0);
},
{
name = top;
pos = (235,500);
}
);
hints = (
{
horizontal = 1;
place = (0,21);
target = up;
type = BottomGhost;
},
{
place = (10,450);
type = Stem;
},
{
horizontal = 1;
place = (0,100);
type = Stem;
}
);
layerId = m005;
shapes = (
{
closed = 1;
nodes = (
(290,0,l),
(372,167,o),
(408,333,o),
(440,500,c),
(340,500,l),
(318,350,o),
(297,200,o),
(235,50,c),
(173,200,o),
(152,350,o),
(130,500,c),
(30,500,l),
(62,333,o),
(98,167,o),
(180,0,c)
);
}
);
width = 470;
},
{
anchors = (
{
name = bottom;
pos = (265,0);
},
{
name = top;
pos = (265,500);
}
);
layerId = m006;
shapes = (
{
closed = 1;
nodes = (
(345,0,l),
(435,167,o),
(490,333,o),
(530,500,c),
(332,500,l),
(315,298,o),
(287,147,o),
(265,77,c),
(243,147,o),
(215,298,o),
(198,500,c),
(0,500,l),
(40,333,o),
(95,167,o),
(185,0,c)
);
}
);
width = 530;
},
{
associatedMasterId = "481D16E4-1E98-4559-AE79-559AF135D401";
hints = (
{
horizontal = 1;
place = (0,21);
target = up;
type = BottomGhost;
},
{
place = (0,-17);
type = Stem;
},
{
horizontal = 1;
place = (0,-4);
type = Stem;
}
);
layerId = "3EF2FCCD-CB93-4CD0-83B9-CF96778F0091";
shapes = (
{
closed = 1;
nodes = (
(35,500,l),
(65,361,o),
(123,166,o),
(204,0,c),
(266,0,l),
(347,166,o),
(405,361,o),
(435,500,c),
(385,500,l),
(345,353,o),
(288,161,o),
(235,48,c),
(182,161,o),
(125,353,o),
(85,500,c)
);
}
);
width = 470.09739;
}
);
note = v;
unicode = 118;
userData = {
KernOnName = v;
};
}
{
glyphname = w;
kernLeft = KO_w;
kernRight = KO_w;
layers = (
{
anchors = (
{
name = bottom;
pos = (340,0);
},
{
name = top;
pos = (340,500);
}
);
hints = (
{
horizontal = 1;
place = (0,100);
type = Stem;
},
{
place = (30,620);
type = Stem;
}
);
layerId = m01;
shapes = (
{
closed = 1;
nodes = (
(265,0,l),
(322,167,o),
(333,333,o),
(365,500,c),
(290,500,l),
(268,367,o),
(247,233,o),
(210,100,c),
(173,233,o),
(152,367,o),
(130,500,c),
(30,500,l),
(62,333,o),
(98,167,o),
(155,0,c)
);
},
{
closed = 1;
nodes = (
(525,0,l),
(582,167,o),
(618,333,o),
(650,500,c),
(550,500,l),
(528,367,o),
(507,233,o),
(470,100,c),
(433,233,o),
(412,367,o),
(390,500,c),
(315,500,l),
(347,333,o),
(358,167,o),
(415,0,c)
);
}
);
width = 680;
},
{
anchors = (
{
name = bottom;
pos = (348,0);
},
{
name = top;
pos = (348,500);
}
);
layerId = "481D16E4-1E98-4559-AE79-559AF135D401";
shapes = (
{
closed = 1;
nodes = (
(242,0,l),
(298,167,o),
(331,333,o),
(362,500,c),
(320,500,l),
(298,347,o),
(257,193,o),
(210,40,c),
(163,193,o),
(122,347,o),
(100,500,c),
(45,500,l),
(76,333,o),
(122,167,o),
(178,0,c)
);
},
{
closed = 1;
nodes = (
(517,0,l),
(573,167,o),
(619,333,o),
(650,500,c),
(595,500,l),
(573,347,o),
(532,193,o),
(485,40,c),
(438,193,o),
(397,347,o),
(375,500,c),
(333,500,l),
(364,333,o),
(397,167,o),
(453,0,c)
);
}
);
width = 695;
},
{
anchors = (
{
name = bottom;
pos = (355,0);
},
{
name = top;
pos = (355,500);
}
);
layerId = "05E54F0F-8425-4B5B-B0EB-B578BBC85A7B";
shapes = (
{
closed = 1;
nodes = (
(299,0,l),
(364,167,o),
(368,333,o),
(408,500,c),
(270,500,l),
(263,339,o),
(226,218,o),
(229,162,c),
(232,218,o),
(197,339,o),
(190,500,c),
(0,500,l),
(40,333,o),
(74,167,o),
(139,0,c)
);
},
{
closed = 1;
nodes = (
(571,0,l),
(636,167,o),
(670,333,o),
(710,500,c),
(520,500,l),
(513,339,o),
(478,218,o),
(481,162,c),
(484,218,o),
(447,339,o),
(440,500,c),
(302,500,l),
(342,333,o),
(346,167,o),
(411,0,c)
);
}
);
width = 710;
},
{
anchors = (
{
name = bottom;
pos = (348,0);
},
{
name = top;
pos = (348,500);
}
);
layerId = m004;
shapes = (
{
closed = 1;
nodes = (
(242,0,l),
(298,167,o),
(331,333,o),
(362,500,c),
(320,500,l),
(298,347,o),
(257,193,o),
(210,25,c),
(163,193,o),
(122,347,o),
(100,500,c),
(45,500,l),
(76,333,o),
(122,167,o),
(178,0,c)
);
},
{
closed = 1;
nodes = (
(517,0,l),
(573,167,o),
(619,333,o),
(650,500,c),
(595,500,l),
(573,347,o),
(532,193,o),
(485,25,c),
(438,193,o),
(397,347,o),
(375,500,c),
(333,500,l),
(364,333,o),
(397,167,o),
(453,0,c)
);
}
);
width = 695;
},
{
anchors = (
{
name = bottom;
pos = (340,0);
},
{
name = top;
pos = (340,500);
}
);
hints = (
{
horizontal = 1;
place = (0,100);
type = Stem;
},
{
place = (30,620);
type = Stem;
}
);
layerId = m005;
shapes = (
{
closed = 1;
nodes = (
(265,0,l),
(322,167,o),
(333,333,o),
(365,500,c),
(290,500,l),
(268,350,o),
(247,200,o),
(210,50,c),
(173,200,o),
(152,350,o),
(130,500,c),
(30,500,l),
(62,333,o),
(98,167,o),
(155,0,c)
);
},
{
closed = 1;
nodes = (
(525,0,l),
(582,167,o),
(618,333,o),
(650,500,c),
(550,500,l),
(528,350,o),
(507,200,o),
(470,50,c),
(433,200,o),
(412,350,o),
(390,500,c),
(315,500,l),
(347,333,o),
(358,167,o),
(415,0,c)
);
}
);
width = 680;
},
{
anchors = (
{
name = bottom;
pos = (355,0);
},
{
name = top;
pos = (355,500);
}
);
layerId = m006;
shapes = (
{
closed = 1;
nodes = (
(299,0,l),
(364,167,o),
(368,333,o),
(408,500,c),
(270,500,l),
(263,298,o),
(226,147,o),
(229,77,c),
(232,147,o),
(197,298,o),
(190,500,c),
(0,500,l),
(40,333,o),
(74,167,o),
(139,0,c)
);
},
{
closed = 1;
nodes = (
(571,0,l),
(636,167,o),
(670,333,o),
(710,500,c),
(520,500,l),
(513,298,o),
(478,147,o),
(481,77,c),
(484,147,o),
(447,298,o),
(440,500,c),
(302,500,l),
(342,333,o),
(346,167,o),
(411,0,c)
);
}
);
width = 710;
},
{
associatedMasterId = "481D16E4-1E98-4559-AE79-559AF135D401";
layerId = "3EF2FCCD-CB93-4CD0-83B9-CF96778F0091";
width = 596.96133;
}
);
metricLeft = "=v";
metricRight = "=v";
note = w;
unicode = 119;
userData = {
KernOnName = w;
};
}
{
glyphname = x;
kernLeft = KO_x;
kernRight = KO_x;
layers = (
{
anchors = (
{
name = bottom;
pos = (235,0);
},
{
name = top;
pos = (235,500);
}
);
hints = (
{
horizontal = 1;
place = (0,21);
target = up;
type = BottomGhost;
},
{
place = (40,390);
type = Stem;
}
);
layerId = m01;
shapes = (
{
closed = 1;
nodes = (
(290,260,l),
(362,344,o),
(398,417,o),
(430,500,c),
(330,500,l),
(308,434,o),
(287,377,o),
(235,310,c),
(183,377,o),
(162,434,o),
(140,500,c),
(40,500,l),
(72,417,o),
(118,344,o),
(190,260,c)
);
},
{
closed = 1;
nodes = (
(118,176,o),
(62,83,o),
(30,0,c),
(130,0,l),
(152,66,o),
(183,133,o),
(235,200,c),
(287,133,o),
(318,66,o),
(340,0,c),
(440,0,l),
(408,83,o),
(362,176,o),
(290,260,c),
(190,260,l)
);
}
);
width = 470;
},
{
anchors = (
{
name = bottom;
pos = (235,0);
},
{
name = top;
pos = (235,500);
}
);
layerId = "481D16E4-1E98-4559-AE79-559AF135D401";
shapes = (
{
closed = 1;
nodes = (
(267,260,l),
(338,344,o),
(384,417,o),
(415,500,c),
(360,500,l),
(338,424,o),
(297,367,o),
(235,290,c),
(173,367,o),
(132,424,o),
(110,500,c),
(55,500,l),
(86,417,o),
(142,344,o),
(213,260,c)
);
},
{
closed = 1;
nodes = (
(142,176,o),
(76,83,o),
(45,0,c),
(100,0,l),
(122,76,o),
(173,153,o),
(235,230,c),
(297,153,o),
(348,76,o),
(370,0,c),
(425,0,l),
(394,83,o),
(338,176,o),
(267,260,c),
(213,260,l)
);
}
);
width = 470;
},
{
anchors = (
{
name = bottom;
pos = (244,0);
},
{
name = top;
pos = (244,500);
}
);
layerId = "05E54F0F-8425-4B5B-B0EB-B578BBC85A7B";
shapes = (
{
closed = 1;
nodes = (
(360,260,l),
(440,344,o),
(458,417,o),
(478,500,c),
(280,500,l),
(273,420,o),
(256,358,o),
(244,330,c),
(232,358,o),
(215,420,o),
(208,500,c),
(10,500,l),
(30,417,o),
(68,344,o),
(148,260,c)
);
},
{
closed = 1;
nodes = (
(68,176,o),
(20,83,o),
(0,0,c),
(198,0,l),
(205,80,o),
(232,142,o),
(244,170,c),
(256,142,o),
(283,80,o),
(290,0,c),
(488,0,l),
(468,83,o),
(440,176,o),
(360,260,c),
(148,260,l)
);
}
);
width = 488;
},
{
anchors = (
{
name = bottom;
pos = (235,0);
},
{
name = top;
pos = (235,500);
}
);
layerId = m004;
shapes = (
{
closed = 1;
nodes = (
(267,260,l),
(338,344,o),
(384,417,o),
(415,500,c),
(360,500,l),
(338,424,o),
(297,367,o),
(235,290,c),
(173,367,o),
(132,424,o),
(110,500,c),
(55,500,l),
(86,417,o),
(142,344,o),
(213,260,c)
);
},
{
closed = 1;
nodes = (
(142,176,o),
(76,83,o),
(45,0,c),
(100,0,l),
(122,76,o),
(173,153,o),
(235,230,c),
(297,153,o),
(348,76,o),
(370,0,c),
(425,0,l),
(394,83,o),
(338,176,o),
(267,260,c),
(213,260,l)
);
}
);
width = 470;
},
{
anchors = (
{
name = bottom;
pos = (235,0);
},
{
name = top;
pos = (235,500);
}
);
hints = (
{
horizontal = 1;
place = (0,21);
target = up;
type = BottomGhost;
},
{
place = (40,390);
type = Stem;
}
);
layerId = m005;
shapes = (
{
closed = 1;
nodes = (
(277,260,l),
(349,344,o),
(398,417,o),
(430,500,c),
(330,500,l),
(308,434,o),
(287,364,o),
(235,297,c),
(183,364,o),
(162,434,o),
(140,500,c),
(40,500,l),
(72,417,o),
(131,344,o),
(203,260,c)
);
},
{
closed = 1;
nodes = (
(131,176,o),
(62,83,o),
(30,0,c),
(130,0,l),
(152,66,o),
(183,146,o),
(235,213,c),
(287,146,o),
(318,66,o),
(340,0,c),
(440,0,l),
(408,83,o),
(349,176,o),
(277,260,c),
(203,260,l)
);
}
);
width = 470;
},
{
anchors = (
{
name = bottom;
pos = (244,0);
},
{
name = top;
pos = (244,500);
}
);
layerId = m006;
shapes = (
{
closed = 1;
nodes = (
(324,260,l),
(404,344,o),
(458,417,o),
(478,500,c),
(280,500,l),
(273,420,o),
(256,362,o),
(244,334,c),
(232,362,o),
(215,420,o),
(208,500,c),
(10,500,l),
(30,417,o),
(84,344,o),
(164,260,c)
);
},
{
closed = 1;
nodes = (
(84,176,o),
(20,83,o),
(0,0,c),
(198,0,l),
(205,80,o),
(232,176,o),
(244,204,c),
(256,176,o),
(283,80,o),
(290,0,c),
(488,0,l),
(468,83,o),
(404,176,o),
(324,260,c),
(164,260,l)
);
}
);
width = 488;
},
{
associatedMasterId = "481D16E4-1E98-4559-AE79-559AF135D401";
layerId = "3EF2FCCD-CB93-4CD0-83B9-CF96778F0091";
width = 604.93783;
}
);
metricLeft = "=v";
metricRight = "=v";
note = x;
unicode = 120;
}
{
glyphname = y;
kernLeft = KO_y;
kernRight = KO_y;
layers = (
{
anchors = (
{
name = bottom;
pos = (235,0);
},
{
name = top;
pos = (235,500);
}
);
hints = (
{
horizontal = 1;
place = (-200,60);
type = Stem;
},
{
place = (10,450);
type = Stem;
}
);
layerId = m01;
shapes = (
{
closed = 1;
nodes = (
(290,0,l),
(372,167,o),
(408,333,o),
(440,500,c),
(340,500,l),
(318,367,o),
(297,233,o),
(235,100,c),
(173,233,o),
(152,367,o),
(130,500,c),
(30,500,l),
(62,333,o),
(108,167,o),
(190,0,c)
);
},
{
closed = 1;
nodes = (
(90,-200,ls),
(167,-200,o),
(217,-150,o),
(290,0,c),
(190,0,l),
(144,-97,o),
(121,-130,o),
(90,-130,cs),
(80,-130,o),
(70,-130,o),
(60,-130,c),
(60,-153,o),
(60,-177,o),
(60,-200,c)
);
}
);
width = 470;
},
{
anchors = (
{
name = bottom;
pos = (235,0);
},
{
name = top;
pos = (235,500);
}
);
layerId = "481D16E4-1E98-4559-AE79-559AF135D401";
shapes = (
{
closed = 1;
nodes = (
(267,0,l),
(348,167,o),
(394,333,o),
(425,500,c),
(370,500,l),
(348,347,o),
(307,193,o),
(235,40,c),
(163,193,o),
(122,347,o),
(100,500,c),
(45,500,l),
(76,333,o),
(132,167,o),
(213,0,c)
);
},
{
closed = 1;
nodes = (
(90,-200,ls),
(144,-200,o),
(194,-150,o),
(267,0,c),
(213,0,l),
(156,-120,o),
(125,-160,o),
(90,-160,cs),
(80,-160,o),
(70,-160,o),
(60,-160,c),
(60,-173,o),
(60,-187,o),
(60,-200,c)
);
}
);
width = 470;
},
{
anchors = (
{
name = bottom;
pos = (244,0);
},
{
name = top;
pos = (244,500);
}
);
layerId = "05E54F0F-8425-4B5B-B0EB-B578BBC85A7B";
shapes = (
{
closed = 1;
nodes = (
(324,0,l),
(414,167,o),
(448,333,o),
(488,500,c),
(290,500,l),
(283,339,o),
(266,218,o),
(244,162,c),
(222,218,o),
(205,339,o),
(198,500,c),
(0,500,l),
(40,333,o),
(74,167,o),
(164,0,c)
);
},
{
closed = 1;
nodes = (
(99,-200,ls),
(186,-200,o),
(258,-136,o),
(324,0,c),
(164,0,l),
(130,-71,o),
(107,-95,o),
(66,-95,cs),
(64,-95,o),
(62,-95,o),
(60,-95,c),
(60,-130,o),
(60,-165,o),
(60,-200,c)
);
}
);
width = 488;
},
{
anchors = (
{
name = bottom;
pos = (237,0);
},
{
name = top;
pos = (237,500);
}
);
layerId = m004;
shapes = (
{
closed = 1;
nodes = (
(271,0,l),
(352,167,o),
(398,333,o),
(429,500,c),
(374,500,l),
(352,347,o),
(311,193,o),
(239,40,c),
(167,193,o),
(126,347,o),
(104,500,c),
(49,500,l),
(80,333,o),
(136,167,o),
(217,0,c)
);
},
{
closed = 1;
nodes = (
(94,-200,ls),
(148,-200,o),
(198,-150,o),
(271,0,c),
(217,0,l),
(160,-135,o),
(129,-175,o),
(94,-175,cs),
(84,-175,o),
(76,-150,o),
(56,-150,cs),
(36,-150,o),
(49,-200,o),
(49,-200,c)
);
}
);
width = 474;
},
{
anchors = (
{
name = bottom;
pos = (237,0);
},
{
name = top;
pos = (237,500);
}
);
hints = (
{
horizontal = 1;
place = (-200,60);
type = Stem;
},
{
place = (10,450);
type = Stem;
}
);
layerId = m005;
shapes = (
{
closed = 1;
nodes = (
(294,0,l),
(376,167,o),
(412,333,o),
(444,500,c),
(344,500,l),
(322,367,o),
(301,208,o),
(239,75,c),
(177,208,o),
(156,367,o),
(134,500,c),
(34,500,l),
(66,333,o),
(122,167,o),
(204,0,c)
);
},
{
closed = 1;
nodes = (
(94,-200,ls),
(171,-200,o),
(221,-150,o),
(294,0,c),
(204,0,l),
(148,-117,o),
(125,-150,o),
(104,-150,cs),
(74,-150,o),
(69,-125,o),
(39,-125,cs),
(9,-125,o),
(34,-200,o),
(34,-200,c)
);
}
);
width = 474;
},
{
anchors = (
{
name = bottom;
pos = (244,0);
},
{
name = top;
pos = (244,500);
}
);
layerId = m006;
shapes = (
{
closed = 1;
nodes = (
(324,0,l),
(414,167,o),
(448,333,o),
(488,500,c),
(290,500,l),
(283,339,o),
(266,193,o),
(244,137,c),
(222,193,o),
(205,339,o),
(198,500,c),
(0,500,l),
(40,333,o),
(104,167,o),
(194,-1,c)
);
},
{
closed = 1;
nodes = (
(99,-200,ls),
(186,-200,o),
(258,-136,o),
(324,0,c),
(194,-1,l),
(148,-94,o),
(124,-125,o),
(104,-125,cs),
(76,-125,o),
(70,-75,o),
(20,-75,cs),
(-30,-75,o),
(0,-200,o),
(0,-200,c)
);
}
);
width = 488;
}
);
metricRight = "=v";
note = y;
unicode = 121;
userData = {
KernOnName = y;
};
}
{
glyphname = braceleft;
layers = (
{
hints = (
{
horizontal = 1;
place = (-67,57);
type = Stem;
},
{
horizontal = 1;
place = (313,50);
type = Stem;
},
{
horizontal = 1;
place = (677,57);
type = Stem;
},
{
place = (184,72);
type = Stem;
}
);
layerId = m01;
shapes = (
{
closed = 1;
nodes = (
(190,340,l),
(250,364,o),
(261,421,o),
(261,479,cs),
(261,507,o),
(259,531,o),
(259,559,cs),
(259,642,o),
(274,670,o),
(320,670,cs),
(333,670,o),
(354,666,o),
(384,661,c),
(384,731,l),
(371,736,o),
(336,743,o),
(303,743,cs),
(244,743,o),
(159,722,o),
(159,618,cs),
(159,576,o),
(164,541,o),
(164,499,cs),
(164,424,o),
(150,373,o),
(70,373,c),
(70,340,l)
);
},
{
closed = 1;
nodes = (
(70,307,l),
(150,307,o),
(164,256,o),
(164,181,cs),
(164,139,o),
(159,104,o),
(159,62,cs),
(159,-42,o),
(244,-63,o),
(303,-63,cs),
(336,-63,o),
(371,-56,o),
(384,-51,c),
(384,19,l),
(354,14,o),
(333,10,o),
(320,10,cs),
(274,10,o),
(259,38,o),
(259,121,cs),
(259,149,o),
(261,173,o),
(261,201,cs),
(261,259,o),
(250,316,o),
(190,340,c),
(70,340,l)
);
}
);
width = 412;
},
{
layerId = "481D16E4-1E98-4559-AE79-559AF135D401";
shapes = (
{
closed = 1;
nodes = (
(189,340,l),
(233,359,o),
(241,424,o),
(241,479,cs),
(241,506,o),
(239,530,o),
(239,559,cs),
(239,657,o),
(261,690,o),
(325,690,cs),
(335,690,o),
(348,688,o),
(364,686,c),
(364,717,l),
(349,720,o),
(329,723,o),
(308,723,cs),
(253,723,o),
(189,707,o),
(189,618,cs),
(189,577,o),
(194,542,o),
(194,499,cs),
(194,427,o),
(180,353,o),
(100,353,c),
(100,340,l)
);
},
{
closed = 1;
nodes = (
(100,327,l),
(180,327,o),
(194,253,o),
(194,181,cs),
(194,138,o),
(189,103,o),
(189,62,cs),
(189,-27,o),
(253,-43,o),
(308,-43,cs),
(329,-43,o),
(349,-40,o),
(364,-37,c),
(364,-6,l),
(348,-8,o),
(335,-10,o),
(325,-10,cs),
(261,-10,o),
(239,23,o),
(239,121,cs),
(239,150,o),
(241,174,o),
(241,201,cs),
(241,256,o),
(233,321,o),
(189,340,c),
(100,340,l)
);
}
);
width = 414;
},
{
layerId = "05E54F0F-8425-4B5B-B0EB-B578BBC85A7B";
shapes = (
{
closed = 1;
nodes = (
(235,340,l),
(303,357,o),
(341,406,o),
(341,479,cs),
(341,507,o),
(339,531,o),
(339,559,cs),
(339,627,o),
(358,650,o),
(385,650,cs),
(410,650,o),
(434,644,o),
(464,632,c),
(464,737,l),
(422,753,o),
(374,763,o),
(333,763,cs),
(260,763,o),
(139,736,o),
(139,618,cs),
(139,577,o),
(144,542,o),
(144,499,cs),
(144,423,o),
(136,398,o),
(50,398,c),
(50,340,l)
);
},
{
closed = 1;
nodes = (
(50,282,l),
(136,282,o),
(144,257,o),
(144,181,cs),
(144,138,o),
(139,103,o),
(139,62,cs),
(139,-56,o),
(260,-83,o),
(333,-83,cs),
(374,-83,o),
(422,-73,o),
(464,-57,c),
(464,48,l),
(434,36,o),
(410,30,o),
(385,30,cs),
(358,30,o),
(339,53,o),
(339,121,cs),
(339,149,o),
(341,173,o),
(341,201,cs),
(341,274,o),
(303,323,o),
(235,340,c),
(50,340,l)
);
}
);
width = 489;
},
{
layerId = m004;
shapes = (
{
closed = 1;
nodes = (
(179,340,l),
(223,359,o),
(231,424,o),
(231,479,cs),
(231,506,o),
(229,530,o),
(229,559,cs),
(229,662,o),
(251,695,o),
(315,695,cs),
(325,695,o),
(338,693,o),
(354,691,c),
(354,717,l),
(339,720,o),
(319,723,o),
(298,723,cs),
(243,723,o),
(179,707,o),
(179,618,cs),
(179,577,o),
(184,542,o),
(184,499,cs),
(184,427,o),
(170,353,o),
(90,353,c),
(90,340,l)
);
},
{
closed = 1;
nodes = (
(90,327,l),
(170,327,o),
(184,253,o),
(184,181,cs),
(184,138,o),
(179,103,o),
(179,62,cs),
(179,-27,o),
(243,-43,o),
(298,-43,cs),
(319,-43,o),
(339,-40,o),
(354,-37,c),
(354,-11,l),
(338,-13,o),
(325,-15,o),
(315,-15,cs),
(251,-15,o),
(229,18,o),
(229,121,cs),
(229,150,o),
(231,174,o),
(231,201,cs),
(231,256,o),
(223,321,o),
(179,340,c),
(90,340,l)
);
}
);
width = 399;
},
{
hints = (
{
horizontal = 1;
place = (-67,57);
type = Stem;
},
{
horizontal = 1;
place = (313,50);
type = Stem;
},
{
horizontal = 1;
place = (677,57);
type = Stem;
},
{
place = (184,72);
type = Stem;
}
);
layerId = m005;
shapes = (
{
closed = 1;
nodes = (
(180,340,l),
(240,364,o),
(251,421,o),
(251,479,cs),
(251,507,o),
(249,531,o),
(249,559,cs),
(249,662,o),
(264,690,o),
(310,690,cs),
(323,690,o),
(344,686,o),
(374,681,c),
(374,731,l),
(361,736,o),
(326,743,o),
(293,743,cs),
(234,743,o),
(149,722,o),
(149,618,cs),
(149,576,o),
(154,541,o),
(154,499,cs),
(154,404,o),
(140,353,o),
(60,353,c),
(60,340,l)
);
},
{
closed = 1;
nodes = (
(60,327,l),
(140,327,o),
(154,276,o),
(154,181,cs),
(154,139,o),
(149,104,o),
(149,62,cs),
(149,-42,o),
(234,-63,o),
(293,-63,cs),
(326,-63,o),
(361,-56,o),
(374,-51,c),
(374,-1,l),
(344,-6,o),
(323,-10,o),
(310,-10,cs),
(264,-10,o),
(249,18,o),
(249,121,cs),
(249,149,o),
(251,173,o),
(251,201,cs),
(251,259,o),
(240,316,o),
(180,340,c),
(60,340,l)
);
}
);
width = 404;
},
{
layerId = m006;
shapes = (
{
closed = 1;
nodes = (
(215,340,l),
(283,357,o),
(321,406,o),
(321,479,cs),
(321,507,o),
(319,531,o),
(319,559,cs),
(319,657,o),
(338,680,o),
(365,680,cs),
(390,680,o),
(414,674,o),
(444,662,c),
(444,737,l),
(402,753,o),
(354,763,o),
(313,763,cs),
(240,763,o),
(119,736,o),
(119,618,cs),
(119,577,o),
(124,542,o),
(124,499,cs),
(124,393,o),
(116,368,o),
(30,368,c),
(30,340,l)
);
},
{
closed = 1;
nodes = (
(30,312,l),
(116,312,o),
(124,287,o),
(124,181,cs),
(124,138,o),
(119,103,o),
(119,62,cs),
(119,-56,o),
(240,-83,o),
(313,-83,cs),
(354,-83,o),
(402,-73,o),
(444,-57,c),
(444,18,l),
(414,6,o),
(390,0,o),
(365,0,cs),
(338,0,o),
(319,23,o),
(319,121,cs),
(319,149,o),
(321,173,o),
(321,201,cs),
(321,274,o),
(283,323,o),
(215,340,c),
(30,340,l)
);
}
);
width = 459;
}
);
metricLeft = "=n";
metricRight = "=n/2";
note = braceleft;
unicode = 123;
userData = {
KernOnSpecialSpacing = {
R = parenthesis;
};
};
}
{
glyphname = yen;
layers = (
{
hints = (
{
horizontal = 1;
place = (0,21);
target = up;
type = BottomGhost;
},
{
horizontal = 1;
place = (167,50);
type = Stem;
},
{
horizontal = 1;
place = (267,50);
type = Stem;
},
{
place = (217,100);
type = Stem;
}
);
layerId = m01;
shapes = (
{
ref = Y;
},
{
closed = 1;
nodes = (
(462,263,l),
(462,333,l),
(88,333,l),
(88,263,l)
);
},
{
closed = 1;
nodes = (
(462,123,l),
(462,193,l),
(88,193,l),
(88,123,l)
);
}
);
width = 550;
},
{
layerId = "481D16E4-1E98-4559-AE79-559AF135D401";
shapes = (
{
ref = Y;
},
{
closed = 1;
nodes = (
(450,263,l),
(450,303,l),
(101,303,l),
(101,263,l)
);
},
{
closed = 1;
nodes = (
(450,143,l),
(450,183,l),
(101,183,l),
(101,143,l)
);
}
);
width = 550;
},
{
layerId = "05E54F0F-8425-4B5B-B0EB-B578BBC85A7B";
shapes = (
{
ref = Y;
},
{
closed = 1;
nodes = (
(524,282,l),
(523,382,l),
(100,382,l),
(100,282,l)
);
},
{
closed = 1;
nodes = (
(524,147,l),
(524,247,l),
(100,247,l),
(100,147,l)
);
}
);
width = 624;
},
{
layerId = m004;
shapes = (
{
ref = Y;
},
{
closed = 1;
nodes = (
(450,250,l),
(450,285,l),
(101,285,l),
(101,250,l)
);
},
{
closed = 1;
nodes = (
(450,135,l),
(450,170,l),
(101,170,l),
(101,135,l)
);
}
);
width = 550;
},
{
hints = (
{
horizontal = 1;
place = (0,21);
target = up;
type = BottomGhost;
},
{
horizontal = 1;
place = (167,50);
type = Stem;
},
{
horizontal = 1;
place = (267,50);
type = Stem;
},
{
place = (217,100);
type = Stem;
}
);
layerId = m005;
shapes = (
{
ref = Y;
},
{
closed = 1;
nodes = (
(462,265,l),
(462,315,l),
(88,315,l),
(88,265,l)
);
},
{
closed = 1;
nodes = (
(462,145,l),
(462,195,l),
(88,195,l),
(88,145,l)
);
}
);
width = 550;
},
{
layerId = m006;
shapes = (
{
ref = Y;
},
{
closed = 1;
nodes = (
(524,282,l),
(524,345,l),
(100,345,l),
(100,282,l)
);
},
{
closed = 1;
nodes = (
(524,169,l),
(524,232,l),
(100,232,l),
(100,169,l)
);
}
);
width = 624;
},
{
associatedMasterId = "481D16E4-1E98-4559-AE79-559AF135D401";
layerId = "3EF2FCCD-CB93-4CD0-83B9-CF96778F0091";
width = 602.5069;
}
);
note = yen;
unicode = 165;
userData = {
KernOnSpecialSpacing = {
L = symbols;
R = symbols;
};
};
}
{
glyphname = dieresis;
layers = (
{
hints = (
{
horizontal = 1;
place = (600,105);
type = Stem;
},
{
place = (118,105);
type = Stem;
},
{
place = (268,105);
type = Stem;
}
);
layerId = m01;
shapes = (
{
ref = dieresiscomb;
}
);
width = 480;
},
{
layerId = "481D16E4-1E98-4559-AE79-559AF135D401";
shapes = (
{
ref = dieresiscomb;
}
);
width = 480;
},
{
layerId = "05E54F0F-8425-4B5B-B0EB-B578BBC85A7B";
shapes = (
{
ref = dieresiscomb;
}
);
width = 480;
},
{
layerId = m004;
shapes = (
{
ref = dieresiscomb;
}
);
width = 480;
},
{
hints = (
{
horizontal = 1;
place = (600,105);
type = Stem;
},
{
place = (118,105);
type = Stem;
},
{
place = (268,105);
type = Stem;
}
);
layerId = m005;
shapes = (
{
ref = dieresiscomb;
}
);
width = 480;
},
{
layerId = m006;
shapes = (
{
ref = dieresiscomb;
}
);
width = 480;
},
{
associatedMasterId = "481D16E4-1E98-4559-AE79-559AF135D401";
hints = (
{
horizontal = 1;
place = (-23,-4);
type = Stem;
},
{
place = (-4,-4);
type = Stem;
},
{
place = (-10,-4);
type = Stem;
}
);
layerId = "3EF2FCCD-CB93-4CD0-83B9-CF96778F0091";
shapes = (
{
closed = 1;
nodes = (
(137,656,o),
(151,641,o),
(170,641,cs),
(189,641,o),
(205,656,o),
(205,675,cs),
(205,693,o),
(189,710,o),
(170,710,cs),
(151,710,o),
(137,693,o),
(137,675,cs)
);
},
{
closed = 1;
nodes = (
(287,656,o),
(301,641,o),
(320,641,cs),
(339,641,o),
(355,656,o),
(355,675,cs),
(355,693,o),
(339,710,o),
(320,710,cs),
(301,710,o),
(287,693,o),
(287,675,cs)
);
}
);
width = 491;
}
);
note = dieresis;
unicode = 168;
}
{
glyphname = copyright;
layers = (
{
anchors = (
{
name = bottom;
pos = (428.9,159);
},
{
name = top;
pos = (428.9,509);
}
);
layerId = "481D16E4-1E98-4559-AE79-559AF135D401";
shapes = (
{
closed = 1;
nodes = (
(600,-10,o),
(754,144,o),
(754,334,cs),
(754,523,o),
(600,677,o),
(411,677,cs),
(221,677,o),
(67,523,o),
(67,334,cs),
(67,144,o),
(221,-10,o),
(411,-10,cs)
);
},
{
closed = 1;
nodes = (
(243,30,o),
(107,166,o),
(107,334,cs),
(107,501,o),
(243,637,o),
(411,637,cs),
(578,637,o),
(714,501,o),
(714,334,cs),
(714,166,o),
(578,30,o),
(411,30,cs)
);
},
{
closed = 1;
nodes = (
(436,187,l),
(357,184,o),
(345,232,o),
(345,286,cs),
(345,382,ls),
(345,436,o),
(357,484,o),
(436,481,c),
(436,523,l),
(326,526,o),
(296,458,o),
(296,382,cs),
(296,286,ls),
(296,210,o),
(326,142,o),
(436,145,c)
);
},
{
closed = 1;
nodes = (
(449,144,o),
(486,152,o),
(520,168,c),
(517,183,o),
(512,197,o),
(510,210,c),
(483,194,o),
(457,186,o),
(422,187,c),
(422,145,l)
);
},
{
closed = 1;
nodes = (
(506,467,o),
(517,476,o),
(529,488,c),
(507,511,o),
(472,524,o),
(422,523,c),
(422,481,l),
(460,482,o),
(481,472,o),
(495,455,c)
);
}
);
width = 821;
},
{
anchors = (
{
name = bottom;
pos = (418,159);
},
{
name = top;
pos = (418,509);
}
);
hints = (
{
horizontal = 1;
place = (152,56);
type = Stem;
},
{
horizontal = 1;
place = (463.5,52.5);
type = Stem;
},
{
place = (262,70);
type = Stem;
}
);
layerId = m01;
shapes = (
{
closed = 1;
nodes = (
(583,-10,o),
(737,144,o),
(737,334,cs),
(737,523,o),
(583,677,o),
(394,677,cs),
(204,677,o),
(50,523,o),
(50,334,cs),
(50,144,o),
(204,-10,o),
(394,-10,cs)
);
},
{
closed = 1;
nodes = (
(238,50,o),
(110,178,o),
(110,334,cs),
(110,489,o),
(238,617,o),
(394,617,cs),
(549,617,o),
(677,489,o),
(677,334,cs),
(677,178,o),
(549,50,o),
(394,50,cs)
);
},
{
closed = 1;
nodes = (
(418,205,l),
(355,205,o),
(344,251,o),
(344,299,cs),
(344,369,ls),
(344,417,o),
(355,464,o),
(418,464,c),
(418,516,l),
(306,516,o),
(274,443,o),
(274,369,cs),
(274,299,ls),
(274,226,o),
(306,152,o),
(418,152,c)
);
},
{
closed = 1;
nodes = (
(467,152,o),
(513,177,o),
(513,177,c),
(509,192,o),
(503,210,o),
(498,226,c),
(498,226,o),
(467,205,o),
(418,205,c),
(418,152,l)
);
},
{
closed = 1;
nodes = (
(485,459,o),
(499,473,o),
(515,487,c),
(493,505,o),
(462,516,o),
(418,516,c),
(418,464,l),
(441,464,o),
(458,457,o),
(469,445,c)
);
}
);
width = 787;
},
{
anchors = (
{
name = bottom;
pos = (409,159);
},
{
name = top;
pos = (409,509);
}
);
layerId = "05E54F0F-8425-4B5B-B0EB-B578BBC85A7B";
shapes = (
{
closed = 1;
nodes = (
(566,-10,o),
(720,144,o),
(720,334,cs),
(720,523,o),
(566,677,o),
(377,677,cs),
(187,677,o),
(33,523,o),
(33,334,cs),
(33,144,o),
(187,-10,o),
(377,-10,cs)
);
},
{
closed = 1;
nodes = (
(243,90,o),
(133,200,o),
(133,334,cs),
(133,467,o),
(243,577,o),
(377,577,cs),
(510,577,o),
(620,467,o),
(620,334,cs),
(620,200,o),
(510,90,o),
(377,90,cs)
);
},
{
closed = 1;
nodes = (
(429,240,l),
(384,240,o),
(376,258,o),
(376,312,cs),
(376,356,ls),
(376,410,o),
(384,429,o),
(408,429,c),
(408,516,l),
(287,516,o),
(229,465,o),
(229,356,cs),
(229,312,ls),
(229,203,o),
(287,152,o),
(408,152,c)
);
},
{
closed = 1;
nodes = (
(448,152,o),
(488,165,o),
(520,187,c),
(513,210,o),
(504,234,o),
(497,257,c),
(497,257,o),
(462,240,o),
(429,240,c),
(408,152,l)
);
},
{
closed = 1;
nodes = (
(471,433,o),
(498,454,o),
(525,476,c),
(501,503,o),
(459,516,o),
(408,516,c),
(408,429,l),
(417,429,o),
(433,424,o),
(444,411,c)
);
}
);
width = 753;
},
{
anchors = (
{
name = bottom;
pos = (426,159);
},
{
name = top;
pos = (426,509);
}
);
layerId = m004;
shapes = (
{
closed = 1;
nodes = (
(593,-10,o),
(747,144,o),
(747,334,cs),
(747,523,o),
(593,677,o),
(404,677,cs),
(214,677,o),
(60,523,o),
(60,334,cs),
(60,144,o),
(214,-10,o),
(404,-10,cs)
);
},
{
closed = 1;
nodes = (
(236,30,o),
(100,166,o),
(100,334,cs),
(100,501,o),
(236,637,o),
(404,637,cs),
(571,637,o),
(707,501,o),
(707,334,cs),
(707,166,o),
(571,30,o),
(404,30,cs)
);
},
{
closed = 1;
nodes = (
(433,175,l),
(355,172,o),
(342,224,o),
(342,286,cs),
(342,382,ls),
(342,444,o),
(355,497,o),
(433,494,c),
(433,521,l),
(323,524,o),
(293,457,o),
(293,382,cs),
(293,286,ls),
(293,211,o),
(323,144,o),
(433,147,c)
);
},
{
closed = 1;
nodes = (
(453,145,o),
(484,157,o),
(516,169,c),
(514,188,o),
(507,202,o),
(495,202,cs),
(477,202,o),
(457,171,o),
(419,175,c),
(419,147,l)
);
},
{
closed = 1;
nodes = (
(507,460,o),
(516,472,o),
(516,488,cs),
(516,506,o),
(469,523,o),
(419,521,c),
(419,494,l),
(467,498,o),
(475,460,o),
(493,460,cs)
);
}
);
width = 807;
},
{
anchors = (
{
name = bottom;
pos = (412.5,159);
},
{
name = top;
pos = (412.5,509);
}
);
hints = (
{
horizontal = 1;
place = (152,56);
type = Stem;
},
{
horizontal = 1;
place = (463.5,52.5);
type = Stem;
},
{
place = (269,70);
type = Stem;
}
);
layerId = m005;
shapes = (
{
closed = 1;
nodes = (
(578,-10,o),
(732,144,o),
(732,334,cs),
(732,523,o),
(578,677,o),
(389,677,cs),
(199,677,o),
(45,523,o),
(45,334,cs),
(45,144,o),
(199,-10,o),
(389,-10,cs)
);
},
{
closed = 1;
nodes = (
(221,30,o),
(85,166,o),
(85,334,cs),
(85,501,o),
(221,637,o),
(389,637,cs),
(556,637,o),
(692,501,o),
(692,334,cs),
(692,166,o),
(556,30,o),
(389,30,cs)
);
},
{
closed = 1;
nodes = (
(413,187,l),
(350,187,o),
(339,234,o),
(339,299,cs),
(339,369,ls),
(339,434,o),
(350,481,o),
(413,481,c),
(413,516,l),
(301,516,o),
(269,443,o),
(269,369,cs),
(269,299,ls),
(269,226,o),
(301,152,o),
(413,152,c)
);
},
{
closed = 1;
nodes = (
(462,152,o),
(508,177,o),
(508,177,c),
(508,192,o),
(508,226,o),
(493,226,c),
(476,226,o),
(462,187,o),
(413,187,c),
(413,152,l)
);
},
{
closed = 1;
nodes = (
(482,443,o),
(510,469,o),
(510,487,cs),
(510,504,o),
(462,516,o),
(413,516,c),
(413,481,l),
(462,481,o),
(447,443,o),
(464,443,c)
);
}
);
width = 777;
},
{
anchors = (
{
name = bottom;
pos = (395.5,159);
},
{
name = top;
pos = (395.5,509);
}
);
layerId = m006;
shapes = (
{
closed = 1;
nodes = (
(553,-10,o),
(707,144,o),
(707,334,cs),
(707,523,o),
(553,677,o),
(364,677,cs),
(174,677,o),
(20,523,o),
(20,334,cs),
(20,144,o),
(174,-10,o),
(364,-10,cs)
);
},
{
closed = 1;
nodes = (
(217,65,o),
(95,187,o),
(95,334,cs),
(95,480,o),
(217,602,o),
(364,602,cs),
(510,602,o),
(632,480,o),
(632,334,cs),
(632,187,o),
(510,65,o),
(364,65,cs)
);
},
{
closed = 1;
nodes = (
(396,205,l),
(372,205,o),
(364,231,o),
(364,312,cs),
(364,356,ls),
(364,437,o),
(372,464,o),
(396,464,c),
(396,516,l),
(274,516,o),
(217,465,o),
(217,356,cs),
(217,312,ls),
(217,203,o),
(274,152,o),
(396,152,c)
);
},
{
closed = 1;
nodes = (
(452,152,o),
(508,187,o),
(508,187,c),
(508,187,o),
(525,264,o),
(484,264,c),
(444,264,o),
(445,205,o),
(396,205,c),
(396,152,l)
);
},
{
closed = 1;
nodes = (
(487,404,o),
(506,441,o),
(506,476,cs),
(506,511,o),
(452,516,o),
(396,516,c),
(396,464,l),
(445,464,o),
(417,404,o),
(452,404,cs)
);
}
);
width = 727;
}
);
metricLeft = "=O";
metricRight = "=O";
unicode = 169;
userData = {
KernOnSpecialSpacing = {
R = symbols;
};
};
}
{
export = 0;
glyphname = plusminus;
layers = (
{
hints = (
{
horizontal = 1;
place = (85,65);
type = Stem;
},
{
horizontal = 1;
place = (368,65);
type = Stem;
},
{
place = (248,65);
type = Stem;
}
);
layerId = m01;
shapes = (
{
closed = 1;
nodes = (
(248,433,l),
(80,433,l),
(80,368,l),
(248,368,l),
(248,200,l),
(313,200,l),
(313,368,l),
(480,368,l),
(480,433,l),
(313,433,l),
(313,600,l),
(248,600,l)
);
},
{
closed = 1;
nodes = (
(480,150,l),
(80,150,l),
(80,85,l),
(480,85,l)
);
}
);
width = 560;
},
{
layerId = "481D16E4-1E98-4559-AE79-559AF135D401";
width = 600;
},
{
layerId = "05E54F0F-8425-4B5B-B0EB-B578BBC85A7B";
width = 600;
},
{
layerId = m004;
width = 600;
},
{
hints = (
{
horizontal = 1;
place = (85,65);
type = Stem;
},
{
horizontal = 1;
place = (368,65);
type = Stem;
},
{
place = (248,65);
type = Stem;
}
);
layerId = m005;
shapes = (
{
closed = 1;
nodes = (
(248,433,l),
(80,433,l),
(80,368,l),
(248,368,l),
(248,200,l),
(313,200,l),
(313,368,l),
(480,368,l),
(480,433,l),
(313,433,l),
(313,600,l),
(248,600,l)
);
},
{
closed = 1;
nodes = (
(480,150,l),
(80,150,l),
(80,85,l),
(480,85,l)
);
}
);
width = 560;
},
{
layerId = m006;
width = 600;
},
{
associatedMasterId = "481D16E4-1E98-4559-AE79-559AF135D401";
layerId = "3EF2FCCD-CB93-4CD0-83B9-CF96778F0091";
width = 601.51933;
}
);
note = plusminus;
unicode = 177;
userData = {
KernOnSpecialSpacing = {
L = math;
R = math;
};
};
}
{
export = 0;
glyphname = threesuperior;
kernLeft = KO_threesuperior;
layers = (
{
hints = (
{
horizontal = 1;
place = (285,51);
type = Stem;
},
{
horizontal = 1;
place = (495,47);
type = Stem;
},
{
horizontal = 1;
place = (639.5,50.5);
type = Stem;
},
{
place = (78,242);
type = Stem;
},
{
place = (259,88);
type = Stem;
}
);
layerId = m01;
shapes = (
{
closed = 1;
nodes = (
(320,690,l),
(78,690,l),
(78,640,l),
(232,639,l),
(134,538,l),
(134,492,l),
(146,493,o),
(158,495,o),
(167,495,cs),
(240,495,o),
(259,460,o),
(259,422,cs),
(259,384,o),
(239,336,o),
(167,336,cs),
(149,336,o),
(127,340,o),
(96,356,c),
(70,311,l),
(94,300,o),
(129,285,o),
(167,285,cs),
(302,285,o),
(347,363,o),
(347,421,cs),
(347,470,o),
(324,536,o),
(219,542,c),
(320,643,l)
);
}
);
width = 447;
},
{
layerId = "481D16E4-1E98-4559-AE79-559AF135D401";
width = 600;
},
{
layerId = "05E54F0F-8425-4B5B-B0EB-B578BBC85A7B";
width = 600;
},
{
layerId = m004;
width = 600;
},
{
hints = (
{
horizontal = 1;
place = (285,51);
type = Stem;
},
{
horizontal = 1;
place = (495,47);
type = Stem;
},
{
horizontal = 1;
place = (639.5,50.5);
type = Stem;
},
{
place = (78,242);
type = Stem;
},
{
place = (259,88);
type = Stem;
}
);
layerId = m005;
shapes = (
{
closed = 1;
nodes = (
(320,690,l),
(78,690,l),
(78,640,l),
(232,639,l),
(134,538,l),
(134,492,l),
(146,493,o),
(158,495,o),
(167,495,cs),
(240,495,o),
(259,460,o),
(259,422,cs),
(259,384,o),
(239,336,o),
(167,336,cs),
(149,336,o),
(127,340,o),
(96,356,c),
(70,311,l),
(94,300,o),
(129,285,o),
(167,285,cs),
(302,285,o),
(347,363,o),
(347,421,cs),
(347,470,o),
(324,536,o),
(219,542,c),
(320,643,l)
);
}
);
width = 447;
},
{
layerId = m006;
width = 600;
},
{
associatedMasterId = "481D16E4-1E98-4559-AE79-559AF135D401";
layerId = "3EF2FCCD-CB93-4CD0-83B9-CF96778F0091";
width = 605.81145;
}
);
note = threesuperior;
unicode = 179;
userData = {
KernOnSpecialSpacing = {
L = superiors;
R = superiors;
};
};
}
{
glyphname = acute;
layers = (
{
layerId = m01;
shapes = (
{
ref = acutecomb;
}
);
width = 500;
},
{
layerId = "481D16E4-1E98-4559-AE79-559AF135D401";
shapes = (
{
ref = acutecomb;
}
);
width = 500;
},
{
layerId = "05E54F0F-8425-4B5B-B0EB-B578BBC85A7B";
shapes = (
{
ref = acutecomb;
}
);
width = 498;
},
{
layerId = m004;
shapes = (
{
ref = acutecomb;
}
);
width = 500;
},
{
hints = (
{
horizontal = 1;
place = (580,160);
type = Stem;
},
{
place = (148,205);
type = Stem;
}
);
layerId = m005;
shapes = (
{
ref = acutecomb;
}
);
width = 500;
},
{
layerId = m006;
shapes = (
{
ref = acutecomb;
}
);
width = 498;
},
{
associatedMasterId = "481D16E4-1E98-4559-AE79-559AF135D401";
hints = (
{
horizontal = 1;
place = (-22,-6);
type = Stem;
},
{
place = (-6,-8);
type = Stem;
}
);
layerId = "3EF2FCCD-CB93-4CD0-83B9-CF96778F0091";
shapes = (
{
closed = 1;
nodes = (
(180,627,l),
(191,610,l),
(321,681,l),
(305,708,l)
);
}
);
width = 500;
}
);
note = acute;
unicode = 180;
}
{
glyphname = paragraph;
layers = (
{
hints = (
{
horizontal = 1;
place = (0,21);
target = up;
type = BottomGhost;
},
{
horizontal = 1;
place = (635,65);
type = Stem;
},
{
place = (180,65);
type = Stem;
},
{
place = (340,65);
type = Stem;
}
);
layerId = m01;
shapes = (
{
closed = 1;
nodes = (
(80,512,o),
(125,467,o),
(180,467,c),
(180,0,l),
(245,0,l),
(245,587,l),
(340,587,l),
(340,0,l),
(405,0,l),
(405,587,l),
(422,587,o),
(438,587,o),
(455,587,c),
(455,667,l),
(180,667,ls),
(125,667,o),
(80,622,o),
(80,567,cs)
);
}
);
width = 535;
},
{
layerId = "481D16E4-1E98-4559-AE79-559AF135D401";
shapes = (
{
closed = 1;
nodes = (
(105,512,o),
(150,467,o),
(205,467,c),
(205,0,l),
(245,0,l),
(245,627,l),
(340,627,l),
(340,0,l),
(380,0,l),
(380,627,l),
(397,627,o),
(413,627,o),
(430,627,c),
(430,667,l),
(205,667,ls),
(150,667,o),
(105,622,o),
(105,567,cs)
);
}
);
width = 600;
},
{
layerId = "05E54F0F-8425-4B5B-B0EB-B578BBC85A7B";
shapes = (
{
closed = 1;
nodes = (
(30,512,o),
(75,467,o),
(130,467,c),
(130,0,l),
(245,0,l),
(245,517,l),
(340,517,l),
(340,0,l),
(455,0,l),
(455,517,l),
(472,517,o),
(488,517,o),
(505,517,c),
(505,667,l),
(130,667,ls),
(75,667,o),
(30,622,o),
(30,567,cs)
);
}
);
width = 600;
},
{
layerId = m004;
shapes = (
{
closed = 1;
nodes = (
(105,512,o),
(150,467,o),
(205,467,c),
(205,0,l),
(245,0,l),
(245,642,l),
(340,642,l),
(340,0,l),
(380,0,l),
(380,642,l),
(408,642,o),
(430,617,o),
(430,642,c),
(430,667,l),
(205,667,ls),
(150,667,o),
(105,622,o),
(105,567,cs)
);
}
);
width = 600;
},
{
hints = (
{
horizontal = 1;
place = (0,21);
target = up;
type = BottomGhost;
},
{
horizontal = 1;
place = (635,65);
type = Stem;
},
{
place = (180,65);
type = Stem;
},
{
place = (340,65);
type = Stem;
}
);
layerId = m005;
shapes = (
{
closed = 1;
nodes = (
(80,512,o),
(125,467,o),
(180,467,c),
(180,0,l),
(245,0,l),
(245,617,l),
(340,617,l),
(340,0,l),
(405,0,l),
(405,617,l),
(433,617,o),
(455,592,o),
(455,617,c),
(455,667,l),
(180,667,ls),
(125,667,o),
(80,622,o),
(80,567,cs)
);
}
);
width = 535;
},
{
layerId = m006;
shapes = (
{
closed = 1;
nodes = (
(30,512,o),
(75,467,o),
(130,467,c),
(130,0,l),
(245,0,l),
(245,581,l),
(340,581,l),
(340,0,l),
(455,0,l),
(455,581,l),
(483,581,o),
(505,531,o),
(505,581,c),
(505,667,l),
(130,667,ls),
(75,667,o),
(30,622,o),
(30,567,cs)
);
}
);
width = 600;
},
{
associatedMasterId = "481D16E4-1E98-4559-AE79-559AF135D401";
layerId = "3EF2FCCD-CB93-4CD0-83B9-CF96778F0091";
width = 602.46892;
}
);
note = paragraph;
unicode = 182;
userData = {
KernOnSpecialSpacing = {
L = NoKerning;
R = NoKerning;
};
};
}
{
glyphname = periodcentered;
layers = (
{
hints = (
{
horizontal = 1;
place = (193,120);
type = Stem;
},
{
place = (78,120);
type = Stem;
}
);
layerId = m01;
shapes = (
{
closed = 1;
nodes = (
(308,195,o),
(335,221,o),
(335,255,cs),
(335,288,o),
(308,315,o),
(275,315,cs),
(241,315,o),
(215,288,o),
(215,255,cs),
(215,221,o),
(241,195,o),
(275,195,cs)
);
}
);
width = 550;
},
{
layerId = "481D16E4-1E98-4559-AE79-559AF135D401";
shapes = (
{
closed = 1;
nodes = (
(279,220,o),
(295,236,o),
(295,255,cs),
(295,274,o),
(279,290,o),
(260,290,cs),
(241,290,o),
(225,274,o),
(225,255,cs),
(225,236,o),
(241,220,o),
(260,220,cs)
);
}
);
width = 520;
},
{
layerId = "05E54F0F-8425-4B5B-B0EB-B578BBC85A7B";
shapes = (
{
closed = 1;
nodes = (
(330,156,o),
(375,200,o),
(375,256,cs),
(375,311,o),
(330,356,o),
(275,356,cs),
(219,356,o),
(175,311,o),
(175,256,cs),
(175,200,o),
(219,156,o),
(275,156,cs)
);
}
);
width = 550;
},
{
layerId = m004;
shapes = (
{
closed = 1;
nodes = (
(279,220,o),
(295,236,o),
(295,255,cs),
(295,274,o),
(279,290,o),
(260,290,cs),
(241,290,o),
(225,274,o),
(225,255,cs),
(225,236,o),
(241,220,o),
(260,220,cs)
);
}
);
width = 520;
},
{
hints = (
{
horizontal = 1;
place = (193,120);
type = Stem;
},
{
place = (78,120);
type = Stem;
}
);
layerId = m005;
shapes = (
{
closed = 1;
nodes = (
(308,195,o),
(335,221,o),
(335,255,cs),
(335,288,o),
(308,315,o),
(275,315,cs),
(241,315,o),
(215,288,o),
(215,255,cs),
(215,221,o),
(241,195,o),
(275,195,cs)
);
}
);
width = 510;
},
{
layerId = m006;
shapes = (
{
closed = 1;
nodes = (
(330,156,o),
(375,200,o),
(375,256,cs),
(375,311,o),
(330,356,o),
(275,356,cs),
(219,356,o),
(175,311,o),
(175,256,cs),
(175,200,o),
(219,156,o),
(275,156,cs)
);
}
);
width = 550;
}
);
note = periodcentered;
unicode = 183;
userData = {
KernOnSpecialSpacing = {
L = NoKerning;
R = NoKerning;
};
};
}
{
glyphname = cedilla;
layers = (
{
hints = (
{
horizontal = 1;
place = (-150,39);
type = Stem;
},
{
horizontal = 1;
place = (-70,70);
type = Stem;
},
{
place = (220,40);
type = Stem;
},
{
place = (271,45);
type = Stem;
}
);
layerId = m01;
shapes = (
{
ref = cedillacomb;
}
);
width = 509;
},
{
layerId = "481D16E4-1E98-4559-AE79-559AF135D401";
shapes = (
{
ref = cedillacomb;
}
);
width = 511;
},
{
layerId = "05E54F0F-8425-4B5B-B0EB-B578BBC85A7B";
shapes = (
{
ref = cedillacomb;
}
);
width = 507;
},
{
layerId = m004;
shapes = (
{
ref = cedillacomb;
}
);
width = 511;
},
{
hints = (
{
horizontal = 1;
place = (-150,39);
type = Stem;
},
{
horizontal = 1;
place = (-70,70);
type = Stem;
},
{
place = (220,40);
type = Stem;
},
{
place = (271,45);
type = Stem;
}
);
layerId = m005;
shapes = (
{
ref = cedillacomb;
}
);
width = 480;
},
{
layerId = m006;
shapes = (
{
ref = cedillacomb;
}
);
width = 507;
},
{
associatedMasterId = "481D16E4-1E98-4559-AE79-559AF135D401";
hints = (
{
horizontal = 1;
place = (6,-1);
type = Stem;
},
{
horizontal = 1;
place = (3,-3);
type = Stem;
},
{
place = (-8,-2);
type = Stem;
},
{
place = (-10,-2);
type = Stem;
}
);
layerId = "3EF2FCCD-CB93-4CD0-83B9-CF96778F0091";
shapes = (
{
closed = 1;
nodes = (
(262,-58,o),
(277,-67,o),
(277,-84,cs),
(277,-101,o),
(263,-111,o),
(243,-111,cs),
(235,-111,o),
(221,-109,o),
(212,-106,c),
(201,-127,l),
(212,-132,o),
(229,-138,o),
(243,-138,cs),
(283,-138,o),
(310,-121,o),
(310,-84,cs),
(310,-48,o),
(279,-34,o),
(254,-36,c),
(254,0,l),
(226,0,l),
(226,-60,l),
(231,-58,o),
(237,-58,o),
(243,-58,cs)
);
}
);
width = 511.06205;
}
);
note = cedilla;
unicode = 184;
}
{
export = 0;
glyphname = onesuperior;
kernLeft = KO_onesuperior;
layers = (
{
hints = (
{
horizontal = 1;
place = (325,51);
type = Stem;
},
{
place = (164,82);
type = Stem;
}
);
layerId = m01;
shapes = (
{
closed = 1;
nodes = (
(164,376,l),
(83,376,l),
(83,325,l),
(326,325,l),
(326,376,l),
(246,376,l),
(246,685,l),
(187,685,l),
(70,630,l),
(89,584,l),
(164,611,l)
);
}
);
width = 426;
},
{
layerId = "481D16E4-1E98-4559-AE79-559AF135D401";
width = 600;
},
{
layerId = "05E54F0F-8425-4B5B-B0EB-B578BBC85A7B";
width = 600;
},
{
layerId = m004;
width = 600;
},
{
hints = (
{
horizontal = 1;
place = (325,51);
type = Stem;
},
{
place = (164,82);
type = Stem;
}
);
layerId = m005;
shapes = (
{
closed = 1;
nodes = (
(164,376,l),
(83,376,l),
(83,325,l),
(326,325,l),
(326,376,l),
(246,376,l),
(246,685,l),
(187,685,l),
(70,630,l),
(89,584,l),
(164,611,l)
);
}
);
width = 426;
},
{
layerId = m006;
width = 600;
},
{
associatedMasterId = "481D16E4-1E98-4559-AE79-559AF135D401";
layerId = "3EF2FCCD-CB93-4CD0-83B9-CF96778F0091";
width = 606.6091;
}
);
note = onesuperior;
unicode = 185;
userData = {
KernOnSpecialSpacing = {
L = superiors;
R = superiors;
};
};
}
{
glyphname = Eth;
kernRight = KO_O;
layers = (
{
hints = (
{
horizontal = 1;
place = (-10,80);
type = Stem;
},
{
horizontal = 1;
place = (597,80);
type = Stem;
},
{
place = (35,110);
type = Stem;
},
{
place = (425,110);
type = Stem;
}
);
layerId = m01;
shapes = (
{
pos = (14,0);
ref = D;
},
{
closed = 1;
nodes = (
(15,300,l),
(300,300,l),
(300,380,l),
(15,380,l)
);
}
);
width = 604;
},
{
layerId = "481D16E4-1E98-4559-AE79-559AF135D401";
shapes = (
{
pos = (10,0);
ref = D;
},
{
closed = 1;
nodes = (
(40,320,l),
(300,320,l),
(300,360,l),
(40,360,l)
);
}
);
width = 592;
},
{
layerId = "05E54F0F-8425-4B5B-B0EB-B578BBC85A7B";
shapes = (
{
pos = (20,0);
ref = D;
},
{
closed = 1;
nodes = (
(-10,265,l),
(325,265,l),
(325,415,l),
(-10,415,l)
);
}
);
width = 668;
},
{
layerId = m004;
shapes = (
{
ref = D;
},
{
closed = 1;
nodes = (
(30,328,l),
(290,328,l),
(290,353,l),
(30,353,l)
);
}
);
width = 565;
},
{
hints = (
{
horizontal = 1;
place = (-10,80);
type = Stem;
},
{
horizontal = 1;
place = (597,80);
type = Stem;
},
{
place = (35,110);
type = Stem;
},
{
place = (425,110);
type = Stem;
}
);
layerId = m005;
shapes = (
{
ref = D;
},
{
closed = 1;
nodes = (
(0,315,l),
(285,315,l),
(285,365,l),
(0,365,l)
);
}
);
width = 570;
},
{
layerId = m006;
shapes = (
{
ref = D;
},
{
closed = 1;
nodes = (
(-30,295,l),
(305,295,l),
(305,385,l),
(-30,385,l)
);
}
);
width = 615;
}
);
metricLeft = "=H-60";
metricRight = "=O";
note = O;
unicode = 208;
}
{
glyphname = ae;
kernLeft = KO_a;
kernRight = KO_e;
layers = (
{
hints = (
{
horizontal = 1;
place = (-10,75);
type = Stem;
},
{
horizontal = 1;
place = (215,65);
type = Stem;
},
{
horizontal = 1;
place = (440,70);
type = Stem;
},
{
place = (30,90);
type = Stem;
},
{
place = (300,95);
type = Stem;
},
{
place = (580,100);
type = Stem;
},
{
horizontal = 1;
place = (250,60);
type = Stem;
},
{
horizontal = 1;
place = (-10,80);
type = Stem;
}
);
layerId = m01;
shapes = (
{
closed = 1;
nodes = (
(239,-10,o),
(365,59,o),
(365,249,c),
(365,275,ls),
(365,404,o),
(375,510,o),
(225,510,cs),
(140,510,o),
(73,475,o),
(73,475,c),
(80,453,o),
(88,427,o),
(95,405,c),
(95,405,o),
(140,435,o),
(210,435,cs),
(290,435,o),
(290,405,o),
(290,310,c),
(154,310,o),
(20,282,o),
(20,155,cs),
(20,59,o),
(35,-10,o),
(145,-10,cs)
);
},
{
closed = 1;
nodes = (
(125,65,o),
(110,99,o),
(110,155,cs),
(110,238,o),
(218,249,o),
(290,250,c),
(290,200,ls),
(290,132,o),
(232,65,o),
(175,65,cs)
);
},
{
closed = 1;
nodes = (
(580,-10,o),
(647,25,o),
(647,25,c),
(640,48,o),
(632,72,o),
(625,95,c),
(625,95,o),
(580,65,o),
(495,65,cs),
(405,65,o),
(390,127,o),
(390,218,c),
(675,218,l),
(675,300,ls),
(675,405,o),
(641,510,o),
(495,510,cs),
(335,510,o),
(315,405,o),
(315,300,cs),
(315,200,ls),
(315,95,o),
(335,-10,o),
(495,-10,cs)
);
},
{
closed = 1;
nodes = (
(390,300,ls),
(390,373,o),
(405,440,o),
(495,440,cs),
(564,440,o),
(575,373,o),
(575,300,cs),
(575,288,l),
(390,288,l)
);
}
);
width = 715;
},
{
layerId = "481D16E4-1E98-4559-AE79-559AF135D401";
shapes = (
{
closed = 1;
nodes = (
(239,-10,o),
(339,43,o),
(339,233,c),
(339,275,ls),
(339,422,o),
(341,510,o),
(209,510,cs),
(175,510,o),
(132,500,o),
(90,482,c),
(93,470,o),
(97,455,o),
(100,443,c),
(133,460,o),
(168,470,o),
(199,470,cs),
(278,470,o),
(304,429,o),
(304,300,c),
(161,303,o),
(34,276,o),
(34,155,cs),
(34,43,o),
(69,-10,o),
(144,-10,cs)
);
},
{
closed = 1;
nodes = (
(95,30,o),
(74,64,o),
(74,155,cs),
(74,262,o),
(241,266,o),
(304,265,c),
(304,182,ls),
(304,99,o),
(234,30,o),
(164,30,cs)
);
},
{
closed = 1;
nodes = (
(518,-10,o),
(561,0,o),
(603,18,c),
(600,31,o),
(596,44,o),
(593,57,c),
(560,40,o),
(525,30,o),
(484,30,cs),
(366,30,o),
(354,106,o),
(354,233,c),
(639,233,l),
(639,318,ls),
(639,421,o),
(610,510,o),
(484,510,cs),
(342,510,o),
(319,421,o),
(319,318,cs),
(319,182,ls),
(319,79,o),
(342,-10,o),
(484,-10,cs)
);
},
{
closed = 1;
nodes = (
(354,318,ls),
(354,395,o),
(373,475,o),
(484,475,cs),
(576,475,o),
(589,395,o),
(589,318,cs),
(589,273,l),
(354,273,l)
);
}
);
width = 706;
},
{
layerId = "05E54F0F-8425-4B5B-B0EB-B578BBC85A7B";
shapes = (
{
closed = 1;
nodes = (
(247,-10,o),
(427,43,o),
(427,226,c),
(427,275,ls),
(427,390,o),
(460,510,o),
(267,510,cs),
(142,510,o),
(61,460,o),
(61,460,c),
(72,425,o),
(84,385,o),
(95,350,c),
(95,350,o),
(167,385,o),
(217,385,cs),
(267,385,o),
(277,361,o),
(277,318,c),
(173,314,o),
(17,288,o),
(17,155,cs),
(17,43,o),
(57,-10,o),
(142,-10,cs)
);
},
{
closed = 1;
nodes = (
(194,115,o),
(187,141,o),
(187,155,cs),
(187,209,o),
(213,223,o),
(277,226,c),
(277,218,ls),
(277,173,o),
(258,115,o),
(217,115,cs)
);
},
{
closed = 1;
nodes = (
(657,-10,o),
(738,40,o),
(738,40,c),
(727,77,o),
(715,113,o),
(704,150,c),
(704,150,o),
(632,115,o),
(562,115,cs),
(491,115,o),
(477,143,o),
(477,200,c),
(762,200,l),
(762,282,ls),
(762,437,o),
(705,510,o),
(532,510,cs),
(359,510,o),
(327,437,o),
(327,282,cs),
(327,218,ls),
(327,63,o),
(359,-10,o),
(532,-10,cs)
);
},
{
closed = 1;
nodes = (
(477,305,ls),
(477,359,o),
(491,385,o),
(532,385,cs),
(573,385,o),
(587,359,o),
(587,305,cs),
(587,303,l),
(477,303,l)
);
}
);
width = 795;
},
{
layerId = m004;
shapes = (
{
closed = 1;
nodes = (
(235,-10,o),
(335,43,o),
(335,241,c),
(335,275,ls),
(335,422,o),
(337,510,o),
(205,510,cs),
(140,510,o),
(81,479,o),
(81,479,c),
(81,465,o),
(81,443,o),
(96,443,c),
(111,443,o),
(140,485,o),
(195,485,cs),
(307,485,o),
(300,397,o),
(300,295,c),
(157,298,o),
(30,276,o),
(30,155,cs),
(30,43,o),
(65,-10,o),
(140,-10,cs)
);
},
{
closed = 1;
nodes = (
(91,25,o),
(70,64,o),
(70,155,cs),
(70,267,o),
(237,274,o),
(300,273,c),
(300,182,ls),
(300,98,o),
(235,25,o),
(160,25,cs)
);
},
{
closed = 1;
nodes = (
(520,-10,o),
(557,3,o),
(598,19,c),
(598,19,o),
(593,54,o),
(578,54,c),
(563,54,o),
(530,15,o),
(480,15,cs),
(362,15,o),
(350,89,o),
(350,241,c),
(635,241,l),
(635,318,ls),
(635,421,o),
(606,510,o),
(480,510,cs),
(338,510,o),
(315,421,o),
(315,318,cs),
(315,182,ls),
(315,79,o),
(338,-10,o),
(480,-10,cs)
);
},
{
closed = 1;
nodes = (
(350,318,ls),
(350,395,o),
(369,485,o),
(480,485,cs),
(572,485,o),
(585,395,o),
(585,318,cs),
(585,266,l),
(350,266,l)
);
}
);
width = 695;
},
{
hints = (
{
horizontal = 1;
place = (-10,75);
type = Stem;
},
{
horizontal = 1;
place = (215,65);
type = Stem;
},
{
horizontal = 1;
place = (440,70);
type = Stem;
},
{
place = (30,90);
type = Stem;
},
{
place = (300,95);
type = Stem;
},
{
place = (580,100);
type = Stem;
},
{
horizontal = 1;
place = (250,60);
type = Stem;
},
{
horizontal = 1;
place = (-10,80);
type = Stem;
}
);
layerId = m005;
shapes = (
{
closed = 1;
nodes = (
(239,-10,o),
(367,59,o),
(365,228,c),
(365,275,ls),
(365,405,o),
(375,510,o),
(225,510,cs),
(140,510,o),
(73,475,o),
(73,475,c),
(73,453,o),
(73,405,o),
(95,405,c),
(120,405,o),
(140,460,o),
(210,460,cs),
(270,460,o),
(290,423,o),
(290,305,c),
(154,305,o),
(20,282,o),
(20,155,cs),
(20,59,o),
(35,-10,o),
(145,-10,cs)
);
},
{
closed = 1;
nodes = (
(125,45,o),
(110,92,o),
(110,155,cs),
(110,243,o),
(218,260,o),
(290,260,c),
(290,200,ls),
(290,100,o),
(250,45,o),
(175,45,cs)
);
},
{
closed = 1;
nodes = (
(570,-10,o),
(640,30,o),
(640,30,c),
(640,62,o),
(630,95,o),
(610,95,cs),
(590,95,o),
(570,40,o),
(495,40,cs),
(405,40,o),
(390,101,o),
(390,228,c),
(675,228,l),
(675,300,ls),
(675,405,o),
(641,510,o),
(495,510,cs),
(335,510,o),
(315,405,o),
(315,300,cs),
(315,200,ls),
(315,95,o),
(335,-10,o),
(495,-10,cs)
);
},
{
closed = 1;
nodes = (
(390,300,ls),
(390,393,o),
(403,460,o),
(495,460,cs),
(564,460,o),
(575,373,o),
(575,300,cs),
(575,278,l),
(390,278,l)
);
}
);
width = 715;
},
{
layerId = m006;
shapes = (
{
closed = 1;
nodes = (
(240,-10,o),
(420,43,o),
(420,213,c),
(420,275,ls),
(420,390,o),
(453,510,o),
(260,510,cs),
(135,510,o),
(54,460,o),
(54,460,c),
(54,460,o),
(30,350,o),
(88,350,c),
(146,350,o),
(160,435,o),
(210,435,cs),
(255,435,o),
(270,408,o),
(270,328,c),
(166,324,o),
(10,288,o),
(10,155,cs),
(10,43,o),
(50,-10,o),
(135,-10,cs)
);
},
{
closed = 1;
nodes = (
(188,80,o),
(180,99,o),
(180,155,cs),
(180,210,o),
(219,254,o),
(270,256,c),
(270,218,ls),
(270,139,o),
(244,80,o),
(210,80,cs)
);
},
{
closed = 1;
nodes = (
(650,-10,o),
(731,40,o),
(731,40,c),
(731,40,o),
(755,150,o),
(697,150,c),
(639,150,o),
(595,65,o),
(525,65,cs),
(484,65,o),
(470,98,o),
(470,213,c),
(755,213,l),
(755,282,ls),
(755,437,o),
(698,510,o),
(525,510,cs),
(352,510,o),
(320,437,o),
(320,282,cs),
(320,218,ls),
(320,63,o),
(352,-10,o),
(525,-10,cs)
);
},
{
closed = 1;
nodes = (
(470,305,ls),
(470,403,o),
(484,435,o),
(525,435,cs),
(566,435,o),
(580,403,o),
(580,305,cs),
(580,288,l),
(470,288,l)
);
}
);
width = 775;
}
);
metricLeft = "=a";
metricRight = "=e";
note = ae;
unicode = 230;
}
{
glyphname = idieresis;
kernLeft = KO_igrave;
kernRight = KO_iacute;
layers = (
{
anchors = (
{
name = bottom;
pos = (110,0);
},
{
name = ogonek;
pos = (198,10);
},
{
name = top;
pos = (110,500);
}
);
hints = (
{
horizontal = 1;
place = (0,21);
target = up;
type = BottomGhost;
},
{
horizontal = 1;
place = (585,120);
type = Stem;
},
{
place = (48,120);
type = Stem;
},
{
place = (60,95);
type = Stem;
}
);
layerId = m01;
shapes = (
{
ref = dotlessi;
},
{
pos = (-130,0);
ref = dieresiscomb;
}
);
width = 220;
},
{
anchors = (
{
name = bottom;
pos = (110,0);
},
{
name = ogonek;
pos = (198,10);
},
{
name = top;
pos = (110,500);
}
);
layerId = "481D16E4-1E98-4559-AE79-559AF135D401";
shapes = (
{
ref = dotlessi;
},
{
pos = (-130,0);
ref = dieresiscomb;
}
);
width = 220;
},
{
anchors = (
{
name = bottom;
pos = (110,0);
},
{
name = ogonek;
pos = (198,10);
},
{
name = top;
pos = (110,500);
}
);
layerId = "05E54F0F-8425-4B5B-B0EB-B578BBC85A7B";
shapes = (
{
ref = dotlessi;
},
{
pos = (-130,0);
ref = dieresiscomb;
}
);
width = 220;
},
{
anchors = (
{
name = bottom;
pos = (110,0);
},
{
name = ogonek;
pos = (198,10);
},
{
name = top;
pos = (110,500);
}
);
layerId = m004;
shapes = (
{
ref = dotlessi;
},
{
pos = (-130,0);
ref = dieresiscomb;
}
);
width = 220;
},
{
anchors = (
{
name = bottom;
pos = (110,0);
},
{
name = ogonek;
pos = (198,10);
},
{
name = top;
pos = (110,500);
}
);
hints = (
{
horizontal = 1;
place = (0,21);
target = up;
type = BottomGhost;
},
{
horizontal = 1;
place = (585,120);
type = Stem;
},
{
place = (48,120);
type = Stem;
},
{
place = (60,95);
type = Stem;
}
);
layerId = m005;
shapes = (
{
ref = dotlessi;
},
{
pos = (-130,0);
ref = dieresiscomb;
}
);
width = 220;
},
{
anchors = (
{
name = bottom;
pos = (110,0);
},
{
name = ogonek;
pos = (198,10);
},
{
name = top;
pos = (110,500);
}
);
layerId = m006;
shapes = (
{
ref = dotlessi;
},
{
pos = (-130,0);
ref = dieresiscomb;
}
);
width = 220;
},
{
anchors = (
{
name = bottom;
pos = (110,0);
},
{
name = ogonek;
pos = (198,10);
},
{
name = top;
pos = (110,500);
}
);
associatedMasterId = "481D16E4-1E98-4559-AE79-559AF135D401";
hints = (
{
horizontal = 1;
place = (0,21);
target = up;
type = BottomGhost;
},
{
horizontal = 1;
place = (-22,-5);
type = Stem;
},
{
place = (-2,-5);
type = Stem;
},
{
place = (-2,-4);
type = Stem;
}
);
layerId = "3EF2FCCD-CB93-4CD0-83B9-CF96778F0091";
shapes = (
{
closed = 1;
nodes = (
(134,500,l),
(86,500,l),
(86,0,l),
(134,0,l)
);
}
);
width = 220;
}
);
note = i;
unicode = 239;
}
{
export = 0;
glyphname = divide;
layers = (
{
hints = (
{
horizontal = 1;
place = (50,95);
type = Stem;
},
{
horizontal = 1;
place = (218,65);
type = Stem;
},
{
horizontal = 1;
place = (355,95);
type = Stem;
},
{
place = (233,95);
type = Stem;
}
);
layerId = m01;
shapes = (
{
closed = 1;
nodes = (
(233,376,o),
(254,355,o),
(280,355,cs),
(306,355,o),
(328,376,o),
(328,402,cs),
(328,428,o),
(306,450,o),
(280,450,cs),
(254,450,o),
(233,428,o),
(233,402,cs)
);
},
{
closed = 1;
nodes = (
(480,283,l),
(80,283,l),
(80,218,l),
(480,218,l)
);
},
{
closed = 1;
nodes = (
(233,71,o),
(254,50,o),
(280,50,cs),
(306,50,o),
(328,71,o),
(328,97,cs),
(328,123,o),
(306,145,o),
(280,145,cs),
(254,145,o),
(233,123,o),
(233,97,cs)
);
}
);
width = 560;
},
{
layerId = "481D16E4-1E98-4559-AE79-559AF135D401";
width = 600;
},
{
layerId = "05E54F0F-8425-4B5B-B0EB-B578BBC85A7B";
width = 600;
},
{
layerId = m004;
width = 600;
},
{
hints = (
{
horizontal = 1;
place = (50,95);
type = Stem;
},
{
horizontal = 1;
place = (218,65);
type = Stem;
},
{
horizontal = 1;
place = (355,95);
type = Stem;
},
{
place = (233,95);
type = Stem;
}
);
layerId = m005;
shapes = (
{
closed = 1;
nodes = (
(233,376,o),
(254,355,o),
(280,355,cs),
(306,355,o),
(328,376,o),
(328,402,cs),
(328,428,o),
(306,450,o),
(280,450,cs),
(254,450,o),
(233,428,o),
(233,402,cs)
);
},
{
closed = 1;
nodes = (
(480,283,l),
(80,283,l),
(80,218,l),
(480,218,l)
);
},
{
closed = 1;
nodes = (
(233,71,o),
(254,50,o),
(280,50,cs),
(306,50,o),
(328,71,o),
(328,97,cs),
(328,123,o),
(306,145,o),
(280,145,cs),
(254,145,o),
(233,123,o),
(233,97,cs)
);
}
);
width = 560;
},
{
layerId = m006;
width = 600;
},
{
associatedMasterId = "481D16E4-1E98-4559-AE79-559AF135D401";
layerId = "3EF2FCCD-CB93-4CD0-83B9-CF96778F0091";
width = 601.51933;
}
);
note = divide;
unicode = 247;
userData = {
KernOnSpecialSpacing = {
L = math;
R = math;
};
};
}
{
glyphname = lslash;
kernLeft = KO_lslash;
layers = (
{
hints = (
{
horizontal = 1;
place = (0,21);
target = up;
type = BottomGhost;
},
{
place = (60,95);
type = Stem;
},
{
horizontal = 1;
place = (-3,63);
type = Stem;
}
);
layerId = m01;
shapes = (
{
closed = 1;
nodes = (
(254,0,l),
(254,70,l),
(224,70,ls),
(195,70,o),
(196,110,o),
(196,200,cs),
(196,710,l),
(101,700,l),
(101,200,ls),
(101,90,o),
(101,-10,o),
(224,-2,cs)
);
},
{
closed = 1;
nodes = (
(50,201,l),
(297,449,l),
(248,498,l),
(0,251,l)
);
}
);
width = 297;
},
{
layerId = "481D16E4-1E98-4559-AE79-559AF135D401";
shapes = (
{
closed = 1;
nodes = (
(201,0,l),
(201,40,l),
(196,40,ls),
(142,40,o),
(143,87,o),
(143,183,cs),
(143,705,l),
(98,700,l),
(98,183,ls),
(98,73,o),
(98,0,o),
(196,0,cs)
);
},
{
closed = 1;
nodes = (
(28,230,l),
(240,442,l),
(212,470,l),
(0,258,l)
);
}
);
width = 265;
},
{
layerId = "05E54F0F-8425-4B5B-B0EB-B578BBC85A7B";
shapes = (
{
closed = 1;
nodes = (
(373,0,l),
(373,125,l),
(343,125,ls),
(313,125,o),
(313,147,o),
(313,217,cs),
(313,715,l),
(113,700,l),
(113,217,ls),
(113,107,o),
(148,-15,o),
(343,-2,cs)
);
},
{
closed = 1;
nodes = (
(74,136,l),
(426,491,l),
(353,563,l),
(0,210,l)
);
}
);
width = 426;
},
{
layerId = m004;
shapes = (
{
closed = 1;
nodes = (
(196,0,l),
(196,25,l),
(191,25,ls),
(137,25,o),
(138,72,o),
(138,183,cs),
(138,705,l),
(93,700,l),
(93,183,ls),
(93,73,o),
(93,0,o),
(191,0,cs)
);
},
{
closed = 1;
nodes = (
(18,235,l),
(230,447,l),
(212,465,l),
(0,253,l)
);
}
);
width = 255;
},
{
hints = (
{
horizontal = 1;
place = (0,21);
target = up;
type = BottomGhost;
},
{
place = (60,95);
type = Stem;
},
{
horizontal = 1;
place = (-3,63);
type = Stem;
}
);
layerId = m005;
shapes = (
{
closed = 1;
nodes = (
(247,0,l),
(247,50,l),
(217,50,ls),
(188,50,o),
(189,90,o),
(189,200,cs),
(189,710,l),
(94,700,l),
(94,200,ls),
(94,90,o),
(94,-10,o),
(217,-2,cs)
);
},
{
closed = 1;
nodes = (
(35,208,l),
(282,456,l),
(247,490,l),
(0,243,l)
);
}
);
width = 282;
},
{
layerId = m006;
shapes = (
{
closed = 1;
nodes = (
(393,0,l),
(393,75,l),
(363,75,ls),
(333,75,o),
(333,97,o),
(333,217,cs),
(333,715,l),
(133,700,l),
(133,217,ls),
(133,107,o),
(168,-15,o),
(363,-2,cs)
);
},
{
closed = 1;
nodes = (
(83,147,l),
(436,501,l),
(383,552,l),
(30,199,l)
);
}
);
width = 436;
},
{
associatedMasterId = "481D16E4-1E98-4559-AE79-559AF135D401";
layerId = "3EF2FCCD-CB93-4CD0-83B9-CF96778F0091";
width = 613.18021;
}
);
note = l;
unicode = 322;
}
{
glyphname = oe;
kernLeft = KO_e;
kernRight = KO_e;
layers = (
{
layerId = "481D16E4-1E98-4559-AE79-559AF135D401";
shapes = (
{
closed = 1;
nodes = (
(414,318,ls),
(414,421,o),
(389,510,o),
(247,510,cs),
(105,510,o),
(67,421,o),
(67,318,cs),
(67,182,ls),
(67,79,o),
(105,-10,o),
(247,-10,cs),
(389,-10,o),
(414,79,o),
(414,182,cs)
);
},
{
closed = 1;
nodes = (
(377,182,ls),
(377,106,o),
(358,30,o),
(247,30,cs),
(136,30,o),
(117,106,o),
(117,182,cs),
(117,318,ls),
(117,394,o),
(136,470,o),
(247,470,cs),
(358,470,o),
(377,394,o),
(377,318,cs)
);
},
{
closed = 1;
nodes = (
(591,-10,o),
(634,0,o),
(676,18,c),
(673,31,o),
(669,44,o),
(666,57,c),
(633,40,o),
(598,30,o),
(557,30,cs),
(439,30,o),
(427,106,o),
(427,233,c),
(712,233,l),
(712,318,ls),
(712,421,o),
(683,510,o),
(557,510,cs),
(415,510,o),
(390,421,o),
(390,318,cs),
(390,182,ls),
(390,79,o),
(415,-10,o),
(557,-10,cs)
);
},
{
closed = 1;
nodes = (
(427,318,ls),
(427,395,o),
(446,475,o),
(557,475,cs),
(649,475,o),
(662,395,o),
(662,318,cs),
(662,273,l),
(427,273,l)
);
}
);
width = 779;
},
{
layerId = m01;
shapes = (
{
closed = 1;
nodes = (
(425,300,ls),
(425,401,o),
(405,510,o),
(245,510,cs),
(85,510,o),
(40,405,o),
(40,300,cs),
(40,200,ls),
(40,95,o),
(85,-10,o),
(245,-10,cs),
(405,-10,o),
(425,99,o),
(425,200,cs)
);
},
{
closed = 1;
nodes = (
(350,200,ls),
(350,132,o),
(335,65,o),
(245,65,cs),
(155,65,o),
(140,132,o),
(140,200,cs),
(140,300,ls),
(140,368,o),
(155,435,o),
(245,435,cs),
(335,435,o),
(350,368,o),
(350,300,cs)
);
},
{
closed = 1;
nodes = (
(640,-10,o),
(707,25,o),
(707,25,c),
(700,48,o),
(692,72,o),
(685,95,c),
(685,95,o),
(640,65,o),
(555,65,cs),
(465,65,o),
(450,127,o),
(450,218,c),
(735,218,l),
(735,300,ls),
(735,405,o),
(701,510,o),
(555,510,cs),
(395,510,o),
(375,405,o),
(375,300,cs),
(375,200,ls),
(375,95,o),
(395,-10,o),
(555,-10,cs)
);
},
{
closed = 1;
nodes = (
(450,300,ls),
(450,373,o),
(465,440,o),
(555,440,cs),
(624,440,o),
(635,373,o),
(635,300,cs),
(635,288,l),
(450,288,l)
);
}
);
width = 775;
},
{
layerId = "05E54F0F-8425-4B5B-B0EB-B578BBC85A7B";
shapes = (
{
closed = 1;
nodes = (
(493,282,ls),
(493,437,o),
(461,510,o),
(288,510,cs),
(115,510,o),
(33,437,o),
(33,282,cs),
(33,218,ls),
(33,63,o),
(115,-10,o),
(288,-10,cs),
(461,-10,o),
(493,63,o),
(493,218,cs)
);
},
{
closed = 1;
nodes = (
(343,218,ls),
(343,141,o),
(329,115,o),
(288,115,cs),
(247,115,o),
(233,141,o),
(233,218,cs),
(233,282,ls),
(233,359,o),
(247,385,o),
(288,385,cs),
(329,385,o),
(343,359,o),
(343,282,cs)
);
},
{
closed = 1;
nodes = (
(723,-10,o),
(804,40,o),
(804,40,c),
(793,77,o),
(781,113,o),
(770,150,c),
(770,150,o),
(698,115,o),
(628,115,cs),
(557,115,o),
(543,143,o),
(543,200,c),
(828,200,l),
(828,282,ls),
(828,437,o),
(771,510,o),
(598,510,cs),
(425,510,o),
(393,437,o),
(393,282,cs),
(393,218,ls),
(393,63,o),
(425,-10,o),
(598,-10,cs)
);
},
{
closed = 1;
nodes = (
(543,305,ls),
(543,359,o),
(557,385,o),
(598,385,cs),
(639,385,o),
(653,359,o),
(653,305,cs),
(653,303,l),
(543,303,l)
);
}
);
width = 861;
},
{
layerId = m004;
shapes = (
{
closed = 1;
nodes = (
(407,318,ls),
(407,421,o),
(382,510,o),
(240,510,cs),
(98,510,o),
(60,421,o),
(60,318,cs),
(60,182,ls),
(60,79,o),
(98,-10,o),
(240,-10,cs),
(382,-10,o),
(407,79,o),
(407,182,cs)
);
},
{
closed = 1;
nodes = (
(370,182,ls),
(370,96,o),
(351,15,o),
(240,15,cs),
(129,15,o),
(110,96,o),
(110,182,cs),
(110,318,ls),
(110,404,o),
(129,485,o),
(240,485,cs),
(351,485,o),
(370,404,o),
(370,318,cs)
);
},
{
closed = 1;
nodes = (
(590,-10,o),
(627,3,o),
(668,19,c),
(668,36,o),
(657,54,o),
(648,54,c),
(639,54,o),
(600,15,o),
(550,15,cs),
(432,15,o),
(420,89,o),
(420,241,c),
(705,241,l),
(705,318,ls),
(705,421,o),
(676,510,o),
(550,510,cs),
(408,510,o),
(383,421,o),
(383,318,cs),
(383,182,ls),
(383,79,o),
(408,-10,o),
(550,-10,cs)
);
},
{
closed = 1;
nodes = (
(420,318,ls),
(420,395,o),
(439,485,o),
(550,485,cs),
(642,485,o),
(655,395,o),
(655,318,cs),
(655,266,l),
(420,266,l)
);
}
);
width = 765;
},
{
layerId = m005;
shapes = (
{
closed = 1;
nodes = (
(425,300,ls),
(425,405,o),
(405,510,o),
(245,510,cs),
(85,510,o),
(40,405,o),
(40,300,cs),
(40,200,ls),
(40,95,o),
(85,-10,o),
(245,-10,cs),
(405,-10,o),
(425,95,o),
(425,200,cs)
);
},
{
closed = 1;
nodes = (
(350,200,ls),
(350,107,o),
(335,40,o),
(245,40,cs),
(155,40,o),
(140,107,o),
(140,200,cs),
(140,300,ls),
(140,393,o),
(155,460,o),
(245,460,cs),
(335,460,o),
(350,393,o),
(350,300,cs)
);
},
{
closed = 1;
nodes = (
(630,-10,o),
(700,30,o),
(700,30,c),
(700,62,o),
(690,95,o),
(670,95,cs),
(650,95,o),
(630,40,o),
(555,40,cs),
(465,40,o),
(450,101,o),
(450,228,c),
(735,228,l),
(735,300,ls),
(735,405,o),
(701,510,o),
(555,510,cs),
(395,510,o),
(375,405,o),
(375,300,cs),
(375,200,ls),
(375,95,o),
(395,-10,o),
(555,-10,cs)
);
},
{
closed = 1;
nodes = (
(450,300,ls),
(450,394,o),
(463,460,o),
(555,460,cs),
(624,460,o),
(635,373,o),
(635,300,cs),
(635,278,l),
(450,278,l)
);
}
);
width = 775;
},
{
layerId = m006;
shapes = (
{
closed = 1;
nodes = (
(480,282,ls),
(480,437,o),
(448,510,o),
(275,510,cs),
(102,510,o),
(20,437,o),
(20,282,cs),
(20,218,ls),
(20,63,o),
(102,-10,o),
(275,-10,cs),
(448,-10,o),
(480,63,o),
(480,218,cs)
);
},
{
closed = 1;
nodes = (
(330,218,ls),
(330,103,o),
(316,65,o),
(275,65,cs),
(234,65,o),
(220,103,o),
(220,218,cs),
(220,282,ls),
(220,397,o),
(234,435,o),
(275,435,cs),
(316,435,o),
(330,397,o),
(330,282,cs)
);
},
{
closed = 1;
nodes = (
(710,-10,o),
(791,40,o),
(791,40,c),
(791,40,o),
(815,150,o),
(757,150,c),
(699,150,o),
(655,65,o),
(585,65,cs),
(544,65,o),
(530,98,o),
(530,213,c),
(815,213,l),
(815,282,ls),
(815,437,o),
(758,510,o),
(585,510,cs),
(412,510,o),
(380,437,o),
(380,282,cs),
(380,218,ls),
(380,63,o),
(412,-10,o),
(585,-10,cs)
);
},
{
closed = 1;
nodes = (
(530,305,ls),
(530,403,o),
(544,435,o),
(585,435,cs),
(626,435,o),
(640,403,o),
(640,305,cs),
(640,288,l),
(530,288,l)
);
}
);
width = 835;
}
);
metricLeft = "=o";
metricRight = "=e";
unicode = 339;
}
{
glyphname = Schwa;
kernRight = KO_O;
layers = (
{
anchors = (
{
name = bottom;
pos = (282,0);
},
{
name = top;
pos = (282,667);
}
);
layerId = "481D16E4-1E98-4559-AE79-559AF135D401";
shapes = (
{
closed = 1;
nodes = (
(428,-10,o),
(497,80,o),
(497,270,cs),
(497,397,ls),
(497,587,o),
(428,677,o),
(282,677,c),
(282,637,l),
(394,637,o),
(447,560,o),
(447,397,cs),
(447,270,ls),
(447,107,o),
(394,30,o),
(282,30,c),
(282,-10,l)
);
},
{
closed = 1;
nodes = (
(282,30,l),
(170,30,o),
(117,107,o),
(117,270,cs),
(117,360,l),
(67,360,l),
(67,270,ls),
(67,80,o),
(136,-10,o),
(282,-10,c)
);
},
{
closed = 1;
nodes = (
(473,320,l),
(473,360,l),
(89,360,l),
(89,320,l)
);
},
{
closed = 1;
nodes = (
(196,623,o),
(233,637,o),
(282,637,c),
(282,677,l),
(219,677,o),
(171,660,o),
(136,626,c),
(147,615,o),
(158,604,o),
(169,593,c)
);
}
);
width = 564;
},
{
anchors = (
{
name = bottom;
pos = (290,0);
},
{
name = top;
pos = (290,667);
}
);
hints = (
{
horizontal = 1;
place = (-10,85);
type = Stem;
},
{
horizontal = 1;
place = (597,80);
type = Stem;
},
{
place = (35,110);
type = Stem;
},
{
horizontal = 1;
place = (-10,85);
type = Stem;
},
{
horizontal = 1;
place = (597,80);
type = Stem;
},
{
place = (35,110);
type = Stem;
}
);
layerId = m01;
shapes = (
{
closed = 1;
nodes = (
(444,-10,o),
(530,90,o),
(530,270,cs),
(530,397,ls),
(530,577,o),
(444,677,o),
(290,677,c),
(290,597,l),
(385,597,o),
(430,533,o),
(430,397,cs),
(430,270,ls),
(430,134,o),
(385,70,o),
(290,70,c),
(290,-10,l)
);
},
{
closed = 1;
nodes = (
(290,70,l),
(195,70,o),
(150,134,o),
(150,270,cs),
(150,380,l),
(50,380,l),
(50,270,ls),
(50,90,o),
(136,-10,o),
(290,-10,c)
);
},
{
closed = 1;
nodes = (
(485,300,l),
(485,380,l),
(70,380,l),
(70,300,l)
);
},
{
closed = 1;
nodes = (
(215,584,o),
(247,597,o),
(290,597,c),
(290,677,l),
(223,677,o),
(171,657,o),
(129,615,c),
(150,596,o),
(171,577,o),
(192,558,c)
);
}
);
width = 580;
},
{
anchors = (
{
name = bottom;
pos = (323,0);
},
{
name = top;
pos = (323,667);
}
);
layerId = "05E54F0F-8425-4B5B-B0EB-B578BBC85A7B";
shapes = (
{
closed = 1;
nodes = (
(520,-10,o),
(613,86,o),
(613,290,cs),
(613,377,ls),
(613,581,o),
(520,677,o),
(323,677,c),
(323,527,l),
(384,527,o),
(413,479,o),
(413,377,cs),
(413,290,ls),
(413,188,o),
(384,140,o),
(323,140,c),
(323,-10,l)
);
},
{
closed = 1;
nodes = (
(323,140,l),
(262,140,o),
(233,188,o),
(233,290,cs),
(233,400,l),
(33,400,l),
(33,290,ls),
(33,86,o),
(126,-10,o),
(323,-10,c)
);
},
{
closed = 1;
nodes = (
(520,280,l),
(520,400,l),
(61,400,l),
(61,280,l)
);
},
{
closed = 1;
nodes = (
(259,516,o),
(294,527,o),
(323,527,c),
(323,677,l),
(234,677,o),
(157,651,o),
(110,596,c),
(155,562,o),
(199,527,o),
(244,493,c)
);
}
);
width = 646;
},
{
anchors = (
{
name = bottom;
pos = (275,0);
},
{
name = top;
pos = (275,667);
}
);
layerId = m004;
shapes = (
{
closed = 1;
nodes = (
(421,-10,o),
(490,80,o),
(490,270,cs),
(490,397,ls),
(490,587,o),
(421,677,o),
(275,677,c),
(275,652,l),
(387,652,o),
(440,560,o),
(440,397,cs),
(440,270,ls),
(440,107,o),
(387,15,o),
(275,15,c),
(275,-10,l)
);
},
{
closed = 1;
nodes = (
(275,15,l),
(163,15,o),
(110,107,o),
(110,270,cs),
(110,355,l),
(60,355,l),
(60,270,ls),
(60,80,o),
(129,-10,o),
(275,-10,c)
);
},
{
closed = 1;
nodes = (
(464,325,l),
(464,355,l),
(75,355,l),
(75,325,l)
);
},
{
closed = 1;
nodes = (
(187,593,o),
(202,652,o),
(275,652,c),
(275,677,l),
(202,677,o),
(129,652,o),
(129,626,cs),
(129,608,o),
(144,593,o),
(162,593,cs)
);
}
);
width = 550;
},
{
anchors = (
{
name = bottom;
pos = (285,0);
},
{
name = top;
pos = (285,667);
}
);
hints = (
{
horizontal = 1;
place = (-10,85);
type = Stem;
},
{
horizontal = 1;
place = (597,80);
type = Stem;
},
{
place = (35,110);
type = Stem;
},
{
horizontal = 1;
place = (-10,85);
type = Stem;
},
{
horizontal = 1;
place = (597,80);
type = Stem;
},
{
place = (35,110);
type = Stem;
}
);
layerId = m005;
shapes = (
{
closed = 1;
nodes = (
(439,-10,o),
(525,90,o),
(525,270,cs),
(525,397,ls),
(525,577,o),
(439,677,o),
(285,677,c),
(285,627,l),
(380,627,o),
(425,553,o),
(425,397,cs),
(425,270,ls),
(425,114,o),
(380,40,o),
(285,40,c),
(285,-10,l)
);
},
{
closed = 1;
nodes = (
(285,40,l),
(190,40,o),
(145,114,o),
(145,270,cs),
(145,365,l),
(45,365,l),
(45,270,ls),
(45,90,o),
(131,-10,o),
(285,-10,c)
);
},
{
closed = 1;
nodes = (
(471,315,l),
(471,365,l),
(60,365,l),
(60,315,l)
);
},
{
closed = 1;
nodes = (
(225,558,o),
(225,627,o),
(285,627,c),
(285,677,l),
(204,677,o),
(124,646,o),
(124,615,cs),
(124,584,o),
(156,558,o),
(187,558,cs)
);
}
);
width = 570;
},
{
anchors = (
{
name = bottom;
pos = (310,0);
},
{
name = top;
pos = (310,667);
}
);
layerId = m006;
shapes = (
{
closed = 1;
nodes = (
(507,-10,o),
(600,86,o),
(600,290,cs),
(600,377,ls),
(600,581,o),
(507,677,o),
(310,677,c),
(310,587,l),
(374,587,o),
(400,536,o),
(400,377,cs),
(400,290,ls),
(400,131,o),
(374,80,o),
(310,80,c),
(310,-10,l)
);
},
{
closed = 1;
nodes = (
(310,80,l),
(246,80,o),
(220,131,o),
(220,290,cs),
(220,385,l),
(20,385,l),
(20,290,ls),
(20,86,o),
(113,-10,o),
(310,-10,c)
);
},
{
closed = 1;
nodes = (
(507,295,l),
(507,385,l),
(35,385,l),
(35,295,l)
);
},
{
closed = 1;
nodes = (
(245,493,o),
(246,587,o),
(310,587,c),
(310,677,l),
(210,677,o),
(110,637,o),
(110,596,cs),
(110,554,o),
(143,493,o),
(185,493,cs)
);
}
);
width = 620;
}
);
metricLeft = "=O";
metricRight = "=O";
unicode = 399;
}
{
glyphname = jdotless;
layers = (
{
anchors = (
{
name = bottom;
pos = (113,-200);
},
{
name = top;
pos = (113,500);
}
);
hints = (
{
horizontal = 1;
place = (585,120);
type = Stem;
},
{
place = (48,120);
type = Stem;
}
);
layerId = m01;
shapes = (
{
closed = 1;
nodes = (
(145,-211,o),
(156,-110,o),
(156,0,c),
(156,500,l),
(60,500,l),
(61,0,l),
(61,-90,o),
(61,-130,o),
(6,-130,cs),
(-4,-130,o),
(-14,-130,o),
(-24,-130,c),
(-24,-153,o),
(-24,-177,o),
(-24,-200,c),
(-14,-201,o),
(-4,-201,o),
(6,-202,cs)
);
}
);
width = 226;
},
{
anchors = (
{
name = bottom;
pos = (116,-200);
},
{
name = top;
pos = (116,500);
}
);
layerId = "481D16E4-1E98-4559-AE79-559AF135D401";
shapes = (
{
closed = 1;
nodes = (
(121,-217,o),
(131,-125,o),
(131,0,c),
(131,500,l),
(85,500,l),
(86,0,l),
(86,-114,o),
(81,-160,o),
(6,-160,cs),
(4,-160,o),
(3,-160,o),
(1,-160,c),
(1,-173,o),
(1,-187,o),
(1,-200,c),
(3,-200,o),
(6,-201,o),
(8,-201,cs)
);
}
);
width = 231;
},
{
anchors = (
{
name = bottom;
pos = (138,-200);
},
{
name = top;
pos = (138,500);
}
);
layerId = "05E54F0F-8425-4B5B-B0EB-B578BBC85A7B";
shapes = (
{
closed = 1;
nodes = (
(152,-214,o),
(225,-141,o),
(225,0,cs),
(225,500,l),
(25,500,l),
(25,0,ls),
(25,-53,o),
(24,-75,o),
(-5,-75,cs),
(-15,-75,o),
(-25,-75,o),
(-35,-75,c),
(-35,-117,o),
(-35,-158,o),
(-35,-200,c),
(-17,-201,o),
(1,-203,o),
(19,-204,cs)
);
}
);
width = 275;
},
{
anchors = (
{
name = bottom;
pos = (108,-200);
},
{
name = top;
pos = (108,500);
}
);
layerId = m004;
shapes = (
{
closed = 1;
nodes = (
(120,-210,o),
(131,-125,o),
(131,0,c),
(131,500,l),
(85,500,l),
(86,0,l),
(86,-135,o),
(81,-183,o),
(6,-183,cs),
(-29,-183,o),
(-14,-140,o),
(-29,-140,c),
(-44,-140,o),
(-54,-167,o),
(-54,-190,c),
(-54,-190,o),
(-31,-210,o),
(6,-210,cs)
);
}
);
width = 216;
},
{
anchors = (
{
name = bottom;
pos = (108,-200);
},
{
name = top;
pos = (108,500);
}
);
hints = (
{
horizontal = 1;
place = (585,120);
type = Stem;
},
{
place = (48,120);
type = Stem;
}
);
layerId = m005;
shapes = (
{
closed = 1;
nodes = (
(157,-210,o),
(156,-110,o),
(156,0,c),
(156,500,l),
(61,500,l),
(61,0,l),
(61,-100,o),
(61,-160,o),
(6,-160,c),
(-49,-160,o),
(-24,-110,o),
(-54,-110,cs),
(-69,-110,o),
(-94,-127,o),
(-94,-190,c),
(-94,-190,o),
(-54,-210,o),
(26,-210,cs)
);
}
);
width = 216;
},
{
anchors = (
{
name = bottom;
pos = (125,-200);
},
{
name = top;
pos = (125,500);
}
);
layerId = m006;
shapes = (
{
closed = 1;
nodes = (
(163,-215,o),
(225,-146,o),
(225,0,c),
(225,500,l),
(25,500,l),
(26,0,l),
(26,-68,o),
(17,-140,o),
(-10,-140,cs),
(-60,-140,o),
(-32,-50,o),
(-82,-50,cs),
(-120,-50,o),
(-157,-115,o),
(-157,-180,c),
(-113,-203,o),
(-46,-215,o),
(33,-215,cs)
);
}
);
width = 250;
}
);
metricRight = "=i+10";
note = j;
unicode = 567;
}
{
glyphname = breve;
layers = (
{
hints = (
{
horizontal = 1;
place = (538,65);
type = Stem;
},
{
place = (40,65);
type = Stem;
},
{
place = (300,65);
type = Stem;
}
);
layerId = m01;
shapes = (
{
ref = brevecomb;
}
);
width = 405;
},
{
layerId = "481D16E4-1E98-4559-AE79-559AF135D401";
shapes = (
{
ref = brevecomb;
}
);
width = 405;
},
{
layerId = "05E54F0F-8425-4B5B-B0EB-B578BBC85A7B";
shapes = (
{
ref = brevecomb;
}
);
width = 405;
},
{
layerId = m004;
shapes = (
{
ref = brevecomb;
}
);
width = 405;
},
{
layerId = m005;
shapes = (
{
ref = brevecomb;
}
);
width = 405;
},
{
layerId = m006;
shapes = (
{
ref = brevecomb;
}
);
width = 405;
},
{
associatedMasterId = "481D16E4-1E98-4559-AE79-559AF135D401";
hints = (
{
horizontal = 1;
place = (-20,-2);
type = Stem;
},
{
place = (-2,-2);
type = Stem;
},
{
place = (-11,-2);
type = Stem;
}
);
layerId = "3EF2FCCD-CB93-4CD0-83B9-CF96778F0091";
shapes = (
{
closed = 1;
nodes = (
(67,700,l),
(75,625,o),
(131,575,o),
(202,575,cs),
(273,575,o),
(330,625,o),
(338,700,c),
(324,700,l),
(314,646,o),
(264,603,o),
(202,603,cs),
(139,603,o),
(90,646,o),
(80,700,c)
);
}
);
width = 405;
}
);
note = breve;
unicode = 728;
}
{
glyphname = dotaccent;
layers = (
{
hints = (
{
horizontal = 1;
place = (606,100);
type = Stem;
},
{
place = (200,100);
type = Stem;
}
);
layerId = m01;
shapes = (
{
ref = dotaccentcomb;
}
);
width = 480;
},
{
layerId = "481D16E4-1E98-4559-AE79-559AF135D401";
shapes = (
{
ref = dotaccentcomb;
}
);
width = 480;
},
{
layerId = "05E54F0F-8425-4B5B-B0EB-B578BBC85A7B";
shapes = (
{
ref = dotaccentcomb;
}
);
width = 500;
},
{
layerId = m004;
shapes = (
{
ref = dotaccentcomb;
}
);
width = 480;
},
{
hints = (
{
horizontal = 1;
place = (606,100);
type = Stem;
},
{
place = (200,100);
type = Stem;
}
);
layerId = m005;
shapes = (
{
ref = dotaccentcomb;
}
);
width = 480;
},
{
layerId = m006;
shapes = (
{
ref = dotaccentcomb;
}
);
width = 500;
},
{
associatedMasterId = "481D16E4-1E98-4559-AE79-559AF135D401";
hints = (
{
horizontal = 1;
place = (-23,-4);
type = Stem;
},
{
place = (-8,-4);
type = Stem;
}
);
layerId = "3EF2FCCD-CB93-4CD0-83B9-CF96778F0091";
shapes = (
{
closed = 1;
nodes = (
(219,659,o),
(230,647,o),
(250,647,cs),
(270,647,o),
(281,659,o),
(281,679,cs),
(281,699,o),
(271,710,o),
(250,710,cs),
(230,710,o),
(219,698,o),
(219,679,cs)
);
}
);
width = 500;
}
);
note = dotaccent;
unicode = 729;
}
{
glyphname = hungarumlaut;
layers = (
{
hints = (
{
horizontal = 1;
place = (500,200);
type = Stem;
},
{
place = (88,295);
type = Stem;
}
);
layerId = m01;
shapes = (
{
ref = hungarumlautcomb;
}
);
width = 480;
},
{
layerId = "481D16E4-1E98-4559-AE79-559AF135D401";
shapes = (
{
ref = hungarumlautcomb;
}
);
width = 480;
},
{
layerId = "05E54F0F-8425-4B5B-B0EB-B578BBC85A7B";
shapes = (
{
ref = hungarumlautcomb;
}
);
width = 480;
},
{
layerId = m004;
shapes = (
{
ref = hungarumlautcomb;
}
);
width = 480;
},
{
hints = (
{
horizontal = 1;
place = (500,200);
type = Stem;
},
{
place = (88,295);
type = Stem;
}
);
layerId = m005;
shapes = (
{
ref = hungarumlautcomb;
}
);
width = 480;
},
{
layerId = m006;
shapes = (
{
ref = hungarumlautcomb;
}
);
width = 480;
},
{
associatedMasterId = "481D16E4-1E98-4559-AE79-559AF135D401";
hints = (
{
horizontal = 1;
place = (-19,-8);
type = Stem;
},
{
place = (-3,-11);
type = Stem;
}
);
layerId = "3EF2FCCD-CB93-4CD0-83B9-CF96778F0091";
shapes = (
{
closed = 1;
nodes = (
(242,700,l),
(204,700,l),
(104,500,l),
(127,500,l)
);
},
{
closed = 1;
nodes = (
(367,700,l),
(329,700,l),
(229,500,l),
(252,500,l)
);
}
);
width = 356;
}
);
note = hungarumlaut;
unicode = 733;
}
{
glyphname = tildecomb;
layers = (
{
anchors = (
{
name = _top;
pos = (250,500);
},
{
name = top;
pos = (250,710);
}
);
hints = (
{
horizontal = 1;
place = (638,68);
type = Stem;
},
{
place = (75,350);
type = Stem;
},
{
horizontal = 1;
place = (583,68);
type = Stem;
}
);
layerId = m01;
shapes = (
{
closed = 1;
nodes = (
(368,587,o),
(425,655,o),
(425,655,c),
(412,667,o),
(400,680,o),
(387,692,c),
(387,692,o),
(350,655,o),
(316,655,cs),
(248,655,o),
(247,710,o),
(182,710,cs),
(128,710,o),
(75,643,o),
(75,643,c),
(87,630,o),
(98,617,o),
(110,604,c),
(110,604,o),
(150,642,o),
(182,642,cs),
(248,642,o),
(248,587,o),
(316,587,cs)
);
}
);
width = 500;
},
{
anchors = (
{
name = _top;
pos = (250,500);
},
{
name = top;
pos = (250,696);
}
);
layerId = "481D16E4-1E98-4559-AE79-559AF135D401";
shapes = (
{
closed = 1;
nodes = (
(368,593,o),
(415,651,o),
(415,651,c),
(406,660,o),
(396,669,o),
(387,678,c),
(387,678,o),
(350,641,o),
(316,641,cs),
(258,641,o),
(247,696,o),
(182,696,cs),
(128,696,o),
(85,639,o),
(85,639,c),
(93,629,o),
(102,620,o),
(110,610,c),
(110,610,o),
(150,648,o),
(182,648,cs),
(238,648,o),
(248,593,o),
(316,593,cs)
);
}
);
width = 500;
},
{
anchors = (
{
name = _top;
pos = (250,500);
},
{
name = top;
pos = (250,710);
}
);
layerId = "05E54F0F-8425-4B5B-B0EB-B578BBC85A7B";
shapes = (
{
closed = 1;
nodes = (
(364,562,o),
(406,581,o),
(445,620,c),
(426,652,o),
(406,685,o),
(387,717,c),
(369,699,o),
(346,690,o),
(316,690,cs),
(248,690,o),
(247,735,o),
(182,735,cs),
(135,735,o),
(94,717,o),
(55,678,c),
(73,645,o),
(92,612,o),
(110,579,c),
(129,598,o),
(152,607,o),
(182,607,cs),
(248,607,o),
(248,562,o),
(316,562,cs)
);
}
);
width = 500;
},
{
anchors = (
{
name = _top;
pos = (250,500);
},
{
name = top;
pos = (250,696);
}
);
layerId = m004;
shapes = (
{
closed = 1;
nodes = (
(368,593,o),
(415,651,o),
(415,651,cs),
(431,670,o),
(407,693,o),
(387,678,cs),
(387,678,o),
(350,641,o),
(316,641,cs),
(258,641,o),
(247,696,o),
(182,696,cs),
(128,696,o),
(85,639,o),
(85,639,cs),
(69,620,o),
(90,595,o),
(110,610,cs),
(110,610,o),
(150,648,o),
(182,648,cs),
(238,648,o),
(248,593,o),
(316,593,cs)
);
}
);
width = 500;
},
{
anchors = (
{
name = _top;
pos = (250,500);
},
{
name = top;
pos = (250,710);
}
);
hints = (
{
horizontal = 1;
place = (638,68);
type = Stem;
},
{
place = (75,350);
type = Stem;
},
{
horizontal = 1;
place = (583,68);
type = Stem;
}
);
layerId = m005;
shapes = (
{
closed = 1;
nodes = (
(368,587,o),
(425,655,o),
(425,655,cs),
(445,681,o),
(410,716,o),
(387,692,cs),
(387,692,o),
(350,655,o),
(316,655,cs),
(248,655,o),
(247,710,o),
(182,710,cs),
(128,710,o),
(75,643,o),
(75,643,cs),
(55,617,o),
(87,580,o),
(110,604,cs),
(110,604,o),
(150,642,o),
(182,642,cs),
(248,642,o),
(248,587,o),
(316,587,cs)
);
}
);
width = 500;
},
{
anchors = (
{
name = _top;
pos = (250,500);
},
{
name = top;
pos = (250,710);
}
);
layerId = m006;
shapes = (
{
closed = 1;
nodes = (
(364,562,o),
(406,581,o),
(445,620,cs),
(495,670,o),
(413,743,o),
(387,717,cs),
(369,699,o),
(346,690,o),
(316,690,cs),
(248,690,o),
(247,735,o),
(182,735,cs),
(135,735,o),
(94,717,o),
(55,678,cs),
(5,628,o),
(84,553,o),
(110,579,cs),
(129,598,o),
(152,607,o),
(182,607,cs),
(248,607,o),
(248,562,o),
(316,562,cs)
);
}
);
width = 500;
}
);
note = tilde;
unicode = 771;
userData = {
KernOnSpecialSpacing = {
L = NoKerning;
R = NoKerning;
};
};
}
{
glyphname = macroncomb;
layers = (
{
anchors = (
{
name = _top;
pos = (250,500);
},
{
name = top;
pos = (250,700);
}
);
hints = (
{
horizontal = 1;
place = (635,65);
type = Stem;
},
{
place = (50,400);
type = Stem;
}
);
layerId = m01;
shapes = (
{
closed = 1;
nodes = (
(450,635,l),
(450,657,o),
(450,678,o),
(450,700,c),
(50,700,l),
(50,678,o),
(50,657,o),
(50,635,c)
);
}
);
width = 500;
},
{
anchors = (
{
name = _top;
pos = (250,500);
},
{
name = top;
pos = (250,700);
}
);
layerId = "481D16E4-1E98-4559-AE79-559AF135D401";
shapes = (
{
closed = 1;
nodes = (
(432,671,l),
(432,681,o),
(432,690,o),
(432,700,c),
(68,700,l),
(68,690,o),
(68,681,o),
(68,671,c)
);
}
);
width = 500;
},
{
anchors = (
{
name = _top;
pos = (250,500);
},
{
name = top;
pos = (250,700);
}
);
layerId = "05E54F0F-8425-4B5B-B0EB-B578BBC85A7B";
shapes = (
{
closed = 1;
nodes = (
(468,599,l),
(468,633,o),
(468,666,o),
(468,700,c),
(32,700,l),
(32,666,o),
(32,633,o),
(32,599,c)
);
}
);
width = 500;
},
{
anchors = (
{
name = _top;
pos = (250,500);
},
{
name = top;
pos = (250,700);
}
);
layerId = m004;
shapes = (
{
closed = 1;
nodes = (
(432,671,ls),
(457,671,o),
(457,700,o),
(432,700,cs),
(68,700,ls),
(43,700,o),
(43,671,o),
(68,671,cs)
);
}
);
width = 500;
},
{
anchors = (
{
name = _top;
pos = (250,500);
},
{
name = top;
pos = (250,700);
}
);
hints = (
{
horizontal = 1;
place = (635,65);
type = Stem;
},
{
place = (50,400);
type = Stem;
}
);
layerId = m005;
shapes = (
{
closed = 1;
nodes = (
(425,635,ls),
(475,635,o),
(475,700,o),
(425,700,cs),
(75,700,l),
(25,700,o),
(25,635,o),
(75,635,cs)
);
}
);
width = 500;
},
{
anchors = (
{
name = _top;
pos = (250,500);
},
{
name = top;
pos = (250,700);
}
);
layerId = m006;
shapes = (
{
closed = 1;
nodes = (
(418,599,ls),
(493,599,o),
(493,700,o),
(418,700,cs),
(82,700,ls),
(7,700,o),
(7,599,o),
(82,599,cs)
);
}
);
width = 500;
},
{
associatedMasterId = "481D16E4-1E98-4559-AE79-559AF135D401";
hints = (
{
horizontal = 1;
place = (-24,-2);
type = Stem;
},
{
place = (-2,-15);
type = Stem;
}
);
layerId = "3EF2FCCD-CB93-4CD0-83B9-CF96778F0091";
shapes = (
{
closed = 1;
nodes = (
(431,700,l),
(69,700,l),
(69,672,l),
(431,672,l)
);
}
);
width = 500;
}
);
note = macron;
unicode = 772;
userData = {
KernOnSpecialSpacing = {
L = NoKerning;
R = NoKerning;
};
};
}
{
glyphname = dotaccentcomb;
layers = (
{
anchors = (
{
name = _top;
pos = (250,500);
},
{
name = top;
pos = (250,710);
}
);
hints = (
{
horizontal = 1;
place = (606,100);
type = Stem;
},
{
place = (200,100);
type = Stem;
}
);
layerId = m01;
shapes = (
{
closed = 1;
nodes = (
(200,633,o),
(223,610,o),
(250,610,cs),
(278,610,o),
(300,633,o),
(300,660,cs),
(300,688,o),
(278,710,o),
(250,710,cs),
(223,710,o),
(200,688,o),
(200,660,cs)
);
}
);
width = 480;
},
{
anchors = (
{
name = _top;
pos = (240,500);
},
{
name = top;
pos = (240,710);
}
);
layerId = "481D16E4-1E98-4559-AE79-559AF135D401";
shapes = (
{
closed = 1;
nodes = (
(259,640,o),
(275,656,o),
(275,675,cs),
(275,694,o),
(259,710,o),
(240,710,cs),
(221,710,o),
(205,694,o),
(205,675,cs),
(205,656,o),
(221,640,o),
(240,640,cs)
);
}
);
width = 480;
},
{
anchors = (
{
name = _top;
pos = (250,500);
},
{
name = top;
pos = (250,710);
}
);
layerId = "05E54F0F-8425-4B5B-B0EB-B578BBC85A7B";
shapes = (
{
closed = 1;
nodes = (
(179,601,o),
(212,568,o),
(250,568,cs),
(290,568,o),
(321,601,o),
(321,639,cs),
(321,679,o),
(290,710,o),
(250,710,cs),
(212,710,o),
(179,679,o),
(179,639,cs)
);
}
);
width = 500;
},
{
anchors = (
{
name = _top;
pos = (240,500);
},
{
name = top;
pos = (240,710);
}
);
layerId = m004;
shapes = (
{
closed = 1;
nodes = (
(259,640,o),
(275,656,o),
(275,675,cs),
(275,694,o),
(259,710,o),
(240,710,cs),
(221,710,o),
(205,694,o),
(205,675,cs),
(205,656,o),
(221,640,o),
(240,640,cs)
);
}
);
width = 480;
},
{
anchors = (
{
name = _top;
pos = (250,500);
},
{
name = top;
pos = (250,710);
}
);
hints = (
{
horizontal = 1;
place = (606,100);
type = Stem;
},
{
place = (200,100);
type = Stem;
}
);
layerId = m005;
shapes = (
{
closed = 1;
nodes = (
(200,633,o),
(223,610,o),
(250,610,cs),
(278,610,o),
(300,633,o),
(300,660,cs),
(300,688,o),
(278,710,o),
(250,710,cs),
(223,710,o),
(200,688,o),
(200,660,cs)
);
}
);
width = 480;
},
{
anchors = (
{
name = _top;
pos = (250,500);
},
{
name = top;
pos = (250,710);
}
);
layerId = m006;
shapes = (
{
closed = 1;
nodes = (
(179,601,o),
(212,568,o),
(250,568,cs),
(290,568,o),
(321,601,o),
(321,639,cs),
(321,679,o),
(290,710,o),
(250,710,cs),
(212,710,o),
(179,679,o),
(179,639,cs)
);
}
);
width = 500;
},
{
associatedMasterId = "481D16E4-1E98-4559-AE79-559AF135D401";
hints = (
{
horizontal = 1;
place = (-23,-4);
type = Stem;
},
{
place = (-8,-4);
type = Stem;
}
);
layerId = "3EF2FCCD-CB93-4CD0-83B9-CF96778F0091";
shapes = (
{
closed = 1;
nodes = (
(219,659,o),
(230,647,o),
(250,647,cs),
(270,647,o),
(281,659,o),
(281,679,cs),
(281,699,o),
(271,710,o),
(250,710,cs),
(230,710,o),
(219,698,o),
(219,679,cs)
);
}
);
width = 500;
}
);
note = dotaccent;
unicode = 775;
userData = {
KernOnSpecialSpacing = {
L = NoKerning;
R = NoKerning;
};
};
}
{
glyphname = ringcomb;
layers = (
{
anchors = (
{
name = _top;
pos = (251,500);
},
{
name = top;
pos = (251,713);
}
);
hints = (
{
horizontal = 1;
place = (565,40);
type = Stem;
},
{
horizontal = 1;
place = (675,40);
type = Stem;
},
{
place = (175,40);
type = Stem;
},
{
place = (285,40);
type = Stem;
}
);
layerId = m01;
shapes = (
{
closed = 1;
nodes = (
(163,578,o),
(203,538,o),
(250,538,cs),
(297,538,o),
(338,578,o),
(338,625,cs),
(338,672,o),
(297,713,o),
(250,713,cs),
(203,713,o),
(163,672,o),
(163,625,cs)
);
},
{
closed = 1;
nodes = (
(215,644,o),
(231,660,o),
(250,660,cs),
(269,660,o),
(285,644,o),
(285,625,cs),
(285,606,o),
(269,590,o),
(250,590,cs),
(231,590,o),
(215,606,o),
(215,625,cs)
);
}
);
width = 500;
},
{
anchors = (
{
name = _top;
pos = (250,500);
},
{
name = top;
pos = (250,700);
}
);
layerId = "481D16E4-1E98-4559-AE79-559AF135D401";
shapes = (
{
closed = 1;
nodes = (
(175,584,o),
(209,550,o),
(250,550,cs),
(291,550,o),
(325,584,o),
(325,625,cs),
(325,666,o),
(291,700,o),
(250,700,cs),
(209,700,o),
(175,666,o),
(175,625,cs)
);
},
{
closed = 1;
nodes = (
(205,649,o),
(226,670,o),
(250,670,cs),
(274,670,o),
(295,649,o),
(295,625,cs),
(295,601,o),
(274,580,o),
(250,580,cs),
(226,580,o),
(205,601,o),
(205,625,cs)
);
}
);
width = 500;
},
{
anchors = (
{
name = _top;
pos = (250,500);
},
{
name = top;
pos = (250,775);
}
);
layerId = "05E54F0F-8425-4B5B-B0EB-B578BBC85A7B";
shapes = (
{
closed = 1;
nodes = (
(125,583,o),
(183,525,o),
(250,525,cs),
(318,525,o),
(375,583,o),
(375,650,cs),
(375,718,o),
(318,775,o),
(250,775,cs),
(183,775,o),
(125,718,o),
(125,650,cs)
);
},
{
closed = 1;
nodes = (
(206,674,o),
(226,694,o),
(250,694,cs),
(274,694,o),
(294,674,o),
(294,650,cs),
(294,626,o),
(274,606,o),
(250,606,cs),
(226,606,o),
(206,626,o),
(206,650,cs)
);
}
);
width = 500;
},
{
anchors = (
{
name = _top;
pos = (250,500);
},
{
name = top;
pos = (250,700);
}
);
layerId = m004;
shapes = (
{
closed = 1;
nodes = (
(175,584,o),
(209,550,o),
(250,550,cs),
(291,550,o),
(325,584,o),
(325,625,cs),
(325,666,o),
(291,700,o),
(250,700,cs),
(209,700,o),
(175,666,o),
(175,625,cs)
);
},
{
closed = 1;
nodes = (
(205,649,o),
(226,670,o),
(250,670,cs),
(274,670,o),
(295,649,o),
(295,625,cs),
(295,601,o),
(274,580,o),
(250,580,cs),
(226,580,o),
(205,601,o),
(205,625,cs)
);
}
);
width = 500;
},
{
anchors = (
{
name = _top;
pos = (251,500);
},
{
name = top;
pos = (251,713);
}
);
hints = (
{
horizontal = 1;
place = (565,40);
type = Stem;
},
{
horizontal = 1;
place = (675,40);
type = Stem;
},
{
place = (175,40);
type = Stem;
},
{
place = (285,40);
type = Stem;
}
);
layerId = m005;
shapes = (
{
closed = 1;
nodes = (
(163,578,o),
(203,538,o),
(250,538,cs),
(297,538,o),
(338,578,o),
(338,625,cs),
(338,672,o),
(297,713,o),
(250,713,cs),
(203,713,o),
(163,672,o),
(163,625,cs)
);
},
{
closed = 1;
nodes = (
(214,645,o),
(230,661,o),
(250,661,cs),
(270,661,o),
(286,645,o),
(286,625,cs),
(286,605,o),
(270,589,o),
(250,589,cs),
(230,589,o),
(214,605,o),
(214,625,cs)
);
}
);
width = 500;
},
{
anchors = (
{
name = _top;
pos = (250,500);
},
{
name = top;
pos = (250,775);
}
);
layerId = m006;
shapes = (
{
closed = 1;
nodes = (
(125,583,o),
(183,525,o),
(250,525,cs),
(318,525,o),
(375,583,o),
(375,650,cs),
(375,718,o),
(318,775,o),
(250,775,cs),
(183,775,o),
(125,718,o),
(125,650,cs)
);
},
{
closed = 1;
nodes = (
(215,669,o),
(231,685,o),
(250,685,cs),
(269,685,o),
(285,669,o),
(285,650,cs),
(285,631,o),
(269,615,o),
(250,615,cs),
(231,615,o),
(215,631,o),
(215,650,cs)
);
}
);
width = 500;
},
{
associatedMasterId = "481D16E4-1E98-4559-AE79-559AF135D401";
hints = (
{
horizontal = 1;
place = (-21,-2);
type = Stem;
},
{
horizontal = 1;
place = (-26,-2);
type = Stem;
},
{
place = (-7,-2);
type = Stem;
},
{
place = (-11,-2);
type = Stem;
}
);
layerId = "3EF2FCCD-CB93-4CD0-83B9-CF96778F0091";
shapes = (
{
closed = 1;
nodes = (
(175,594,o),
(209,560,o),
(250,560,cs),
(291,560,o),
(325,594,o),
(325,635,cs),
(325,676,o),
(291,710,o),
(250,710,cs),
(209,710,o),
(175,676,o),
(175,635,cs)
);
},
{
closed = 1;
nodes = (
(205,659,o),
(226,680,o),
(250,680,cs),
(274,680,o),
(295,659,o),
(295,635,cs),
(295,611,o),
(274,590,o),
(250,590,cs),
(226,590,o),
(205,611,o),
(205,635,cs)
);
}
);
width = 500;
}
);
note = ring;
unicode = 778;
userData = {
KernOnSpecialSpacing = {
L = NoKerning;
R = NoKerning;
};
};
}
